<?xml version="1.0" standalone="no"?>
<!DOCTYPE svg PUBLIC "-//W3C//DTD SVG 1.1//EN" "http://www.w3.org/Graphics/SVG/1.1/DTD/svg11.dtd" >
<svg xmlns="http://www.w3.org/2000/svg" xmlns:xlink="http://www.w3.org/1999/xlink" version="1.1">
<metadata>
Created by FontForge 20141024 at Fri Dec  4 15:12:19 2015
 By Jimmy Warting
Copyright \(c\) 2006 by Josef Tyfa &#38; Frantisek Storm. All rights reserved.
</metadata>
<defs>
<font id="Academica" horiz-adv-x="570" >
  <font-face 
    font-family="Academica"
    font-weight="400"
    font-stretch="normal"
    units-per-em="1000"
    panose-1="2 0 5 3 0 0 0 2 0 4"
    ascent="800"
    descent="-200"
    x-height="487"
    cap-height="694"
    bbox="-152 -315 1206 976"
    underline-thickness="50"
    underline-position="-50"
    unicode-range="U+0020-F7FF"
  />
<missing-glyph horiz-adv-x="431" 
 />
    <glyph glyph-name="f_f" unicode="ff" horiz-adv-x="631" 
d="M24 487h79c9 194 116 249 187 249c50 0 74 -24 74 -65c0 -31 -18 -59 -55 -59c-48 0 -53 47 -91 47c-29 0 -40 -28 -40 -62c0 -42 15 -110 45 -110h179c10 194 117 249 187 249c50 0 74 -24 74 -65c0 -31 -17 -59 -54 -59c-48 0 -53 47 -92 47c-28 0 -39 -28 -39 -62
c0 -42 14 -110 44 -110h108v-48h-127c-1 -61 -1 -119 -1 -158c0 -72 0 -140 2 -195c1 -41 7 -48 47 -53l54 -3v-30h-274v30l20 3c41 6 50 10 51 53c2 65 2 125 2 191c0 54 -1 108 -2 162h-198c-1 -61 -1 -119 -1 -158c0 -72 0 -140 2 -195c1 -41 7 -50 47 -53l33 -3v-30
h-254v30l20 3c41 6 50 10 51 53c2 65 2 125 2 191c0 54 0 108 -1 162h-79v48z" />
    <glyph glyph-name="f_i" unicode="fi" horiz-adv-x="588" 
d="M24 487h79c10 163 126 249 258 249c87 0 137 -26 137 -80c0 -36 -24 -59 -61 -59c-70 0 -43 80 -132 80c-79 0 -109 -69 -109 -125c0 -31 9 -65 27 -65h106c98 0 141 8 172 19l7 -4c-3 -60 -5 -167 -5 -261c0 -73 0 -121 2 -157c2 -41 8 -46 46 -51l23 -3v-30h-242v30
l20 3c41 6 48 8 50 51c2 50 3 97 3 147c0 53 -2 124 -3 150c-2 40 -12 58 -56 58h-142c-1 -61 -1 -119 -1 -158c0 -72 0 -140 2 -195c1 -41 7 -48 45 -53l31 -3v-30h-250v30l20 3c41 6 50 10 51 53c2 65 2 125 2 191c0 54 0 108 -1 162h-79v48z" />
    <glyph glyph-name="f_j" unicode="fj" horiz-adv-x="587" 
d="M24 487h79c10 163 126 249 258 249c87 0 137 -26 137 -80c0 -36 -24 -59 -61 -59c-70 0 -43 80 -132 80c-79 0 -109 -69 -109 -125c0 -31 9 -65 27 -65h106c98 0 141 8 172 19l7 -4c-3 -60 -5 -180 -5 -274s1 -239 1 -302c0 -93 -54 -134 -119 -134c-43 0 -78 22 -103 68
l23 21c13 -18 32 -25 47 -25c25 0 46 17 48 52c5 57 5 207 5 312c0 60 -2 135 -3 161c-2 40 -12 58 -56 58h-142c-1 -61 -1 -119 -1 -158c0 -72 0 -140 2 -195c1 -41 7 -48 45 -53l31 -3v-30h-250v30l20 3c41 6 50 10 51 53c2 65 2 125 2 191c0 54 0 108 -1 162h-79v48z" />
    <glyph glyph-name="f_l" unicode="fl" horiz-adv-x="595" 
d="M24 487h79c18 153 107 222 221 222c74 0 130 9 183 27l6 -3c-7 -100 -9 -306 -9 -415c0 -80 1 -182 2 -233c1 -40 7 -47 48 -52l23 -3v-30h-245v30l20 3c42 6 50 10 52 52c1 55 2 149 2 225c0 106 -1 209 -3 267c-4 69 -11 91 -87 91c-93 0 -123 -57 -123 -124
c0 -34 12 -57 30 -57h82v-48h-101c-1 -59 -1 -117 -1 -156c0 -72 0 -142 2 -197c1 -41 7 -48 45 -53l34 -3v-30h-253v30l20 3c41 6 50 10 51 53c2 65 2 127 2 193c0 54 0 108 -1 160h-79v48z" />
    <glyph glyph-name="f_f_i" unicode="ffi" horiz-adv-x="889" 
d="M24 487h79c17 194 119 244 189 244c50 0 74 -24 74 -65c0 -30 -18 -58 -55 -58c-48 0 -50 47 -89 47c-28 0 -42 -29 -42 -63c0 -41 13 -105 43 -105h180c10 163 126 249 258 249c87 0 137 -26 137 -80c0 -36 -24 -59 -61 -59c-70 0 -43 80 -131 80
c-80 0 -110 -69 -110 -125c0 -31 9 -65 27 -65h106c98 0 141 8 173 19l6 -4c-3 -60 -5 -167 -5 -261c0 -73 1 -121 2 -157c2 -41 8 -46 47 -51l22 -3v-30h-242v30l20 3c41 6 48 8 50 51c2 50 3 97 3 147c0 53 -2 124 -3 150c-2 40 -12 58 -56 58h-142
c-1 -61 -1 -119 -1 -158c0 -72 0 -140 2 -195c1 -41 7 -48 45 -53l32 -3v-30h-251v30l21 3c41 6 50 10 51 53c2 65 2 125 2 191c0 54 -1 108 -2 162h-199c-1 -61 -1 -119 -1 -158c0 -72 0 -140 2 -195c1 -41 7 -49 47 -53l46 -3v-30h-267v30l20 3c41 6 50 10 51 53
c2 65 2 125 2 191c0 54 0 108 -1 162h-79v48z" />
    <glyph glyph-name="f_f_j" unicode="ffj" horiz-adv-x="889" 
d="M24 487h79c17 194 119 244 189 244c50 0 74 -24 74 -65c0 -30 -18 -58 -55 -58c-48 0 -50 47 -89 47c-28 0 -42 -29 -42 -63c0 -41 13 -105 43 -105h180c10 163 126 249 258 249c87 0 137 -26 137 -80c0 -36 -24 -59 -61 -59c-70 0 -43 80 -131 80
c-80 0 -110 -69 -110 -125c0 -31 9 -65 27 -65h106c98 0 141 8 173 19l6 -4c-3 -60 -4 -180 -4 -274s1 -239 1 -302c0 -93 -54 -134 -119 -134c-43 0 -79 22 -104 68l23 21c14 -18 32 -25 47 -25c25 0 47 17 49 52c4 57 4 207 4 312c0 54 -2 135 -3 161c-2 40 -12 58 -56 58
h-142c-1 -61 -1 -119 -1 -158c0 -72 0 -140 2 -195c1 -41 7 -48 45 -53l32 -3v-30h-251v30l21 3c41 6 50 10 51 53c2 65 2 125 2 191c0 54 -1 108 -2 162h-199c-1 -61 -1 -119 -1 -158c0 -72 0 -140 2 -195c1 -41 7 -49 47 -53l46 -3v-30h-267v30l20 3c41 6 50 10 51 53
c2 65 2 125 2 191c0 54 0 108 -1 162h-79v48z" />
    <glyph glyph-name="f_f_k" unicode="ffk" horiz-adv-x="1205" 
d="M923 487h245v-31l-23 -3c-38 -5 -61 -15 -93 -45c-38 -37 -89 -81 -136 -120c68 -67 139 -140 202 -210c29 -32 44 -41 68 -45l20 -3v-30h-260v30l37 3c10 1 18 7 18 17c0 23 -87 111 -194 207c0 -66 0 -133 2 -172c1 -40 6 -47 45 -52l22 -3v-30h-241v30l20 3
c42 6 50 10 51 52c3 63 2 153 2 227c0 106 -1 207 -3 265c-4 69 -11 91 -87 91c-92 0 -122 -57 -122 -124c0 -34 11 -57 29 -57h82v-48h-101c-1 -59 -1 -117 -1 -156c0 -72 0 -142 2 -197c1 -41 8 -48 46 -53l34 -3v-30h-253v30l20 3c41 6 50 10 51 53c2 65 2 125 2 191
c0 54 -1 108 -2 162h-201c-1 -61 -1 -119 -1 -158c0 -72 0 -140 2 -195c1 -41 7 -49 47 -53l46 -3v-30h-267v30l20 3c41 6 50 10 51 53c2 65 2 125 2 191c0 54 0 108 -1 162h-79v48h79c17 194 119 244 189 244c50 0 74 -24 74 -65c0 -30 -18 -58 -55 -58
c-48 0 -50 47 -89 47c-28 0 -42 -29 -42 -63c0 -41 13 -105 43 -105h182c18 153 107 222 222 222c73 0 129 9 183 27l6 -3c-8 -100 -9 -306 -9 -415v-61c78 63 179 149 179 176c0 11 -11 17 -35 20l-28 3v31z" />
    <glyph glyph-name="f_f_l" unicode="ffl" horiz-adv-x="898" 
d="M24 487h79c17 194 119 244 189 244c50 0 74 -24 74 -65c0 -30 -18 -58 -55 -58c-48 0 -50 47 -89 47c-28 0 -42 -29 -42 -63c0 -41 13 -105 43 -105h182c18 153 107 222 222 222c73 0 129 9 183 27l6 -3c-8 -100 -9 -306 -9 -415c0 -80 0 -182 2 -233c1 -40 9 -47 47 -52
l24 -3v-30h-245v30l20 3c42 6 50 10 51 52c2 63 2 153 2 227c0 106 -1 207 -3 265c-4 69 -11 91 -87 91c-92 0 -122 -57 -122 -124c0 -34 11 -57 29 -57h82v-48h-101c-1 -59 -1 -117 -1 -156c0 -72 0 -142 2 -197c1 -41 8 -48 46 -53l34 -3v-30h-253v30l20 3
c41 6 50 10 51 53c2 65 2 125 2 191c0 54 -1 108 -2 162h-201c-1 -61 -1 -119 -1 -158c0 -72 0 -140 2 -195c1 -41 7 -49 47 -53l46 -3v-30h-267v30l20 3c41 6 50 10 51 53c2 65 2 125 2 191c0 54 0 108 -1 162h-79v48z" />
    <glyph glyph-name="T_h" unicode="Th" horiz-adv-x="1138" 
d="M22 694h504c70 0 175 11 206 21l6 -3c-7 -102 -8 -203 -8 -302c51 43 132 93 199 93c71 0 121 -36 121 -123c0 -54 -2 -112 -2 -170c0 -42 0 -84 2 -126c2 -41 7 -46 47 -51l23 -3v-30h-239v30l19 3c39 6 46 9 48 51c2 41 3 82 3 123c0 42 -1 80 -3 125
c-4 69 -29 93 -81 93c-68 0 -131 -43 -136 -135c-2 -36 -2 -68 -2 -103s0 -67 2 -103c2 -41 7 -46 45 -51l22 -3v-30h-240v30l20 3c41 6 49 9 51 52c2 63 2 140 2 215c0 91 0 170 -4 250c-3 78 -21 85 -88 88c-77 5 -112 5 -139 5c-3 -79 -5 -229 -5 -297
c0 -87 0 -206 2 -257c1 -41 12 -53 52 -56l35 -3v-30h-292v30l32 3c41 4 54 13 55 56c2 88 3 172 3 259c0 84 -1 208 -2 295c-28 0 -55 0 -82 -2c-110 -7 -138 -24 -141 -143h-35v196z" />
    <glyph glyph-name=".notdef" horiz-adv-x="431" 
 />
    <glyph glyph-name="space" unicode=" " horiz-adv-x="234" 
 />
    <glyph glyph-name="A" unicode="A" horiz-adv-x="677" 
d="M306 546c-32 -77 -64 -160 -95 -241h185c-29 81 -60 164 -90 241zM307 703h60c69 -191 171 -442 246 -621c15 -36 23 -45 56 -50l23 -2v-30h-283v30l27 2c30 4 42 12 42 30c0 21 -33 108 -64 193h-220c-29 -78 -62 -163 -62 -188c0 -21 12 -31 43 -35l27 -2v-30h-224v30
l24 2c35 5 43 14 64 62c74 178 172 423 241 609z" />
    <glyph glyph-name="B" unicode="B" horiz-adv-x="665" 
d="M27 694h303c198 0 254 -83 254 -165c0 -76 -65 -133 -147 -149c104 -12 182 -92 182 -183c0 -98 -65 -197 -271 -197h-321v30l32 3c41 4 54 13 55 56c2 88 3 172 3 259s-1 169 -3 255c-1 43 -14 52 -55 56l-32 3v32zM230 347c0 -61 0 -195 2 -241c2 -49 20 -67 97 -67
c108 0 162 58 162 147c0 87 -29 162 -195 162c-27 0 -54 0 -66 -1zM235 643c-2 -63 -4 -172 -5 -246c23 -5 62 -7 82 -7c100 0 151 64 151 129c0 71 -40 129 -160 129c-16 0 -50 -2 -68 -5z" />
    <glyph glyph-name="C" unicode="C" horiz-adv-x="707" 
d="M631 665l14 -183h-32c-12 119 -104 179 -197 179c-120 0 -244 -106 -244 -312c0 -209 125 -313 244 -313c93 0 185 60 197 179h32l-14 -182c-76 -34 -149 -48 -228 -48c-211 0 -362 116 -362 346c0 217 164 378 369 378c81 0 147 -14 221 -44z" />
    <glyph glyph-name="D" unicode="D" horiz-adv-x="771" 
d="M27 694h281c292 0 421 -132 421 -328c0 -218 -160 -366 -436 -366h-266v30l32 3c41 4 54 13 55 56c2 88 3 173 3 260s-1 168 -3 254c-1 43 -14 52 -55 56l-32 3v32zM235 640c-2 -72 -5 -209 -5 -289c0 -84 0 -167 2 -242c1 -50 19 -60 88 -60c154 0 281 114 281 308
c0 199 -91 288 -293 288c-38 0 -54 -2 -73 -5z" />
    <glyph glyph-name="E" unicode="E" horiz-adv-x="632" 
d="M27 694h528v-200h-31c-5 119 -36 150 -145 150c-51 0 -98 0 -143 -2c-3 -63 -5 -177 -6 -253h74c68 0 89 11 93 93h34v-230h-34c-4 74 -23 93 -91 93h-76c0 -86 0 -197 2 -248c1 -35 32 -47 149 -47c106 0 138 25 143 143h31v-193h-528v30l32 3c41 4 54 13 55 56
c2 88 3 172 3 259s-1 170 -3 256c-1 43 -14 52 -55 55l-32 3v32z" />
    <glyph glyph-name="F" unicode="F" horiz-adv-x="566" 
d="M27 694h528v-204h-31c-4 123 -36 154 -145 154c-51 0 -98 0 -143 -2c-3 -68 -5 -188 -6 -268h92c68 0 86 12 90 89h34v-230h-34c-4 77 -20 97 -88 97h-94c0 -79 -1 -180 2 -241c1 -41 12 -54 52 -56l65 -3v-30h-322v30l32 3c41 4 54 13 55 56c2 88 3 172 3 259
s-1 169 -3 255c-1 43 -14 52 -55 56l-32 3v32z" />
    <glyph glyph-name="G" unicode="G" horiz-adv-x="780" 
d="M643 665l14 -183h-32c-12 119 -104 179 -197 179c-128 0 -256 -97 -256 -312c0 -209 125 -314 253 -314c80 0 127 23 127 61v75c0 68 -12 86 -97 92v31h293v-33c-64 -6 -77 -20 -77 -88v-132c-65 -33 -152 -56 -268 -56c-211 0 -362 116 -362 346c0 224 174 378 381 378
c81 0 147 -14 221 -44z" />
    <glyph glyph-name="H" unicode="H" horiz-adv-x="796" 
d="M27 694h296v-32l-35 -3c-40 -3 -50 -15 -52 -56c-3 -62 -5 -144 -6 -210h333c0 71 -1 138 -3 210c-1 43 -14 52 -55 56l-32 3v32h295v-32l-35 -3c-40 -3 -50 -15 -52 -56c-3 -75 -6 -186 -6 -257c0 -86 0 -206 2 -257c1 -41 12 -53 52 -56l35 -3v-30h-291v30l32 3
c41 4 54 13 55 56c2 86 3 167 3 252h-333c0 -97 0 -201 2 -252c1 -41 12 -53 52 -56l35 -3v-30h-292v30l32 3c41 4 54 13 55 56c2 88 3 172 3 259s-1 169 -3 255c-1 43 -14 52 -55 56l-32 3v32z" />
    <glyph glyph-name="I" unicode="I" horiz-adv-x="350" 
d="M27 694h296v-32l-35 -3c-40 -3 -50 -15 -52 -56c-3 -75 -6 -186 -6 -257c0 -87 0 -206 2 -257c1 -41 12 -53 52 -56l35 -3v-30h-292v30l32 3c41 4 54 13 55 56c2 88 3 172 3 259s-1 169 -3 255c-1 43 -14 52 -55 56l-32 3v32z" />
    <glyph glyph-name="J" unicode="J" horiz-adv-x="380" 
d="M65 694h295v-32l-35 -3c-40 -3 -50 -15 -52 -56c-3 -76 -6 -196 -6 -267c0 -87 2 -264 2 -321c0 -108 -80 -174 -165 -174c-43 0 -86 17 -119 54l19 25c16 -13 36 -20 57 -20c45 0 89 28 91 111c2 90 3 228 3 327c0 87 -1 179 -3 265c-1 43 -14 52 -55 56l-32 3v32z" />
    <glyph glyph-name="K" unicode="K" horiz-adv-x="753" 
d="M444 694h269v-32l-22 -3c-31 -5 -57 -18 -139 -91c-64 -57 -136 -118 -198 -167c96 -95 201 -209 301 -323c29 -33 48 -42 73 -45l24 -3v-30h-327v30l34 3c23 2 40 12 40 31c0 9 -5 21 -17 35c-77 90 -162 179 -248 263c95 78 178 150 258 227c16 15 23 28 23 38
c0 18 -21 29 -48 32l-23 3v32zM27 694h296v-32l-35 -3c-40 -3 -50 -15 -52 -56c-3 -77 -6 -186 -6 -257c0 -87 0 -206 2 -257c1 -41 12 -53 52 -56l35 -3v-30h-292v30l32 3c41 4 54 13 55 56c2 88 3 172 3 259s-1 169 -3 255c-1 43 -14 52 -55 56l-32 3v32z" />
    <glyph glyph-name="L" unicode="L" horiz-adv-x="616" 
d="M27 694h297v-32l-36 -3c-40 -3 -50 -15 -52 -56c-3 -75 -6 -186 -6 -257c0 -87 0 -188 2 -245c1 -36 45 -47 160 -47c107 0 166 25 174 171h31v-225h-570v30l32 3c41 4 54 13 55 56c2 88 3 172 3 259s-1 169 -3 255c-1 43 -14 52 -55 56l-32 3v32z" />
    <glyph glyph-name="M" unicode="M" horiz-adv-x="946" 
d="M38 694h249c64 -163 130 -322 197 -484c68 162 132 322 193 484h235v-32l-35 -3c-40 -3 -51 -15 -52 -56c-2 -95 5 -446 8 -514c2 -41 12 -53 52 -56l35 -3v-30h-291v30l32 3c41 4 55 13 55 56c0 116 -5 356 -11 533c-83 -205 -165 -411 -244 -616h-26
c-81 206 -164 410 -251 616c-5 -181 -10 -413 -10 -533c0 -41 12 -53 52 -56l35 -3v-30h-236v30l32 3c41 4 54 13 55 56c6 175 13 341 13 514c0 43 -14 52 -55 56l-32 3v32z" />
    <glyph glyph-name="N" unicode="N" horiz-adv-x="795" 
d="M27 694h246c57 -88 114 -175 172 -261c57 -86 116 -171 174 -254c1 60 3 126 3 181c0 89 0 194 -2 243c-1 41 -12 53 -52 56l-35 3v32h236v-32l-32 -3c-41 -4 -54 -13 -55 -56c-2 -88 -3 -271 -3 -358v-256h-76c-76 116 -155 230 -234 345c-63 93 -125 185 -189 275
c-3 -81 -6 -194 -6 -263c0 -87 0 -206 2 -257c1 -41 12 -53 52 -56l35 -3v-30h-236v30l32 3c41 4 54 13 55 56c2 88 3 172 3 259s-1 169 -3 255c-1 43 -14 52 -55 56l-32 3v32z" />
    <glyph glyph-name="O" unicode="O" horiz-adv-x="794" 
d="M41 347c0 199 158 362 373 362c210 0 339 -177 339 -362c0 -199 -158 -362 -367 -362c-205 0 -345 160 -345 362zM398 662c-129 0 -223 -130 -223 -315c0 -177 89 -315 223 -315c129 0 224 125 224 315c0 164 -76 315 -224 315z" />
    <glyph glyph-name="P" unicode="P" horiz-adv-x="643" 
d="M27 694h313c199 0 275 -92 275 -202c0 -104 -87 -205 -259 -205c-41 0 -82 4 -126 13c0 -79 0 -165 2 -211c1 -41 12 -53 52 -56l53 -3v-30h-310v30l32 3c41 4 54 13 55 56c2 88 3 170 3 257s-1 171 -3 257c-1 43 -14 52 -55 56l-32 3v32zM235 645
c-3 -71 -5 -221 -5 -296c32 -8 59 -13 88 -13c112 0 169 67 169 153c0 88 -43 161 -183 161c-27 0 -47 -1 -69 -5z" />
    <glyph glyph-name="Q" unicode="Q" horiz-adv-x="794" 
d="M41 347c0 199 158 362 373 362c210 0 339 -177 339 -362c0 -197 -154 -357 -359 -361c83 -13 152 -89 245 -89c39 0 67 19 84 66l29 -6c-16 -92 -62 -156 -140 -156c-100 0 -186 107 -274 107c-33 0 -47 -7 -67 -50l-31 9c28 68 72 112 119 119
c-191 14 -318 168 -318 361zM398 662c-129 0 -223 -130 -223 -315c0 -177 89 -315 223 -315c129 0 224 125 224 315c0 164 -76 315 -224 315z" />
    <glyph glyph-name="R" unicode="R" horiz-adv-x="716" 
d="M27 694h309c196 0 276 -80 276 -182c0 -99 -74 -161 -190 -178c35 -17 64 -43 89 -77c41 -56 81 -125 118 -176c26 -36 42 -44 67 -48l21 -3v-30h-180c-45 81 -90 158 -146 239c-39 56 -65 78 -97 80c-15 1 -40 3 -65 6c0 -85 0 -189 2 -236c2 -41 12 -53 52 -56l35 -3
v-30h-291v30l32 3c41 4 54 13 55 56c2 88 3 172 3 259s-1 169 -3 255c-1 43 -14 52 -55 56l-32 3v32zM235 645c-3 -66 -5 -198 -6 -275c32 -4 59 -6 85 -6c106 0 169 50 169 139c0 81 -49 147 -183 147c-27 0 -43 -1 -65 -5z" />
    <glyph glyph-name="S" unicode="S" horiz-adv-x="599" 
d="M308 709c91 0 149 -20 195 -52v-172h-32c-5 136 -83 183 -164 183c-53 0 -117 -36 -117 -107c0 -154 340 -160 340 -375c0 -130 -123 -202 -254 -202c-89 0 -156 19 -204 49v177h31c12 -139 94 -180 173 -180c81 0 140 45 140 115c0 162 -338 169 -338 371
c0 110 95 193 230 193z" />
    <glyph glyph-name="T" unicode="T" horiz-adv-x="654" 
d="M9 694h635v-196h-34c-3 113 -35 136 -142 143c-27 2 -54 2 -81 2c-3 -79 -5 -229 -5 -297c0 -87 0 -206 2 -257c1 -41 12 -53 52 -56l35 -3v-30h-292v30l32 3c41 4 54 13 55 56c2 88 3 172 3 259c0 84 -1 208 -2 295c-28 0 -55 0 -82 -2c-110 -7 -138 -24 -141 -143h-35
v196z" />
    <glyph glyph-name="U" unicode="U" horiz-adv-x="755" 
d="M22 694h295v-32l-35 -3c-40 -3 -50 -15 -52 -56c-3 -77 -6 -183 -6 -310v-69c0 -124 90 -176 183 -176c91 0 185 53 185 165v128c0 97 0 176 -2 262c-1 43 -14 52 -55 56l-32 3v32h237v-32l-35 -3c-40 -3 -50 -15 -52 -56c-3 -77 -6 -187 -6 -258c0 -53 1 -101 1 -145
c0 -147 -132 -216 -263 -216c-136 0 -274 74 -274 216c0 51 1 88 1 147c0 87 -1 170 -3 256c-1 43 -14 52 -55 56l-32 3v32z" />
    <glyph glyph-name="V" unicode="V" horiz-adv-x="665" 
d="M-21 694h283v-31l-26 -3c-40 -4 -48 -19 -40 -46c37 -121 109 -306 169 -464c63 156 135 343 168 452c10 36 1 54 -39 58l-27 3v31h225v-31l-23 -3c-35 -4 -43 -13 -64 -62c-75 -178 -172 -421 -241 -607h-59c-70 191 -172 440 -247 620c-15 35 -23 45 -56 49l-23 3v31z
" />
    <glyph glyph-name="W" unicode="W" horiz-adv-x="988" 
d="M2 694h256v-31l-27 -3c-33 -4 -42 -19 -36 -46c34 -121 84 -298 132 -456c46 137 129 405 165 536h51c39 -133 123 -396 170 -536c50 155 101 330 131 445c9 40 -8 52 -45 57l-24 3v31h212v-31l-24 -3c-26 -4 -37 -14 -54 -64c-61 -177 -134 -419 -188 -605h-66
c-46 150 -111 340 -166 496c-57 -161 -113 -346 -160 -496h-65c-55 191 -133 434 -195 620c-12 35 -21 45 -49 49l-18 3v31z" />
    <glyph glyph-name="X" unicode="X" horiz-adv-x="776" 
d="M27 694h313v-32l-23 -3c-30 -4 -43 -13 -43 -28c0 -19 30 -61 137 -215c142 163 165 193 165 214c0 16 -15 25 -46 29l-23 3v32h246v-32l-23 -3c-35 -5 -58 -28 -102 -77c-62 -70 -125 -140 -186 -210c62 -88 126 -175 190 -262c41 -55 66 -72 103 -77l23 -3v-30h-315v30
l23 3c31 4 45 13 45 28c0 18 -28 57 -145 223c-146 -170 -172 -201 -172 -222c0 -16 15 -25 46 -29l23 -3v-30h-247v30l23 3c35 5 57 25 103 77c63 71 129 146 193 220c-59 83 -121 168 -184 252c-39 54 -66 72 -101 77l-23 3v32z" />
    <glyph glyph-name="Y" unicode="Y" horiz-adv-x="698" 
d="M-24 694h304v-32l-23 -3c-31 -4 -44 -12 -44 -27c0 -11 6 -25 17 -44c47 -81 95 -156 142 -235c56 79 107 157 155 233c11 18 16 31 16 41c0 18 -15 26 -48 32l-23 4v31h240v-32l-23 -3c-35 -5 -56 -23 -95 -78c-66 -93 -133 -187 -196 -283c0 -73 0 -147 2 -209
c1 -41 12 -53 52 -56l35 -3v-30h-291v30l32 3c41 4 54 13 55 56c2 65 2 141 2 208c-66 91 -141 208 -187 285c-36 58 -64 72 -99 77l-23 3v32z" />
    <glyph glyph-name="Z" unicode="Z" horiz-adv-x="660" 
d="M79 694h536v-42c-149 -182 -297 -375 -428 -548c62 -1 215 -3 251 -3c124 0 140 19 149 119h37l-12 -220h-577v42c153 183 299 366 440 549c-57 2 -179 2 -259 2c-84 0 -101 -20 -109 -108h-37z" />
    <glyph glyph-name="AE" unicode="&#xc6;" horiz-adv-x="923" 
d="M315 694h528v-200h-31c-5 119 -36 150 -145 150c-51 0 -98 0 -143 -2c-3 -63 -5 -177 -6 -253h74c68 0 89 11 93 93h34v-230h-34c-4 74 -23 93 -91 93h-76c0 -86 0 -197 2 -248c1 -35 32 -47 149 -47c106 0 138 25 143 143h31v-193h-528v30l32 3c41 4 54 13 55 56
c2 56 2 111 3 166h-235c-49 -64 -92 -123 -121 -165c-25 -36 -22 -53 15 -58l26 -2v-30h-232v30l26 2c36 5 48 14 88 62c128 159 290 351 428 528c-4 28 -18 35 -53 37l-32 3v32zM208 305h197v43c0 68 -1 142 -1 209c-61 -75 -137 -177 -196 -252z" />
    <glyph glyph-name="Eng" unicode="&#x14a;" horiz-adv-x="798" 
d="M27 694h246c57 -88 114 -175 172 -261c57 -86 116 -171 174 -254c1 60 3 126 3 181c0 89 0 194 -2 243c-1 41 -12 53 -52 56l-35 3v32h236v-32l-32 -3c-41 -4 -54 -13 -55 -56c-2 -88 -3 -271 -3 -358c0 -95 1 -259 1 -321c0 -93 -46 -135 -111 -135
c-43 0 -79 23 -104 69l23 21c14 -18 32 -25 47 -25c61 0 64 70 67 135c-73 109 -159 237 -233 345c-63 93 -125 185 -189 275c-3 -81 -6 -194 -6 -263c0 -87 0 -206 2 -257c1 -41 12 -53 52 -56l35 -3v-30h-236v30l32 3c41 4 54 13 55 56c2 88 3 172 3 259s-1 169 -3 255
c-1 43 -14 52 -55 56l-32 3v32z" />
    <glyph glyph-name="Eth" unicode="&#xd0;" horiz-adv-x="772" 
d="M39 694h281c292 0 421 -132 421 -328c0 -218 -160 -366 -436 -366h-266v30l32 3c41 4 54 13 55 56c2 84 3 167 3 250h-104v52h104c-1 63 -1 140 -3 212c-1 43 -14 52 -55 56l-32 3v32zM241 391h135v-52h-135c0 -80 1 -159 2 -230c1 -50 19 -60 89 -60
c153 0 280 114 280 308c0 199 -90 288 -292 288c-39 0 -55 -2 -73 -5c-2 -61 -5 -170 -6 -249z" />
    <glyph glyph-name="IJ" unicode="&#x132;" horiz-adv-x="701" 
d="M27 694h296v-32l-35 -3c-40 -3 -50 -15 -52 -56c-3 -75 -6 -186 -6 -257c0 -87 0 -206 2 -257c1 -41 12 -53 52 -56l35 -3v-30h-292v30l32 3c41 4 54 13 55 56c2 88 3 172 3 259s-1 169 -3 255c-1 43 -14 52 -55 56l-32 3v32zM394 694h295v-32l-35 -3
c-40 -3 -50 -15 -52 -56c-3 -76 -6 -186 -6 -257c0 -87 2 -239 2 -297c0 -107 -81 -173 -165 -173c-43 0 -86 17 -120 53l20 26c16 -13 36 -20 57 -20c45 0 90 27 91 110c2 91 3 216 3 303s-1 169 -3 255c-1 43 -14 52 -55 56l-32 3v32z" />
    <glyph glyph-name="OE" unicode="&#x152;" horiz-adv-x="1111" 
d="M495 694h537v-200h-31c-5 119 -37 150 -145 150c-40 0 -181 0 -263 -1c74 -59 118 -154 128 -254h60c68 0 89 11 93 93h34v-230h-34c-4 74 -23 93 -91 93h-60c0 -113 -47 -214 -126 -280c61 -11 169 -15 235 -15c129 0 164 25 169 143h31v-193h-558
c-32 -9 -67 -14 -103 -14c-205 0 -330 159 -330 361c0 199 143 361 358 361c35 0 67 -5 96 -14zM383 661c-129 0 -208 -129 -208 -314c0 -177 74 -314 208 -314c129 0 209 124 209 314c0 164 -61 314 -209 314z" />
    <glyph glyph-name="Oslash" unicode="&#xd8;" horiz-adv-x="794" 
d="M688 736l48 -22l-87 -104c67 -68 104 -164 104 -263c0 -199 -158 -361 -367 -361c-81 0 -151 24 -206 67l-70 -84l-49 22l80 95c-63 66 -100 157 -100 261c0 199 158 361 373 361c77 0 143 -24 196 -64zM583 532l-346 -410c39 -56 94 -89 161 -89c129 0 224 124 224 314
c0 66 -13 131 -39 185zM211 170l345 409c-37 50 -90 82 -158 82c-129 0 -223 -129 -223 -314c0 -67 13 -128 36 -177z" />
    <glyph glyph-name="Thorn" unicode="&#xde;" horiz-adv-x="639" 
d="M27 694h296v-32l-35 -3c-40 -3 -50 -15 -52 -56l-2 -37h104c199 0 276 -92 276 -202c0 -104 -88 -205 -260 -205c-40 0 -81 4 -124 12c1 -33 1 -63 2 -82c1 -41 12 -53 52 -56l35 -3v-30h-292v30l32 3c41 4 54 13 55 56c2 88 3 172 3 259s-1 169 -3 255
c-1 43 -14 52 -55 56l-32 3v32zM230 346v-127c30 -7 59 -11 87 -11c111 0 169 67 169 153c0 88 -44 161 -184 161c-25 0 -49 -1 -69 -5c-2 -59 -3 -124 -3 -171z" />
    <glyph glyph-name="Aacute" unicode="&#xc1;" horiz-adv-x="677" 
d="M306 546c-32 -77 -64 -160 -95 -241h185c-29 81 -60 164 -90 241zM307 703h60c69 -191 171 -442 246 -621c15 -36 23 -45 56 -50l23 -2v-30h-283v30l27 2c30 4 42 12 42 30c0 21 -33 108 -64 193h-220c-29 -78 -62 -163 -62 -188c0 -21 12 -31 43 -35l27 -2v-30h-224v30
l24 2c35 5 43 14 64 62c74 178 172 423 241 609zM373 870h96c15 0 22 -14 6 -25l-196 -122l-27 13z" />
    <glyph glyph-name="Abreve" unicode="&#x102;" horiz-adv-x="677" 
d="M306 546c-32 -77 -64 -160 -95 -241h185c-29 81 -60 164 -90 241zM307 703h60c69 -191 171 -442 246 -621c15 -36 23 -45 56 -50l23 -2v-30h-283v30l27 2c30 4 42 12 42 30c0 21 -33 108 -64 193h-220c-29 -78 -62 -163 -62 -188c0 -21 12 -31 43 -35l27 -2v-30h-224v30
l24 2c35 5 43 14 64 62c74 178 172 423 241 609zM192 855l29 12c15 -58 57 -69 115 -69c55 0 106 12 119 69l29 -12c-26 -98 -84 -126 -147 -126s-116 28 -145 126z" />
    <glyph glyph-name="Acircumflex" unicode="&#xc2;" horiz-adv-x="677" 
d="M306 546c-32 -77 -64 -160 -95 -241h185c-29 81 -60 164 -90 241zM307 703h60c69 -191 171 -442 246 -621c15 -36 23 -45 56 -50l23 -2v-30h-283v30l27 2c30 4 42 12 42 30c0 21 -33 108 -64 193h-220c-29 -78 -62 -163 -62 -188c0 -21 12 -31 43 -35l27 -2v-30h-224v30
l24 2c35 5 43 14 64 62c74 178 172 423 241 609zM183 744l107 112c13 13 28 19 44 19c15 0 33 -5 44 -16l109 -115l-28 -13l-126 71l-122 -71z" />
    <glyph glyph-name="Adieresis" unicode="&#xc4;" horiz-adv-x="677" 
d="M306 546c-32 -77 -64 -160 -95 -241h185c-29 81 -60 164 -90 241zM307 703h60c69 -191 171 -442 246 -621c15 -36 23 -45 56 -50l23 -2v-30h-283v30l27 2c30 4 42 12 42 30c0 21 -33 108 -64 193h-220c-29 -78 -62 -163 -62 -188c0 -21 12 -31 43 -35l27 -2v-30h-224v30
l24 2c35 5 43 14 64 62c74 178 172 423 241 609zM191 809c0 26 22 48 48 48c28 0 50 -22 50 -48c0 -28 -22 -50 -50 -50c-26 0 -48 22 -48 50zM388 809c0 26 22 48 50 48c27 0 49 -22 49 -48c0 -28 -22 -50 -49 -50c-28 0 -50 22 -50 50z" />
    <glyph glyph-name="Agrave" unicode="&#xc0;" horiz-adv-x="677" 
d="M306 546c-32 -77 -64 -160 -95 -241h185c-29 81 -60 164 -90 241zM307 703h60c69 -191 171 -442 246 -621c15 -36 23 -45 56 -50l23 -2v-30h-283v30l27 2c30 4 42 12 42 30c0 21 -33 108 -64 193h-220c-29 -78 -62 -163 -62 -188c0 -21 12 -31 43 -35l27 -2v-30h-224v30
l24 2c35 5 43 14 64 62c74 178 172 423 241 609zM196 870h96l121 -134l-28 -13l-195 122c-16 11 -9 25 6 25z" />
    <glyph glyph-name="Amacron" unicode="&#x100;" horiz-adv-x="677" 
d="M306 546c-32 -77 -64 -160 -95 -241h185c-29 81 -60 164 -90 241zM307 703h60c69 -191 171 -442 246 -621c15 -36 23 -45 56 -50l23 -2v-30h-283v30l27 2c30 4 42 12 42 30c0 21 -33 108 -64 193h-220c-29 -78 -62 -163 -62 -188c0 -21 12 -31 43 -35l27 -2v-30h-224v30
l24 2c35 5 43 14 64 62c74 178 172 423 241 609zM204 827h258v-51h-258v51z" />
    <glyph glyph-name="Aogonek" unicode="&#x104;" horiz-adv-x="677" 
d="M307 703h60c69 -191 171 -442 246 -621c15 -36 23 -45 56 -50l23 -2v-30h-76c-58 -22 -83 -64 -83 -108c0 -36 19 -56 57 -56c21 0 45 7 61 28l19 -20c-21 -28 -57 -53 -110 -53c-79 0 -106 36 -106 82c0 58 44 102 101 127h-146v30l27 2c30 4 42 12 42 30
c0 21 -33 108 -64 193h-220c-29 -78 -62 -163 -62 -188c0 -21 12 -31 43 -35l27 -2v-30h-224v30l24 2c35 5 43 14 64 62c74 178 172 423 241 609zM306 546c-32 -77 -64 -160 -95 -241h185c-29 81 -60 164 -90 241z" />
    <glyph glyph-name="Aring" unicode="&#xc5;" horiz-adv-x="677" 
d="M306 546c-32 -77 -64 -160 -95 -241h185c-29 81 -60 164 -90 241zM307 703h60c69 -191 171 -442 246 -621c15 -36 23 -45 56 -50l23 -2v-30h-283v30l27 2c30 4 42 12 42 30c0 21 -33 108 -64 193h-220c-29 -78 -62 -163 -62 -188c0 -21 12 -31 43 -35l27 -2v-30h-224v30
l24 2c35 5 43 14 64 62c74 178 172 423 241 609zM233 825c0 52 47 92 101 92c55 0 102 -40 102 -92c0 -57 -47 -96 -102 -96c-54 0 -101 39 -101 96zM281 822c0 -31 22 -53 52 -53c34 0 56 22 56 53s-22 50 -56 50c-30 0 -52 -19 -52 -50z" />
    <glyph glyph-name="Atilde" unicode="&#xc3;" horiz-adv-x="677" 
d="M306 546c-32 -77 -64 -160 -95 -241h185c-29 81 -60 164 -90 241zM307 703h60c69 -191 171 -442 246 -621c15 -36 23 -45 56 -50l23 -2v-30h-283v30l27 2c30 4 42 12 42 30c0 21 -33 108 -64 193h-220c-29 -78 -62 -163 -62 -188c0 -21 12 -31 43 -35l27 -2v-30h-224v30
l24 2c35 5 43 14 64 62c74 178 172 423 241 609zM286 876c33 0 58 -16 79 -32c20 -14 37 -26 56 -26c15 0 40 12 47 50l29 -15c-9 -51 -56 -103 -104 -103c-34 0 -56 16 -76 30c-18 14 -36 26 -57 26c-18 0 -43 -13 -50 -51l-29 15c8 51 52 106 105 106z" />
    <glyph glyph-name="Cacute" unicode="&#x106;" horiz-adv-x="707" 
d="M631 665l14 -183h-32c-12 119 -104 179 -197 179c-120 0 -244 -106 -244 -312c0 -209 125 -313 244 -313c93 0 185 60 197 179h32l-14 -182c-76 -34 -149 -48 -228 -48c-211 0 -362 116 -362 346c0 217 164 378 369 378c81 0 147 -14 221 -44zM416 870h96
c15 0 22 -14 6 -25l-196 -122l-27 13z" />
    <glyph glyph-name="Ccaron" unicode="&#x10c;" horiz-adv-x="707" 
d="M631 665l14 -183h-32c-12 119 -104 179 -197 179c-120 0 -244 -106 -244 -312c0 -209 125 -313 244 -313c93 0 185 60 197 179h32l-14 -182c-76 -34 -149 -48 -228 -48c-211 0 -362 116 -362 346c0 217 164 378 369 378c81 0 147 -14 221 -44zM249 864l28 13l126 -72
l122 72l28 -13l-107 -112c-13 -13 -28 -19 -44 -19c-15 0 -33 5 -44 16z" />
    <glyph glyph-name="Ccircumflex" unicode="&#x108;" horiz-adv-x="707" 
d="M631 665l14 -183h-32c-12 119 -104 179 -197 179c-120 0 -244 -106 -244 -312c0 -209 125 -313 244 -313c93 0 185 60 197 179h32l-14 -182c-76 -34 -149 -48 -228 -48c-211 0 -362 116 -362 346c0 217 164 378 369 378c81 0 147 -14 221 -44zM253 744l107 112
c13 13 28 19 44 19c15 0 33 -5 44 -16l109 -115l-28 -13l-126 71l-122 -71z" />
    <glyph glyph-name="Cdotaccent" unicode="&#x10a;" horiz-adv-x="707" 
d="M631 665l14 -183h-32c-12 119 -104 179 -197 179c-120 0 -244 -106 -244 -312c0 -209 125 -313 244 -313c93 0 185 60 197 179h32l-14 -182c-76 -34 -149 -48 -228 -48c-211 0 -362 116 -362 346c0 217 164 378 369 378c81 0 147 -14 221 -44zM407 862
c32 0 56 -25 56 -54c0 -31 -24 -55 -56 -55c-29 0 -53 24 -53 55c0 29 24 54 53 54z" />
    <glyph glyph-name="Ccedilla" unicode="&#xc7;" horiz-adv-x="707" 
d="M631 665l14 -183h-32c-12 119 -104 179 -197 179c-120 0 -244 -106 -244 -312c0 -209 125 -313 244 -313c93 0 185 60 197 179h32l-14 -182c-74 -33 -146 -47 -223 -48l-22 -27c76 0 122 -20 122 -78c0 -57 -68 -86 -134 -86c-37 0 -65 10 -91 24l13 29
c18 -10 40 -15 70 -15c45 0 64 12 64 36c0 26 -27 41 -100 41l-5 8l45 69c-193 12 -329 127 -329 345c0 217 164 378 369 378c81 0 147 -14 221 -44z" />
    <glyph glyph-name="Dcroat" unicode="&#x110;" horiz-adv-x="772" 
d="M39 694h281c292 0 421 -132 421 -328c0 -218 -160 -366 -436 -366h-266v30l32 3c41 4 54 13 55 56c2 84 3 167 3 250h-104v52h104c-1 63 -1 140 -3 212c-1 43 -14 52 -55 56l-32 3v32zM241 391h135v-52h-135c0 -80 1 -159 2 -230c1 -50 19 -60 89 -60
c153 0 280 114 280 308c0 199 -90 288 -292 288c-39 0 -55 -2 -73 -5c-2 -61 -5 -170 -6 -249z" />
    <glyph glyph-name="Dcaron" unicode="&#x10e;" horiz-adv-x="771" 
d="M27 694h281c292 0 421 -132 421 -328c0 -218 -160 -366 -436 -366h-266v30l32 3c41 4 54 13 55 56c2 88 3 173 3 260s-1 168 -3 254c-1 43 -14 52 -55 56l-32 3v32zM235 640c-2 -72 -5 -209 -5 -289c0 -84 0 -167 2 -242c1 -50 19 -60 88 -60c154 0 281 114 281 308
c0 199 -91 288 -293 288c-38 0 -54 -2 -73 -5zM191 864l28 13l126 -72l122 72l28 -13l-107 -112c-13 -13 -28 -19 -44 -19c-15 0 -33 5 -44 16z" />
    <glyph glyph-name="Eacute" unicode="&#xc9;" horiz-adv-x="632" 
d="M27 694h528v-200h-31c-5 119 -36 150 -145 150c-51 0 -98 0 -143 -2c-3 -63 -5 -177 -6 -253h74c68 0 89 11 93 93h34v-230h-34c-4 74 -23 93 -91 93h-76c0 -86 0 -197 2 -248c1 -35 32 -47 149 -47c106 0 138 25 143 143h31v-193h-528v30l32 3c41 4 54 13 55 56
c2 88 3 172 3 259s-1 170 -3 256c-1 43 -14 52 -55 55l-32 3v32zM363 870h96c15 0 22 -14 6 -25l-196 -122l-27 13z" />
    <glyph glyph-name="Ebreve" unicode="&#x114;" horiz-adv-x="632" 
d="M27 694h528v-200h-31c-5 119 -36 150 -145 150c-51 0 -98 0 -143 -2c-3 -63 -5 -177 -6 -253h74c68 0 89 11 93 93h34v-230h-34c-4 74 -23 93 -91 93h-76c0 -86 0 -197 2 -248c1 -35 32 -47 149 -47c106 0 138 25 143 143h31v-193h-528v30l32 3c41 4 54 13 55 56
c2 88 3 172 3 259s-1 170 -3 256c-1 43 -14 52 -55 55l-32 3v32zM182 855l29 12c15 -58 57 -69 115 -69c55 0 106 12 119 69l29 -12c-26 -98 -84 -126 -147 -126s-116 28 -145 126z" />
    <glyph glyph-name="Ecaron" unicode="&#x11a;" horiz-adv-x="632" 
d="M27 694h528v-200h-31c-5 119 -36 150 -145 150c-51 0 -98 0 -143 -2c-3 -63 -5 -177 -6 -253h74c68 0 89 11 93 93h34v-230h-34c-4 74 -23 93 -91 93h-76c0 -86 0 -197 2 -248c1 -35 32 -47 149 -47c106 0 138 25 143 143h31v-193h-528v30l32 3c41 4 54 13 55 56
c2 88 3 172 3 259s-1 170 -3 256c-1 43 -14 52 -55 55l-32 3v32zM171 864l28 13l126 -72l122 72l28 -13l-107 -112c-13 -13 -28 -19 -44 -19c-15 0 -33 5 -44 16z" />
    <glyph glyph-name="Ecircumflex" unicode="&#xca;" horiz-adv-x="632" 
d="M27 694h528v-200h-31c-5 119 -36 150 -145 150c-51 0 -98 0 -143 -2c-3 -63 -5 -177 -6 -253h74c68 0 89 11 93 93h34v-230h-34c-4 74 -23 93 -91 93h-76c0 -86 0 -197 2 -248c1 -35 32 -47 149 -47c106 0 138 25 143 143h31v-193h-528v30l32 3c41 4 54 13 55 56
c2 88 3 172 3 259s-1 170 -3 256c-1 43 -14 52 -55 55l-32 3v32zM171 744l107 112c13 13 28 19 44 19c15 0 33 -5 44 -16l109 -115l-28 -13l-126 71l-122 -71z" />
    <glyph glyph-name="Edieresis" unicode="&#xcb;" horiz-adv-x="632" 
d="M27 694h528v-200h-31c-5 119 -36 150 -145 150c-51 0 -98 0 -143 -2c-3 -63 -5 -177 -6 -253h74c68 0 89 11 93 93h34v-230h-34c-4 74 -23 93 -91 93h-76c0 -86 0 -197 2 -248c1 -35 32 -47 149 -47c106 0 138 25 143 143h31v-193h-528v30l32 3c41 4 54 13 55 56
c2 88 3 172 3 259s-1 170 -3 256c-1 43 -14 52 -55 55l-32 3v32zM181 809c0 26 22 48 49 48s50 -22 50 -48c0 -28 -23 -50 -50 -50s-49 22 -49 50zM378 809c0 26 22 48 50 48c27 0 49 -22 49 -48c0 -28 -22 -50 -49 -50c-28 0 -50 22 -50 50z" />
    <glyph glyph-name="Edotaccent" unicode="&#x116;" horiz-adv-x="632" 
d="M27 694h528v-200h-31c-5 119 -36 150 -145 150c-51 0 -98 0 -143 -2c-3 -63 -5 -177 -6 -253h74c68 0 89 11 93 93h34v-230h-34c-4 74 -23 93 -91 93h-76c0 -86 0 -197 2 -248c1 -35 32 -47 149 -47c106 0 138 25 143 143h31v-193h-528v30l32 3c41 4 54 13 55 56
c2 88 3 172 3 259s-1 170 -3 256c-1 43 -14 52 -55 55l-32 3v32zM336 862c31 0 55 -25 55 -54c0 -31 -24 -55 -55 -55c-30 0 -53 24 -53 55c0 29 23 54 53 54z" />
    <glyph glyph-name="Egrave" unicode="&#xc8;" horiz-adv-x="632" 
d="M27 694h528v-200h-31c-5 119 -36 150 -145 150c-51 0 -98 0 -143 -2c-3 -63 -5 -177 -6 -253h74c68 0 89 11 93 93h34v-230h-34c-4 74 -23 93 -91 93h-76c0 -86 0 -197 2 -248c1 -35 32 -47 149 -47c106 0 138 25 143 143h31v-193h-528v30l32 3c41 4 54 13 55 56
c2 88 3 172 3 259s-1 170 -3 256c-1 43 -14 52 -55 55l-32 3v32zM203 870h96l121 -134l-28 -13l-195 122c-16 11 -9 25 6 25z" />
    <glyph glyph-name="Emacron" unicode="&#x112;" horiz-adv-x="632" 
d="M27 694h528v-200h-31c-5 119 -36 150 -145 150c-51 0 -98 0 -143 -2c-3 -63 -5 -177 -6 -253h74c68 0 89 11 93 93h34v-230h-34c-4 74 -23 93 -91 93h-76c0 -86 0 -197 2 -248c1 -35 32 -47 149 -47c106 0 138 25 143 143h31v-193h-528v30l32 3c41 4 54 13 55 56
c2 88 3 172 3 259s-1 170 -3 256c-1 43 -14 52 -55 55l-32 3v32zM205 827h258v-51h-258v51z" />
    <glyph glyph-name="Eogonek" unicode="&#x118;" horiz-adv-x="632" 
d="M27 694h528v-200h-31c-5 119 -36 150 -145 150c-51 0 -98 0 -143 -2c-3 -63 -5 -177 -6 -253h74c68 0 89 11 93 93h34v-230h-34c-4 74 -23 93 -91 93h-76c0 -86 0 -197 2 -248c1 -35 32 -47 149 -47c106 0 138 25 143 143h31v-193h-39c-58 -22 -83 -64 -83 -108
c0 -36 19 -56 57 -56c21 0 45 7 61 28l19 -20c-21 -28 -57 -53 -110 -53c-79 0 -106 36 -106 82c0 58 44 102 101 127h-428v30l32 3c41 4 54 13 55 56c2 88 3 172 3 259s-1 170 -3 256c-1 43 -14 52 -55 55l-32 3v32z" />
    <glyph glyph-name="Gbreve" unicode="&#x11e;" horiz-adv-x="780" 
d="M643 665l14 -183h-32c-12 119 -104 179 -197 179c-128 0 -256 -97 -256 -312c0 -209 125 -314 253 -314c80 0 127 23 127 61v75c0 68 -12 86 -97 92v31h293v-33c-64 -6 -77 -20 -77 -88v-132c-65 -33 -152 -56 -268 -56c-211 0 -362 116 -362 346c0 224 174 378 381 378
c81 0 147 -14 221 -44zM273 855l29 12c15 -58 57 -69 115 -69c55 0 106 12 119 69l29 -12c-26 -98 -84 -126 -147 -126s-116 28 -145 126z" />
    <glyph glyph-name="Gcircumflex" unicode="&#x11c;" horiz-adv-x="780" 
d="M643 665l14 -183h-32c-12 119 -104 179 -197 179c-128 0 -256 -97 -256 -312c0 -209 125 -314 253 -314c80 0 127 23 127 61v75c0 68 -12 86 -97 92v31h293v-33c-64 -6 -77 -20 -77 -88v-132c-65 -33 -152 -56 -268 -56c-211 0 -362 116 -362 346c0 224 174 378 381 378
c81 0 147 -14 221 -44zM270 744l107 112c13 13 28 19 44 19c15 0 33 -5 44 -16l109 -115l-28 -13l-126 71l-122 -71z" />
    <glyph glyph-name="Gcommaaccent" unicode="&#x122;" horiz-adv-x="780" 
d="M643 665l14 -183h-32c-12 119 -104 179 -197 179c-128 0 -256 -97 -256 -312c0 -209 125 -314 253 -314c80 0 127 23 127 61v75c0 68 -12 86 -97 92v31h293v-33c-64 -6 -77 -20 -77 -88v-132c-65 -33 -152 -56 -268 -56c-211 0 -362 116 -362 346c0 224 174 378 381 378
c81 0 147 -14 221 -44zM376 -292l-14 25c44 13 65 41 65 70c0 18 -9 31 -26 31c-33 0 -54 20 -54 52c0 31 23 55 58 55c53 0 84 -40 84 -94c0 -56 -34 -116 -113 -139z" />
    <glyph glyph-name="Gdotaccent" unicode="&#x120;" horiz-adv-x="780" 
d="M643 665l14 -183h-32c-12 119 -104 179 -197 179c-128 0 -256 -97 -256 -312c0 -209 125 -314 253 -314c80 0 127 23 127 61v75c0 68 -12 86 -97 92v31h293v-33c-64 -6 -77 -20 -77 -88v-132c-65 -33 -152 -56 -268 -56c-211 0 -362 116 -362 346c0 224 174 378 381 378
c81 0 147 -14 221 -44zM425 862c32 0 55 -25 55 -54c0 -31 -23 -55 -55 -55c-29 0 -53 24 -53 55c0 29 24 54 53 54z" />
    <glyph glyph-name="Hcircumflex" unicode="&#x124;" horiz-adv-x="796" 
d="M27 694h296v-32l-35 -3c-40 -3 -50 -15 -52 -56c-3 -62 -5 -144 -6 -210h333c0 71 -1 138 -3 210c-1 43 -14 52 -55 56l-32 3v32h295v-32l-35 -3c-40 -3 -50 -15 -52 -56c-3 -75 -6 -186 -6 -257c0 -86 0 -206 2 -257c1 -41 12 -53 52 -56l35 -3v-30h-291v30l32 3
c41 4 54 13 55 56c2 86 3 167 3 252h-333c0 -97 0 -201 2 -252c1 -41 12 -53 52 -56l35 -3v-30h-292v30l32 3c41 4 54 13 55 56c2 88 3 172 3 259s-1 169 -3 255c-1 43 -14 52 -55 56l-32 3v32zM245 744l107 112c13 13 28 19 44 19c15 0 33 -5 44 -16l109 -115l-28 -13
l-126 71l-122 -71z" />
    <glyph glyph-name="Hbar" unicode="&#x126;" horiz-adv-x="811" 
d="M35 694h295v-32l-35 -3c-40 -3 -50 -15 -52 -56c-1 -11 -2 -30 -2 -40h328c-1 13 -1 27 -1 40c-1 43 -14 52 -55 56l-32 3v32h295v-32l-35 -3c-40 -3 -50 -15 -52 -56l-2 -40h86v-46h-87c-2 -60 -3 -125 -3 -171c0 -86 0 -206 2 -257c1 -41 12 -53 52 -56l35 -3v-30h-291
v30l32 3c41 4 54 13 55 56c2 86 3 167 3 252h-334c0 -97 0 -201 2 -252c1 -41 12 -53 52 -56l35 -3v-30h-291v30l32 3c41 4 54 13 55 56c2 88 3 172 3 259c0 57 0 113 -1 169h-88v46h87c-1 13 -1 27 -1 40c-1 43 -14 52 -55 56l-32 3v32zM237 393h334c0 41 -1 83 -1 124
h-331c-1 -42 -2 -87 -2 -124z" />
    <glyph glyph-name="Iacute" unicode="&#xcd;" horiz-adv-x="350" 
d="M27 694h296v-32l-35 -3c-40 -3 -50 -15 -52 -56c-3 -75 -6 -186 -6 -257c0 -87 0 -206 2 -257c1 -41 12 -53 52 -56l35 -3v-30h-292v30l32 3c41 4 54 13 55 56c2 88 3 172 3 259s-1 169 -3 255c-1 43 -14 52 -55 56l-32 3v32zM193 870h96c15 0 22 -14 6 -25l-196 -122
l-27 13z" />
    <glyph glyph-name="Ibreve" unicode="&#x12c;" horiz-adv-x="350" 
d="M27 694h296v-32l-35 -3c-40 -3 -50 -15 -52 -56c-3 -75 -6 -186 -6 -257c0 -87 0 -206 2 -257c1 -41 12 -53 52 -56l35 -3v-30h-292v30l32 3c41 4 54 13 55 56c2 88 3 172 3 259s-1 169 -3 255c-1 43 -14 52 -55 56l-32 3v32zM29 855l29 12c15 -58 57 -69 115 -69
c55 0 106 12 119 69l29 -12c-26 -98 -84 -126 -147 -126s-116 28 -145 126z" />
    <glyph glyph-name="Icircumflex" unicode="&#xce;" horiz-adv-x="350" 
d="M27 694h296v-32l-35 -3c-40 -3 -50 -15 -52 -56c-3 -75 -6 -186 -6 -257c0 -87 0 -206 2 -257c1 -41 12 -53 52 -56l35 -3v-30h-292v30l32 3c41 4 54 13 55 56c2 88 3 172 3 259s-1 169 -3 255c-1 43 -14 52 -55 56l-32 3v32zM23 744l107 112c13 13 28 19 44 19
c15 0 33 -5 44 -16l109 -115l-28 -13l-126 71l-122 -71z" />
    <glyph glyph-name="Idieresis" unicode="&#xcf;" horiz-adv-x="350" 
d="M27 694h296v-32l-35 -3c-40 -3 -50 -15 -52 -56c-3 -75 -6 -186 -6 -257c0 -87 0 -206 2 -257c1 -41 12 -53 52 -56l35 -3v-30h-292v30l32 3c41 4 54 13 55 56c2 88 3 172 3 259s-1 169 -3 255c-1 43 -14 52 -55 56l-32 3v32zM27 809c0 26 22 48 49 48s50 -22 50 -48
c0 -28 -23 -50 -50 -50s-49 22 -49 50zM224 809c0 26 22 48 50 48c27 0 49 -22 49 -48c0 -28 -22 -50 -49 -50c-28 0 -50 22 -50 50z" />
    <glyph glyph-name="Idotaccent" unicode="&#x130;" horiz-adv-x="350" 
d="M27 694h296v-32l-35 -3c-40 -3 -50 -15 -52 -56c-3 -75 -6 -186 -6 -257c0 -87 0 -206 2 -257c1 -41 12 -53 52 -56l35 -3v-30h-292v30l32 3c41 4 54 13 55 56c2 88 3 172 3 259s-1 169 -3 255c-1 43 -14 52 -55 56l-32 3v32zM174 862c31 0 55 -25 55 -54
c0 -31 -24 -55 -55 -55c-30 0 -53 24 -53 55c0 29 23 54 53 54z" />
    <glyph glyph-name="Igrave" unicode="&#xcc;" horiz-adv-x="350" 
d="M27 694h296v-32l-35 -3c-40 -3 -50 -15 -52 -56c-3 -75 -6 -186 -6 -257c0 -87 0 -206 2 -257c1 -41 12 -53 52 -56l35 -3v-30h-292v30l32 3c41 4 54 13 55 56c2 88 3 172 3 259s-1 169 -3 255c-1 43 -14 52 -55 56l-32 3v32zM86 870h96l121 -134l-28 -13l-195 122
c-16 11 -9 25 6 25z" />
    <glyph glyph-name="Imacron" unicode="&#x12a;" horiz-adv-x="350" 
d="M27 694h296v-32l-35 -3c-40 -3 -50 -15 -52 -56c-3 -75 -6 -186 -6 -257c0 -87 0 -206 2 -257c1 -41 12 -53 52 -56l35 -3v-30h-292v30l32 3c41 4 54 13 55 56c2 88 3 172 3 259s-1 169 -3 255c-1 43 -14 52 -55 56l-32 3v32zM46 827h258v-51h-258v51z" />
    <glyph glyph-name="Iogonek" unicode="&#x12e;" horiz-adv-x="350" 
d="M27 694h296v-32l-35 -3c-40 -3 -50 -15 -52 -56c-3 -75 -6 -186 -6 -257c0 -87 0 -206 2 -257c1 -41 12 -53 52 -56l35 -3v-30h-77c-58 -22 -83 -64 -83 -108c0 -36 19 -56 57 -56c21 0 45 7 61 28l19 -20c-21 -28 -57 -53 -110 -53c-79 0 -106 36 -106 82
c0 58 44 102 101 127h-154v30l32 3c41 4 54 13 55 56c2 88 3 172 3 259s-1 169 -3 255c-1 43 -14 52 -55 56l-32 3v32z" />
    <glyph glyph-name="Itilde" unicode="&#x128;" horiz-adv-x="350" 
d="M27 694h296v-32l-35 -3c-40 -3 -50 -15 -52 -56c-3 -75 -6 -186 -6 -257c0 -87 0 -206 2 -257c1 -41 12 -53 52 -56l35 -3v-30h-292v30l32 3c41 4 54 13 55 56c2 88 3 172 3 259s-1 169 -3 255c-1 43 -14 52 -55 56l-32 3v32zM122 876c33 0 58 -16 79 -32
c20 -14 37 -26 56 -26c15 0 40 12 47 50l29 -15c-9 -51 -56 -103 -104 -103c-34 0 -56 16 -76 30c-18 14 -36 26 -57 26c-18 0 -43 -13 -50 -51l-29 15c8 51 52 106 105 106z" />
    <glyph glyph-name="Idot" horiz-adv-x="350" 
d="M27 694h296v-32l-35 -3c-40 -3 -50 -15 -52 -56c-3 -75 -6 -186 -6 -257c0 -87 0 -206 2 -257c1 -41 12 -53 52 -56l35 -3v-30h-292v30l32 3c41 4 54 13 55 56c2 88 3 172 3 259s-1 169 -3 255c-1 43 -14 52 -55 56l-32 3v32zM334 443c31 0 56 -24 56 -54
c0 -31 -25 -56 -56 -56c-29 0 -54 25 -54 56c0 30 25 54 54 54z" />
    <glyph glyph-name="Jcircumflex" unicode="&#x134;" horiz-adv-x="338" 
d="M22 694h295v-32l-35 -3c-40 -3 -50 -15 -52 -56c-3 -76 -6 -196 -6 -267c0 -87 2 -264 2 -321c0 -108 -80 -174 -165 -174c-43 0 -86 17 -119 54l19 25c16 -13 36 -20 57 -20c45 0 89 28 91 111c2 90 3 228 3 327c0 87 -1 179 -3 265c-1 43 -14 52 -55 56l-32 3v32z
M18 744l107 112c13 13 28 19 44 19c15 0 33 -5 44 -16l109 -115l-28 -13l-126 71l-122 -71z" />
    <glyph glyph-name="Kcommaaccent" unicode="&#x136;" horiz-adv-x="753" 
d="M444 694h269v-32l-22 -3c-31 -5 -57 -18 -139 -91c-64 -57 -136 -118 -198 -167c96 -95 201 -209 301 -323c29 -33 48 -42 73 -45l24 -3v-30h-327v30l34 3c23 2 40 12 40 31c0 9 -5 21 -17 35c-77 90 -162 179 -248 263c95 78 178 150 258 227c16 15 23 28 23 38
c0 18 -21 29 -48 32l-23 3v32zM27 694h296v-32l-35 -3c-40 -3 -50 -15 -52 -56c-3 -77 -6 -186 -6 -257c0 -87 0 -206 2 -257c1 -41 12 -53 52 -56l35 -3v-30h-292v30l32 3c41 4 54 13 55 56c2 88 3 172 3 259s-1 169 -3 255c-1 43 -14 52 -55 56l-32 3v32zM318 -292l-14 25
c44 13 65 41 65 70c0 18 -9 31 -26 31c-33 0 -54 20 -54 52c0 31 23 55 58 55c53 0 84 -40 84 -94c0 -56 -34 -116 -113 -139z" />
    <glyph glyph-name="Lacute" unicode="&#x139;" horiz-adv-x="616" 
d="M27 694h297v-32l-36 -3c-40 -3 -50 -15 -52 -56c-3 -75 -6 -186 -6 -257c0 -87 0 -188 2 -245c1 -36 45 -47 160 -47c107 0 166 25 174 171h31v-225h-570v30l32 3c41 4 54 13 55 56c2 88 3 172 3 259s-1 169 -3 255c-1 43 -14 52 -55 56l-32 3v32zM228 870h96
c15 0 22 -14 6 -25l-196 -122l-27 13z" />
    <glyph glyph-name="Lcaron" unicode="&#x13d;" horiz-adv-x="616" 
d="M27 694h297v-32l-36 -3c-40 -3 -50 -15 -52 -56c-3 -75 -6 -186 -6 -257c0 -87 0 -188 2 -245c1 -36 45 -47 160 -47c107 0 166 25 174 171h31v-225h-570v30l32 3c41 4 54 13 55 56c2 88 3 172 3 259s-1 169 -3 255c-1 43 -14 52 -55 56l-32 3v32zM370 521l-20 21
c33 26 45 45 45 71c0 43 -40 37 -40 83c0 24 17 43 49 43c36 0 55 -26 55 -70c0 -49 -22 -100 -89 -148z" />
    <glyph glyph-name="Lcommaaccent" unicode="&#x13b;" horiz-adv-x="616" 
d="M27 694h297v-32l-36 -3c-40 -3 -50 -15 -52 -56c-3 -75 -6 -186 -6 -257c0 -87 0 -188 2 -245c1 -36 45 -47 160 -47c107 0 166 25 174 171h31v-225h-570v30l32 3c41 4 54 13 55 56c2 88 3 172 3 259s-1 169 -3 255c-1 43 -14 52 -55 56l-32 3v32zM263 -292l-14 25
c44 13 65 41 65 70c0 18 -9 31 -26 31c-33 0 -54 20 -54 52c0 31 23 55 58 55c53 0 84 -40 84 -94c0 -56 -34 -116 -113 -139z" />
    <glyph glyph-name="Ldot" unicode="&#x13f;" horiz-adv-x="616" 
d="M27 694h297v-32l-36 -3c-40 -3 -50 -15 -52 -56c-3 -75 -6 -186 -6 -257c0 -87 0 -188 2 -245c1 -36 45 -47 160 -47c107 0 166 25 174 171h31v-225h-570v30l32 3c41 4 54 13 55 56c2 88 3 172 3 259s-1 169 -3 255c-1 43 -14 52 -55 56l-32 3v32zM389 444
c33 0 60 -26 60 -59c0 -31 -27 -59 -60 -59c-32 0 -58 28 -58 59c0 33 26 59 58 59z" />
    <glyph glyph-name="Ldotaccent" horiz-adv-x="616" 
d="M27 694h297v-32l-36 -3c-40 -3 -50 -15 -52 -56c-3 -75 -6 -186 -6 -257c0 -87 0 -188 2 -245c1 -36 45 -47 160 -47c107 0 166 25 174 171h31v-225h-570v30l32 3c41 4 54 13 55 56c2 88 3 172 3 259s-1 169 -3 255c-1 43 -14 52 -55 56l-32 3v32zM389 445
c33 0 60 -26 60 -59c0 -31 -27 -59 -60 -59c-32 0 -58 28 -58 59c0 33 26 59 58 59z" />
    <glyph glyph-name="Lslash" unicode="&#x141;" horiz-adv-x="627" 
d="M38 694h297v-32l-36 -3c-40 -3 -50 -15 -52 -56c-2 -54 -5 -127 -6 -190l141 103l18 -40l-159 -117v-13c0 -87 0 -188 2 -245c1 -36 45 -47 160 -47c107 0 166 25 174 171h31v-225h-570v30l32 3c41 4 54 13 55 56l3 187l-87 -64l-17 41l104 76v19c0 87 -1 169 -3 255
c-1 43 -14 52 -55 56l-32 3v32z" />
    <glyph glyph-name="Nacute" unicode="&#x143;" horiz-adv-x="798" 
d="M27 694h246c57 -88 114 -175 172 -261c57 -86 116 -171 174 -254c1 60 3 126 3 181c0 89 0 194 -2 243c-1 41 -12 53 -52 56l-35 3v32h236v-32l-32 -3c-41 -4 -54 -13 -55 -56c-2 -88 -3 -271 -3 -358v-256h-76c-76 116 -155 230 -234 345c-63 93 -125 185 -189 275
c-3 -81 -6 -194 -6 -263c0 -87 0 -206 2 -257c1 -41 12 -53 52 -56l35 -3v-30h-236v30l32 3c41 4 54 13 55 56c2 88 3 172 3 259s-1 169 -3 255c-1 43 -14 52 -55 56l-32 3v32zM465 870h96c15 0 22 -14 6 -25l-196 -122l-27 13z" />
    <glyph glyph-name="Ncaron" unicode="&#x147;" horiz-adv-x="798" 
d="M27 694h246c57 -88 114 -175 172 -261c57 -86 116 -171 174 -254c1 60 3 126 3 181c0 89 0 194 -2 243c-1 41 -12 53 -52 56l-35 3v32h236v-32l-32 -3c-41 -4 -54 -13 -55 -56c-2 -88 -3 -271 -3 -358v-256h-76c-76 116 -155 230 -234 345c-63 93 -125 185 -189 275
c-3 -81 -6 -194 -6 -263c0 -87 0 -206 2 -257c1 -41 12 -53 52 -56l35 -3v-30h-236v30l32 3c41 4 54 13 55 56c2 88 3 172 3 259s-1 169 -3 255c-1 43 -14 52 -55 56l-32 3v32zM251 864l28 13l126 -72l122 72l28 -13l-107 -112c-13 -13 -28 -19 -44 -19c-15 0 -33 5 -44 16z
" />
    <glyph glyph-name="Ncommaaccent" unicode="&#x145;" horiz-adv-x="798" 
d="M27 694h246c57 -88 114 -175 172 -261c57 -86 116 -171 174 -254c1 60 3 126 3 181c0 89 0 194 -2 243c-1 41 -12 53 -52 56l-35 3v32h236v-32l-32 -3c-41 -4 -54 -13 -55 -56c-2 -88 -3 -271 -3 -358v-256h-76c-76 116 -155 230 -234 345c-63 93 -125 185 -189 275
c-3 -81 -6 -194 -6 -263c0 -87 0 -206 2 -257c1 -41 12 -53 52 -56l35 -3v-30h-236v30l32 3c41 4 54 13 55 56c2 88 3 172 3 259s-1 169 -3 255c-1 43 -14 52 -55 56l-32 3v32zM372 -292l-14 25c44 13 65 41 65 70c0 18 -9 31 -26 31c-33 0 -54 20 -54 52c0 31 23 55 58 55
c53 0 84 -40 84 -94c0 -56 -34 -116 -113 -139z" />
    <glyph glyph-name="Ntilde" unicode="&#xd1;" horiz-adv-x="798" 
d="M27 694h246c57 -88 114 -175 172 -261c57 -86 116 -171 174 -254c1 60 3 126 3 181c0 89 0 194 -2 243c-1 41 -12 53 -52 56l-35 3v32h236v-32l-32 -3c-41 -4 -54 -13 -55 -56c-2 -88 -3 -271 -3 -358v-256h-76c-76 116 -155 230 -234 345c-63 93 -125 185 -189 275
c-3 -81 -6 -194 -6 -263c0 -87 0 -206 2 -257c1 -41 12 -53 52 -56l35 -3v-30h-236v30l32 3c41 4 54 13 55 56c2 88 3 172 3 259s-1 169 -3 255c-1 43 -14 52 -55 56l-32 3v32zM356 876c33 0 58 -16 79 -32c20 -14 37 -26 56 -26c15 0 40 12 47 50l29 -15
c-9 -51 -56 -103 -104 -103c-34 0 -56 16 -76 30c-18 14 -36 26 -57 26c-18 0 -43 -13 -50 -51l-29 15c8 51 52 106 105 106z" />
    <glyph glyph-name="Oacute" unicode="&#xd3;" horiz-adv-x="794" 
d="M41 347c0 199 158 362 373 362c210 0 339 -177 339 -362c0 -199 -158 -362 -367 -362c-205 0 -345 160 -345 362zM398 662c-129 0 -223 -130 -223 -315c0 -177 89 -315 223 -315c129 0 224 125 224 315c0 164 -76 315 -224 315zM431 870h96c15 0 22 -14 6 -25l-196 -122
l-27 13z" />
    <glyph glyph-name="Obreve" unicode="&#x14e;" horiz-adv-x="794" 
d="M41 347c0 199 158 362 373 362c210 0 339 -177 339 -362c0 -199 -158 -362 -367 -362c-205 0 -345 160 -345 362zM398 662c-129 0 -223 -130 -223 -315c0 -177 89 -315 223 -315c129 0 224 125 224 315c0 164 -76 315 -224 315zM258 855l29 12c15 -58 57 -69 115 -69
c55 0 106 12 119 69l29 -12c-26 -98 -84 -126 -147 -126s-116 28 -145 126z" />
    <glyph glyph-name="Ocircumflex" unicode="&#xd4;" horiz-adv-x="794" 
d="M41 347c0 199 158 362 373 362c210 0 339 -177 339 -362c0 -199 -158 -362 -367 -362c-205 0 -345 160 -345 362zM398 662c-129 0 -223 -130 -223 -315c0 -177 89 -315 223 -315c129 0 224 125 224 315c0 164 -76 315 -224 315zM247 744l107 112c13 13 28 19 44 19
c15 0 33 -5 44 -16l109 -115l-28 -13l-126 71l-122 -71z" />
    <glyph glyph-name="Odieresis" unicode="&#xd6;" horiz-adv-x="794" 
d="M41 347c0 199 158 362 373 362c210 0 339 -177 339 -362c0 -199 -158 -362 -367 -362c-205 0 -345 160 -345 362zM398 662c-129 0 -223 -130 -223 -315c0 -177 89 -315 223 -315c129 0 224 125 224 315c0 164 -76 315 -224 315zM251 809c0 26 22 48 48 48
c28 0 50 -22 50 -48c0 -28 -22 -50 -50 -50c-26 0 -48 22 -48 50zM448 809c0 26 22 48 50 48c27 0 49 -22 49 -48c0 -28 -22 -50 -49 -50c-28 0 -50 22 -50 50z" />
    <glyph glyph-name="Ograve" unicode="&#xd2;" horiz-adv-x="794" 
d="M41 347c0 199 158 362 373 362c210 0 339 -177 339 -362c0 -199 -158 -362 -367 -362c-205 0 -345 160 -345 362zM398 662c-129 0 -223 -130 -223 -315c0 -177 89 -315 223 -315c129 0 224 125 224 315c0 164 -76 315 -224 315zM299 870h96l121 -134l-28 -13l-195 122
c-16 11 -9 25 6 25z" />
    <glyph glyph-name="Ohungarumlaut" unicode="&#x150;" horiz-adv-x="794" 
d="M41 347c0 199 158 362 373 362c210 0 339 -177 339 -362c0 -199 -158 -362 -367 -362c-205 0 -345 160 -345 362zM398 662c-129 0 -223 -130 -223 -315c0 -177 89 -315 223 -315c129 0 224 125 224 315c0 164 -76 315 -224 315zM355 870h79c13 0 19 -14 6 -25l-164 -117
l-23 13zM523 870h81c13 0 19 -14 5 -25l-163 -117l-24 13z" />
    <glyph glyph-name="Omacron" unicode="&#x14c;" horiz-adv-x="794" 
d="M41 347c0 199 158 362 373 362c210 0 339 -177 339 -362c0 -199 -158 -362 -367 -362c-205 0 -345 160 -345 362zM398 662c-129 0 -223 -130 -223 -315c0 -177 89 -315 223 -315c129 0 224 125 224 315c0 164 -76 315 -224 315zM269 827h258v-51h-258v51z" />
    <glyph glyph-name="Otilde" unicode="&#xd5;" horiz-adv-x="794" 
d="M41 347c0 199 158 362 373 362c210 0 339 -177 339 -362c0 -199 -158 -362 -367 -362c-205 0 -345 160 -345 362zM398 662c-129 0 -223 -130 -223 -315c0 -177 89 -315 223 -315c129 0 224 125 224 315c0 164 -76 315 -224 315zM344 876c33 0 58 -16 79 -32
c20 -14 37 -26 56 -26c15 0 40 12 47 50l29 -15c-9 -51 -56 -103 -104 -103c-34 0 -56 16 -76 30c-18 14 -36 26 -57 26c-18 0 -43 -13 -50 -51l-29 15c8 51 52 106 105 106z" />
    <glyph glyph-name="Racute" unicode="&#x154;" horiz-adv-x="716" 
d="M27 694h309c196 0 276 -80 276 -182c0 -99 -74 -161 -190 -178c35 -17 64 -43 89 -77c41 -56 81 -125 118 -176c26 -36 42 -44 67 -48l21 -3v-30h-180c-45 81 -90 158 -146 239c-39 56 -65 78 -97 80c-15 1 -40 3 -65 6c0 -85 0 -189 2 -236c2 -41 12 -53 52 -56l35 -3
v-30h-291v30l32 3c41 4 54 13 55 56c2 88 3 172 3 259s-1 169 -3 255c-1 43 -14 52 -55 56l-32 3v32zM235 645c-3 -66 -5 -198 -6 -275c32 -4 59 -6 85 -6c106 0 169 50 169 139c0 81 -49 147 -183 147c-27 0 -43 -1 -65 -5zM361 870h96c15 0 22 -14 6 -25l-196 -122l-27 13
z" />
    <glyph glyph-name="Rcaron" unicode="&#x158;" horiz-adv-x="716" 
d="M27 694h309c196 0 276 -80 276 -182c0 -99 -74 -161 -190 -178c35 -17 64 -43 89 -77c41 -56 81 -125 118 -176c26 -36 42 -44 67 -48l21 -3v-30h-180c-45 81 -90 158 -146 239c-39 56 -65 78 -97 80c-15 1 -40 3 -65 6c0 -85 0 -189 2 -236c2 -41 12 -53 52 -56l35 -3
v-30h-291v30l32 3c41 4 54 13 55 56c2 88 3 172 3 259s-1 169 -3 255c-1 43 -14 52 -55 56l-32 3v32zM235 645c-3 -66 -5 -198 -6 -275c32 -4 59 -6 85 -6c106 0 169 50 169 139c0 81 -49 147 -183 147c-27 0 -43 -1 -65 -5zM177 864l28 13l126 -72l122 72l28 -13l-107 -112
c-13 -13 -28 -19 -44 -19c-15 0 -33 5 -44 16z" />
    <glyph glyph-name="Rcommaaccent" unicode="&#x156;" horiz-adv-x="716" 
d="M27 694h309c196 0 276 -80 276 -182c0 -99 -74 -161 -190 -178c35 -17 64 -43 89 -77c41 -56 81 -125 118 -176c26 -36 42 -44 67 -48l21 -3v-30h-180c-45 81 -90 158 -146 239c-39 56 -65 78 -97 80c-15 1 -40 3 -65 6c0 -85 0 -189 2 -236c2 -41 12 -53 52 -56l35 -3
v-30h-291v30l32 3c41 4 54 13 55 56c2 88 3 172 3 259s-1 169 -3 255c-1 43 -14 52 -55 56l-32 3v32zM235 645c-3 -66 -5 -198 -6 -275c32 -4 59 -6 85 -6c106 0 169 50 169 139c0 81 -49 147 -183 147c-27 0 -43 -1 -65 -5zM319 -292l-14 25c44 13 65 41 65 70
c0 18 -9 31 -26 31c-33 0 -54 20 -54 52c0 31 23 55 58 55c53 0 84 -40 84 -94c0 -56 -34 -116 -113 -139z" />
    <glyph glyph-name="Sacute" unicode="&#x15a;" horiz-adv-x="599" 
d="M308 709c91 0 149 -20 195 -52v-172h-32c-5 136 -83 183 -164 183c-53 0 -117 -36 -117 -107c0 -154 340 -160 340 -375c0 -130 -123 -202 -254 -202c-89 0 -156 19 -204 49v177h31c12 -139 94 -180 173 -180c81 0 140 45 140 115c0 162 -338 169 -338 371
c0 110 95 193 230 193zM329 870h96c15 0 22 -14 6 -25l-196 -122l-27 13z" />
    <glyph glyph-name="Scaron" unicode="&#x160;" horiz-adv-x="599" 
d="M308 709c91 0 149 -20 195 -52v-172h-32c-5 136 -83 183 -164 183c-53 0 -117 -36 -117 -107c0 -154 340 -160 340 -375c0 -130 -123 -202 -254 -202c-89 0 -156 19 -204 49v177h31c12 -139 94 -180 173 -180c81 0 140 45 140 115c0 162 -338 169 -338 371
c0 110 95 193 230 193zM150 864l28 13l126 -72l122 72l28 -13l-107 -112c-13 -13 -28 -19 -44 -19c-15 0 -33 5 -44 16z" />
    <glyph glyph-name="Scedilla" unicode="&#x15e;" horiz-adv-x="599" 
d="M308 709c91 0 149 -20 195 -52v-172h-32c-5 136 -83 183 -164 183c-53 0 -117 -36 -117 -107c0 -154 340 -160 340 -375c0 -121 -106 -191 -227 -201l-22 -27c76 0 122 -20 122 -78c0 -57 -68 -86 -134 -86c-37 0 -65 10 -91 24l13 29c18 -10 40 -15 70 -15
c45 0 64 12 64 36c0 26 -27 41 -100 41l-5 8l44 67c-83 2 -146 20 -192 49v177h31c12 -139 94 -180 173 -180c81 0 140 45 140 115c0 162 -338 169 -338 371c0 110 95 193 230 193z" />
    <glyph glyph-name="Scedilla" unicode="&#xf6c1;" horiz-adv-x="599" 
d="M308 709c91 0 149 -20 195 -52v-172h-32c-5 136 -83 183 -164 183c-53 0 -117 -36 -117 -107c0 -154 340 -160 340 -375c0 -121 -106 -191 -227 -201l-22 -27c76 0 122 -20 122 -78c0 -57 -68 -86 -134 -86c-37 0 -65 10 -91 24l13 29c18 -10 40 -15 70 -15
c45 0 64 12 64 36c0 26 -27 41 -100 41l-5 8l44 67c-83 2 -146 20 -192 49v177h31c12 -139 94 -180 173 -180c81 0 140 45 140 115c0 162 -338 169 -338 371c0 110 95 193 230 193z" />
    <glyph glyph-name="Scircumflex" unicode="&#x15c;" horiz-adv-x="599" 
d="M308 709c91 0 149 -20 195 -52v-172h-32c-5 136 -83 183 -164 183c-53 0 -117 -36 -117 -107c0 -154 340 -160 340 -375c0 -130 -123 -202 -254 -202c-89 0 -156 19 -204 49v177h31c12 -139 94 -180 173 -180c81 0 140 45 140 115c0 162 -338 169 -338 371
c0 110 95 193 230 193zM158 744l107 112c13 13 28 19 44 19c15 0 33 -5 44 -16l109 -115l-28 -13l-126 71l-122 -71z" />
    <glyph glyph-name="Scommaaccent" unicode="&#x218;" horiz-adv-x="599" 
d="M308 709c91 0 149 -20 195 -52v-172h-32c-5 136 -83 183 -164 183c-53 0 -117 -36 -117 -107c0 -154 340 -160 340 -375c0 -130 -123 -202 -254 -202c-89 0 -156 19 -204 49v177h31c12 -139 94 -180 173 -180c81 0 140 45 140 115c0 162 -338 169 -338 371
c0 110 95 193 230 193zM243 -292l-14 25c44 13 65 41 65 70c0 18 -9 31 -26 31c-33 0 -54 20 -54 52c0 31 23 55 58 55c53 0 84 -40 84 -94c0 -56 -34 -116 -113 -139z" />
    <glyph glyph-name="Tbar" unicode="&#x166;" horiz-adv-x="680" 
d="M20 694h635v-196h-34c-3 113 -35 136 -142 143c-27 2 -55 2 -81 2c-3 -77 -6 -222 -6 -292h104v-55h-104c0 -78 0 -165 2 -207c1 -41 12 -53 52 -56l35 -3v-30h-291v30l32 3c41 4 54 13 55 56l3 207h-109v55h109c0 85 -1 206 -3 292c-23 0 -58 0 -81 -2
c-110 -7 -138 -24 -142 -143h-34v196z" />
    <glyph glyph-name="Tcaron" unicode="&#x164;" horiz-adv-x="654" 
d="M9 694h635v-196h-34c-3 113 -35 136 -142 143c-27 2 -54 2 -81 2c-3 -79 -5 -229 -5 -297c0 -87 0 -206 2 -257c1 -41 12 -53 52 -56l35 -3v-30h-292v30l32 3c41 4 54 13 55 56c2 88 3 172 3 259c0 84 -1 208 -2 295c-28 0 -55 0 -82 -2c-110 -7 -138 -24 -141 -143h-35
v196zM174 864l28 13l126 -72l122 72l28 -13l-107 -112c-13 -13 -28 -19 -44 -19c-15 0 -33 5 -44 16z" />
    <glyph glyph-name="Tcommaaccent" unicode="&#x162;" horiz-adv-x="654" 
d="M9 694h635v-196h-34c-3 113 -35 136 -142 143c-27 2 -54 2 -81 2c-3 -79 -5 -229 -5 -297c0 -87 0 -206 2 -257c1 -41 12 -53 52 -56l35 -3v-30h-292v30l32 3c41 4 54 13 55 56c2 88 3 172 3 259c0 84 -1 208 -2 295c-28 0 -55 0 -82 -2c-110 -7 -138 -24 -141 -143h-35
v196zM282 -292l-14 25c44 13 65 41 65 70c0 18 -9 31 -26 31c-33 0 -54 20 -54 52c0 31 23 55 58 55c53 0 84 -40 84 -94c0 -56 -34 -116 -113 -139z" />
    <glyph glyph-name="Tcommaaccent" unicode="&#x21a;" horiz-adv-x="654" 
d="M9 694h635v-196h-34c-3 113 -35 136 -142 143c-27 2 -54 2 -81 2c-3 -79 -5 -229 -5 -297c0 -87 0 -206 2 -257c1 -41 12 -53 52 -56l35 -3v-30h-292v30l32 3c41 4 54 13 55 56c2 88 3 172 3 259c0 84 -1 208 -2 295c-28 0 -55 0 -82 -2c-110 -7 -138 -24 -141 -143h-35
v196zM282 -292l-14 25c44 13 65 41 65 70c0 18 -9 31 -26 31c-33 0 -54 20 -54 52c0 31 23 55 58 55c53 0 84 -40 84 -94c0 -56 -34 -116 -113 -139z" />
    <glyph glyph-name="Uacute" unicode="&#xda;" horiz-adv-x="755" 
d="M22 694h295v-32l-35 -3c-40 -3 -50 -15 -52 -56c-3 -77 -6 -183 -6 -310v-69c0 -124 90 -176 183 -176c91 0 185 53 185 165v128c0 97 0 176 -2 262c-1 43 -14 52 -55 56l-32 3v32h237v-32l-35 -3c-40 -3 -50 -15 -52 -56c-3 -77 -6 -187 -6 -258c0 -53 1 -101 1 -145
c0 -147 -132 -216 -263 -216c-136 0 -274 74 -274 216c0 51 1 88 1 147c0 87 -1 170 -3 256c-1 43 -14 52 -55 56l-32 3v32zM438 870h96c15 0 22 -14 6 -25l-196 -122l-27 13z" />
    <glyph glyph-name="Ubreve" unicode="&#x16c;" horiz-adv-x="755" 
d="M22 694h295v-32l-35 -3c-40 -3 -50 -15 -52 -56c-3 -77 -6 -183 -6 -310v-69c0 -124 90 -176 183 -176c91 0 185 53 185 165v128c0 97 0 176 -2 262c-1 43 -14 52 -55 56l-32 3v32h237v-32l-35 -3c-40 -3 -50 -15 -52 -56c-3 -77 -6 -187 -6 -258c0 -53 1 -101 1 -145
c0 -147 -132 -216 -263 -216c-136 0 -274 74 -274 216c0 51 1 88 1 147c0 87 -1 170 -3 256c-1 43 -14 52 -55 56l-32 3v32zM255 855l29 12c15 -58 57 -69 115 -69c55 0 106 12 119 69l29 -12c-26 -98 -84 -126 -147 -126s-116 28 -145 126z" />
    <glyph glyph-name="Ucircumflex" unicode="&#xdb;" horiz-adv-x="755" 
d="M22 694h295v-32l-35 -3c-40 -3 -50 -15 -52 -56c-3 -77 -6 -183 -6 -310v-69c0 -124 90 -176 183 -176c91 0 185 53 185 165v128c0 97 0 176 -2 262c-1 43 -14 52 -55 56l-32 3v32h237v-32l-35 -3c-40 -3 -50 -15 -52 -56c-3 -77 -6 -187 -6 -258c0 -53 1 -101 1 -145
c0 -147 -132 -216 -263 -216c-136 0 -274 74 -274 216c0 51 1 88 1 147c0 87 -1 170 -3 256c-1 43 -14 52 -55 56l-32 3v32zM240 744l107 112c13 13 28 19 44 19c15 0 33 -5 44 -16l109 -115l-28 -13l-126 71l-122 -71z" />
    <glyph glyph-name="Udieresis" unicode="&#xdc;" horiz-adv-x="755" 
d="M22 694h295v-32l-35 -3c-40 -3 -50 -15 -52 -56c-3 -77 -6 -183 -6 -310v-69c0 -124 90 -176 183 -176c91 0 185 53 185 165v128c0 97 0 176 -2 262c-1 43 -14 52 -55 56l-32 3v32h237v-32l-35 -3c-40 -3 -50 -15 -52 -56c-3 -77 -6 -187 -6 -258c0 -53 1 -101 1 -145
c0 -147 -132 -216 -263 -216c-136 0 -274 74 -274 216c0 51 1 88 1 147c0 87 -1 170 -3 256c-1 43 -14 52 -55 56l-32 3v32zM253 809c0 26 22 48 48 48c28 0 50 -22 50 -48c0 -28 -22 -50 -50 -50c-26 0 -48 22 -48 50zM450 809c0 26 22 48 50 48c27 0 49 -22 49 -48
c0 -28 -22 -50 -49 -50c-28 0 -50 22 -50 50z" />
    <glyph glyph-name="Ugrave" unicode="&#xd9;" horiz-adv-x="755" 
d="M22 694h295v-32l-35 -3c-40 -3 -50 -15 -52 -56c-3 -77 -6 -183 -6 -310v-69c0 -124 90 -176 183 -176c91 0 185 53 185 165v128c0 97 0 176 -2 262c-1 43 -14 52 -55 56l-32 3v32h237v-32l-35 -3c-40 -3 -50 -15 -52 -56c-3 -77 -6 -187 -6 -258c0 -53 1 -101 1 -145
c0 -147 -132 -216 -263 -216c-136 0 -274 74 -274 216c0 51 1 88 1 147c0 87 -1 170 -3 256c-1 43 -14 52 -55 56l-32 3v32zM267 870h96l121 -134l-28 -13l-195 122c-16 11 -9 25 6 25z" />
    <glyph glyph-name="Uhungarumlaut" unicode="&#x170;" horiz-adv-x="755" 
d="M22 694h295v-32l-35 -3c-40 -3 -50 -15 -52 -56c-3 -77 -6 -183 -6 -310v-69c0 -124 90 -176 183 -176c91 0 185 53 185 165v128c0 97 0 176 -2 262c-1 43 -14 52 -55 56l-32 3v32h237v-32l-35 -3c-40 -3 -50 -15 -52 -56c-3 -77 -6 -187 -6 -258c0 -53 1 -101 1 -145
c0 -147 -132 -216 -263 -216c-136 0 -274 74 -274 216c0 51 1 88 1 147c0 87 -1 170 -3 256c-1 43 -14 52 -55 56l-32 3v32zM349 870h79c13 0 19 -14 6 -25l-164 -117l-23 13zM517 870h81c13 0 19 -14 5 -25l-163 -117l-24 13z" />
    <glyph glyph-name="Umacron" unicode="&#x16a;" horiz-adv-x="755" 
d="M22 694h295v-32l-35 -3c-40 -3 -50 -15 -52 -56c-3 -77 -6 -183 -6 -310v-69c0 -124 90 -176 183 -176c91 0 185 53 185 165v128c0 97 0 176 -2 262c-1 43 -14 52 -55 56l-32 3v32h237v-32l-35 -3c-40 -3 -50 -15 -52 -56c-3 -77 -6 -187 -6 -258c0 -53 1 -101 1 -145
c0 -147 -132 -216 -263 -216c-136 0 -274 74 -274 216c0 51 1 88 1 147c0 87 -1 170 -3 256c-1 43 -14 52 -55 56l-32 3v32zM263 827h258v-51h-258v51z" />
    <glyph glyph-name="Uogonek" unicode="&#x172;" horiz-adv-x="755" 
d="M22 694h295v-32l-35 -3c-40 -3 -50 -15 -52 -56c-3 -77 -6 -183 -6 -310v-69c0 -124 90 -176 183 -176c91 0 185 53 185 165v128c0 97 0 176 -2 262c-1 43 -14 52 -55 56l-32 3v32h237v-32l-35 -3c-40 -3 -50 -15 -52 -56c-3 -77 -6 -187 -6 -258c0 -53 1 -101 1 -145
c0 -123 -93 -192 -199 -210c-42 -24 -61 -61 -61 -98c0 -36 19 -56 57 -56c21 0 45 7 61 28l19 -20c-21 -28 -57 -53 -110 -53c-79 0 -106 36 -106 82c0 47 29 85 71 111c-135 2 -269 76 -269 216c0 51 1 88 1 147c0 87 -1 170 -3 256c-1 43 -14 52 -55 56l-32 3v32z" />
    <glyph glyph-name="Uring" unicode="&#x16e;" horiz-adv-x="755" 
d="M22 694h295v-32l-35 -3c-40 -3 -50 -15 -52 -56c-3 -77 -6 -183 -6 -310v-69c0 -124 90 -176 183 -176c91 0 185 53 185 165v128c0 97 0 176 -2 262c-1 43 -14 52 -55 56l-32 3v32h237v-32l-35 -3c-40 -3 -50 -15 -52 -56c-3 -77 -6 -187 -6 -258c0 -53 1 -101 1 -145
c0 -147 -132 -216 -263 -216c-136 0 -274 74 -274 216c0 51 1 88 1 147c0 87 -1 170 -3 256c-1 43 -14 52 -55 56l-32 3v32zM295 825c0 52 47 92 101 92c55 0 102 -40 102 -92c0 -57 -47 -96 -102 -96c-54 0 -101 39 -101 96zM343 822c0 -31 22 -53 52 -53c34 0 56 22 56 53
s-22 50 -56 50c-30 0 -52 -19 -52 -50z" />
    <glyph glyph-name="Utilde" unicode="&#x168;" horiz-adv-x="755" 
d="M22 694h295v-32l-35 -3c-40 -3 -50 -15 -52 -56c-3 -77 -6 -183 -6 -310v-69c0 -124 90 -176 183 -176c91 0 185 53 185 165v128c0 97 0 176 -2 262c-1 43 -14 52 -55 56l-32 3v32h237v-32l-35 -3c-40 -3 -50 -15 -52 -56c-3 -77 -6 -187 -6 -258c0 -53 1 -101 1 -145
c0 -147 -132 -216 -263 -216c-136 0 -274 74 -274 216c0 51 1 88 1 147c0 87 -1 170 -3 256c-1 43 -14 52 -55 56l-32 3v32zM344 876c33 0 58 -16 79 -32c20 -14 37 -26 56 -26c15 0 40 12 47 50l29 -15c-9 -51 -56 -103 -104 -103c-34 0 -56 16 -76 30
c-18 14 -36 26 -57 26c-18 0 -43 -13 -50 -51l-29 15c8 51 52 106 105 106z" />
    <glyph glyph-name="Wcircumflex" unicode="&#x174;" horiz-adv-x="988" 
d="M2 694h256v-31l-27 -3c-33 -4 -42 -19 -36 -46c34 -121 84 -298 132 -456c46 137 129 405 165 536h51c39 -133 123 -396 170 -536c50 155 101 330 131 445c9 40 -8 52 -45 57l-24 3v31h212v-31l-24 -3c-26 -4 -37 -14 -54 -64c-61 -177 -134 -419 -188 -605h-66
c-46 150 -111 340 -166 496c-57 -161 -113 -346 -160 -496h-65c-55 191 -133 434 -195 620c-12 35 -21 45 -49 49l-18 3v31zM365 744l107 112c13 13 28 19 44 19c15 0 33 -5 44 -16l109 -115l-28 -13l-126 71l-122 -71z" />
    <glyph glyph-name="Wacute" unicode="&#x1e82;" horiz-adv-x="988" 
d="M2 694h256v-31l-27 -3c-33 -4 -42 -19 -36 -46c34 -121 84 -298 132 -456c46 137 129 405 165 536h51c39 -133 123 -396 170 -536c50 155 101 330 131 445c9 40 -8 52 -45 57l-24 3v31h212v-31l-24 -3c-26 -4 -37 -14 -54 -64c-61 -177 -134 -419 -188 -605h-66
c-46 150 -111 340 -166 496c-57 -161 -113 -346 -160 -496h-65c-55 191 -133 434 -195 620c-12 35 -21 45 -49 49l-18 3v31zM570 870h96c15 0 22 -14 6 -25l-196 -122l-27 13z" />
    <glyph glyph-name="Wgrave" unicode="&#x1e80;" horiz-adv-x="988" 
d="M2 694h256v-31l-27 -3c-33 -4 -42 -19 -36 -46c34 -121 84 -298 132 -456c46 137 129 405 165 536h51c39 -133 123 -396 170 -536c50 155 101 330 131 445c9 40 -8 52 -45 57l-24 3v31h212v-31l-24 -3c-26 -4 -37 -14 -54 -64c-61 -177 -134 -419 -188 -605h-66
c-46 150 -111 340 -166 496c-57 -161 -113 -346 -160 -496h-65c-55 191 -133 434 -195 620c-12 35 -21 45 -49 49l-18 3v31zM368 870h96l121 -134l-28 -13l-195 122c-16 11 -9 25 6 25z" />
    <glyph glyph-name="Wdieresis" unicode="&#x1e84;" horiz-adv-x="988" 
d="M2 694h256v-31l-27 -3c-33 -4 -42 -19 -36 -46c34 -121 84 -298 132 -456c46 137 129 405 165 536h51c39 -133 123 -396 170 -536c50 155 101 330 131 445c9 40 -8 52 -45 57l-24 3v31h212v-31l-24 -3c-26 -4 -37 -14 -54 -64c-61 -177 -134 -419 -188 -605h-66
c-46 150 -111 340 -166 496c-57 -161 -113 -346 -160 -496h-65c-55 191 -133 434 -195 620c-12 35 -21 45 -49 49l-18 3v31zM363 809c0 26 22 48 49 48s50 -22 50 -48c0 -28 -23 -50 -50 -50s-49 22 -49 50zM560 809c0 26 22 48 50 48c27 0 49 -22 49 -48
c0 -28 -22 -50 -49 -50c-28 0 -50 22 -50 50z" />
    <glyph glyph-name="Yacute" unicode="&#xdd;" horiz-adv-x="698" 
d="M-24 694h304v-32l-23 -3c-31 -4 -44 -12 -44 -27c0 -11 6 -25 17 -44c47 -81 95 -156 142 -235c56 79 107 157 155 233c11 18 16 31 16 41c0 18 -15 26 -48 32l-23 4v31h240v-32l-23 -3c-35 -5 -56 -23 -95 -78c-66 -93 -133 -187 -196 -283c0 -73 0 -147 2 -209
c1 -41 12 -53 52 -56l35 -3v-30h-291v30l32 3c41 4 54 13 55 56c2 65 2 141 2 208c-66 91 -141 208 -187 285c-36 58 -64 72 -99 77l-23 3v32zM414 870h96c15 0 22 -14 6 -25l-196 -122l-27 13z" />
    <glyph glyph-name="Ycircumflex" unicode="&#x176;" horiz-adv-x="698" 
d="M-24 694h304v-32l-23 -3c-31 -4 -44 -12 -44 -27c0 -11 6 -25 17 -44c47 -81 95 -156 142 -235c56 79 107 157 155 233c11 18 16 31 16 41c0 18 -15 26 -48 32l-23 4v31h240v-32l-23 -3c-35 -5 -56 -23 -95 -78c-66 -93 -133 -187 -196 -283c0 -73 0 -147 2 -209
c1 -41 12 -53 52 -56l35 -3v-30h-291v30l32 3c41 4 54 13 55 56c2 65 2 141 2 208c-66 91 -141 208 -187 285c-36 58 -64 72 -99 77l-23 3v32zM207 744l107 112c13 13 28 19 44 19c15 0 33 -5 44 -16l109 -115l-28 -13l-126 71l-122 -71z" />
    <glyph glyph-name="Ydieresis" unicode="&#x178;" horiz-adv-x="698" 
d="M-24 694h304v-32l-23 -3c-31 -4 -44 -12 -44 -27c0 -11 6 -25 17 -44c47 -81 95 -156 142 -235c56 79 107 157 155 233c11 18 16 31 16 41c0 18 -15 26 -48 32l-23 4v31h240v-32l-23 -3c-35 -5 -56 -23 -95 -78c-66 -93 -133 -187 -196 -283c0 -73 0 -147 2 -209
c1 -41 12 -53 52 -56l35 -3v-30h-291v30l32 3c41 4 54 13 55 56c2 65 2 141 2 208c-66 91 -141 208 -187 285c-36 58 -64 72 -99 77l-23 3v32zM207 809c0 26 22 48 49 48s50 -22 50 -48c0 -28 -23 -50 -50 -50s-49 22 -49 50zM404 809c0 26 22 48 50 48c27 0 49 -22 49 -48
c0 -28 -22 -50 -49 -50c-28 0 -50 22 -50 50z" />
    <glyph glyph-name="Ygrave" unicode="&#x1ef2;" horiz-adv-x="698" 
d="M-24 694h304v-32l-23 -3c-31 -4 -44 -12 -44 -27c0 -11 6 -25 17 -44c47 -81 95 -156 142 -235c56 79 107 157 155 233c11 18 16 31 16 41c0 18 -15 26 -48 32l-23 4v31h240v-32l-23 -3c-35 -5 -56 -23 -95 -78c-66 -93 -133 -187 -196 -283c0 -73 0 -147 2 -209
c1 -41 12 -53 52 -56l35 -3v-30h-291v30l32 3c41 4 54 13 55 56c2 65 2 141 2 208c-66 91 -141 208 -187 285c-36 58 -64 72 -99 77l-23 3v32zM235 870h96l121 -134l-28 -13l-195 122c-16 11 -9 25 6 25z" />
    <glyph glyph-name="Zacute" unicode="&#x179;" horiz-adv-x="660" 
d="M79 694h536v-42c-149 -182 -297 -375 -428 -548c62 -1 215 -3 251 -3c124 0 140 19 149 119h37l-12 -220h-577v42c153 183 299 366 440 549c-57 2 -179 2 -259 2c-84 0 -101 -20 -109 -108h-37zM388 870h96c15 0 22 -14 6 -25l-196 -122l-27 13z" />
    <glyph glyph-name="Zcaron" unicode="&#x17d;" horiz-adv-x="660" 
d="M79 694h536v-42c-149 -182 -297 -375 -428 -548c62 -1 215 -3 251 -3c124 0 140 19 149 119h37l-12 -220h-577v42c153 183 299 366 440 549c-57 2 -179 2 -259 2c-84 0 -101 -20 -109 -108h-37zM204 864l28 13l126 -72l122 72l28 -13l-107 -112c-13 -13 -28 -19 -44 -19
c-15 0 -33 5 -44 16z" />
    <glyph glyph-name="Zdotaccent" unicode="&#x17b;" horiz-adv-x="660" 
d="M79 694h536v-42c-149 -182 -297 -375 -428 -548c62 -1 215 -3 251 -3c124 0 140 19 149 119h37l-12 -220h-577v42c153 183 299 366 440 549c-57 2 -179 2 -259 2c-84 0 -101 -20 -109 -108h-37zM335 862c31 0 55 -25 55 -54c0 -31 -24 -55 -55 -55c-30 0 -54 24 -54 55
c0 29 24 54 54 54z" />
    <glyph glyph-name="AEacute" unicode="&#x1fc;" horiz-adv-x="923" 
d="M315 694h528v-200h-31c-5 119 -36 150 -145 150c-51 0 -98 0 -143 -2c-3 -63 -5 -177 -6 -253h74c68 0 89 11 93 93h34v-230h-34c-4 74 -23 93 -91 93h-76c0 -86 0 -197 2 -248c1 -35 32 -47 149 -47c106 0 138 25 143 143h31v-193h-528v30l32 3c41 4 54 13 55 56
c2 56 2 111 3 166h-235c-49 -64 -92 -123 -121 -165c-25 -36 -22 -53 15 -58l26 -2v-30h-232v30l26 2c36 5 48 14 88 62c128 159 290 351 428 528c-4 28 -18 35 -53 37l-32 3v32zM208 305h197v43c0 68 -1 142 -1 209c-61 -75 -137 -177 -196 -252zM611 870h96
c15 0 22 -14 6 -25l-196 -122l-27 13z" />
    <glyph glyph-name="Oslashacute" unicode="&#x1fe;" horiz-adv-x="788" 
d="M418 870h96c15 0 22 -14 6 -25l-196 -122l-27 13zM688 736l48 -22l-87 -104c67 -68 104 -164 104 -263c0 -199 -158 -361 -367 -361c-81 0 -151 24 -206 67l-70 -84l-49 22l80 95c-63 66 -100 157 -100 261c0 199 158 361 373 361c77 0 143 -24 196 -64zM583 532
l-346 -410c39 -56 94 -89 161 -89c129 0 224 124 224 314c0 66 -13 131 -39 185zM211 170l345 409c-37 50 -90 82 -158 82c-129 0 -223 -129 -223 -314c0 -67 13 -128 36 -177z" />
    <glyph glyph-name="a" unicode="a" horiz-adv-x="515" 
d="M316 260c-92 -19 -167 -65 -167 -135c0 -39 22 -59 59 -59c52 0 102 38 106 125c1 24 2 46 2 69zM496 90l18 -20c-28 -46 -69 -79 -113 -79c-56 0 -76 32 -77 100c-57 -63 -109 -102 -174 -102c-66 0 -105 38 -105 100c0 77 66 127 141 162c58 27 105 44 130 57
c0 15 0 45 -1 65c-3 57 -28 84 -81 84c-45 0 -80 -27 -80 -56c0 -14 13 -22 13 -49c0 -26 -23 -50 -58 -50c-31 0 -52 19 -52 56c0 61 105 145 229 145c89 0 135 -44 135 -122c0 -64 -9 -165 -9 -257c0 -39 18 -54 40 -54c16 0 32 8 44 20z" />
    <glyph glyph-name="b" unicode="b" horiz-adv-x="594" 
d="M17 663v31c56 8 127 25 175 42l7 -3c-6 -93 -8 -211 -8 -319c44 45 103 89 179 89c115 0 183 -112 183 -237c0 -135 -80 -281 -248 -281c-81 0 -120 43 -153 43c-16 0 -28 -12 -34 -36l-44 5c7 22 18 66 18 307c0 98 -2 212 -4 304c-1 41 -8 48 -53 53zM312 432
c-79 0 -129 -78 -129 -207c0 -137 45 -195 126 -195c74 0 131 76 131 205c0 109 -39 197 -128 197z" />
    <glyph glyph-name="c" unicode="c" horiz-adv-x="475" 
d="M412 175h36c-19 -127 -96 -189 -206 -189c-117 0 -205 106 -205 243c0 155 108 274 251 274c119 0 161 -58 161 -109c0 -40 -25 -61 -56 -61c-34 0 -53 18 -53 59c0 42 -11 68 -69 68c-73 0 -127 -69 -127 -179c0 -130 61 -206 142 -206c62 0 111 34 126 100z" />
    <glyph glyph-name="d" unicode="d" horiz-adv-x="598" 
d="M327 694c60 8 133 25 181 42l6 -3c-8 -115 -9 -319 -9 -432c0 -72 0 -130 2 -185c1 -41 6 -48 46 -53l24 -3v-31c-53 -9 -115 -24 -162 -43l-6 3v94c-47 -53 -109 -97 -185 -97c-116 0 -183 113 -183 238c0 138 90 279 248 279c48 0 89 -24 116 -41c0 45 -1 104 -2 146
c-1 41 -8 49 -53 53l-23 2v31zM285 458c-71 0 -131 -74 -131 -205c0 -109 40 -198 128 -198c79 0 129 79 129 208c0 137 -45 195 -126 195z" />
    <glyph glyph-name="e" unicode="e" horiz-adv-x="495" 
d="M146 311l182 2c21 1 29 8 29 32c0 64 -30 115 -93 115c-55 0 -110 -43 -118 -149zM457 267h-312c-1 -125 65 -189 148 -189c60 0 107 33 122 90h36c-22 -117 -88 -182 -202 -182c-121 0 -207 109 -207 253c0 154 105 264 237 264c139 0 180 -112 180 -193
c0 -13 -1 -26 -2 -43z" />
    <glyph glyph-name="f" unicode="f" horiz-adv-x="331" 
d="M24 487h79c17 194 119 244 189 244c50 0 74 -24 74 -65c0 -30 -18 -58 -55 -58c-48 0 -50 47 -89 47c-28 0 -42 -29 -42 -63c0 -41 13 -105 43 -105h108v-48h-127c-1 -61 -1 -119 -1 -158c0 -72 0 -140 2 -195c1 -41 7 -48 47 -53l53 -3v-30h-274v30l20 3
c41 6 50 10 51 53c2 65 2 125 2 191c0 54 0 108 -1 162h-79v48z" />
    <glyph glyph-name="g" unicode="g" horiz-adv-x="551" 
d="M397 487h138v-48h-120c30 -28 47 -64 47 -118c0 -94 -83 -158 -198 -158c-27 0 -46 5 -63 5c-28 0 -56 -24 -56 -47c0 -20 13 -31 65 -31c102 0 165 -1 213 -12c65 -14 99 -50 99 -117c0 -101 -105 -172 -273 -172c-117 0 -208 38 -208 112c0 38 39 85 79 103
c-52 12 -72 33 -72 63c0 41 36 82 108 128c-57 28 -88 78 -88 139c0 92 74 168 185 168c63 0 90 -15 144 -15zM262 463c-53 0 -83 -47 -83 -120c0 -87 37 -139 95 -139c46 0 79 34 79 123c0 82 -29 136 -91 136zM191 -4c-29 0 -61 -28 -61 -77c0 -54 56 -86 137 -86
c105 0 161 46 161 98c0 36 -20 52 -56 57c-48 7 -88 8 -181 8z" />
    <glyph glyph-name="h" unicode="h" horiz-adv-x="603" 
d="M21 663v31c56 8 128 25 176 42l6 -3c-6 -92 -8 -218 -8 -323c51 43 132 93 199 93c71 0 121 -36 121 -123c0 -54 -2 -112 -2 -170c0 -42 0 -84 2 -126c2 -41 7 -46 47 -51l23 -3v-30h-239v30l19 3c39 6 46 9 48 51c2 41 2 82 2 123c0 42 0 80 -2 125c-4 69 -29 93 -81 93
c-68 0 -131 -43 -136 -135c-2 -36 -2 -68 -2 -103s0 -67 2 -103c2 -41 7 -46 45 -51l22 -3v-30h-240v30l20 3c41 6 49 9 50 52c3 63 3 153 3 227c0 104 -2 204 -4 296c-1 41 -8 48 -53 53z" />
    <glyph glyph-name="i" unicode="i" horiz-adv-x="288" 
d="M31 433v31c51 8 122 25 170 42l6 -4c-2 -60 -5 -167 -5 -261c0 -73 1 -121 2 -157c2 -41 8 -46 47 -51l22 -3v-30h-242v30l20 3c41 6 48 8 50 51c2 50 3 99 3 149c0 53 -2 121 -3 147c-2 41 -7 46 -52 51zM151 703c36 0 62 -26 62 -62s-26 -62 -62 -62
c-37 0 -62 26 -62 62s25 62 62 62z" />
    <glyph glyph-name="j" unicode="j" horiz-adv-x="289" 
d="M30 433v31c51 8 122 25 170 42l7 -4c-3 -60 -5 -180 -5 -274s1 -239 1 -302c0 -93 -54 -134 -119 -134c-43 0 -79 22 -104 68l23 21c14 -18 32 -25 47 -25c25 0 47 17 49 52c4 57 4 207 4 312c0 54 -2 134 -3 160c-2 41 -7 46 -52 51zM151 703c36 0 62 -26 62 -62
s-26 -62 -62 -62c-37 0 -62 26 -62 62s25 62 62 62z" />
    <glyph glyph-name="k" unicode="k" horiz-adv-x="593" 
d="M20 663v31c55 8 128 25 176 42l6 -3c-8 -102 -9 -306 -9 -415c0 -80 1 -182 2 -233c1 -40 6 -47 45 -52l22 -3v-30h-241v30l20 3c42 6 50 10 52 52c2 63 2 153 2 227c0 104 -2 204 -4 296c-2 41 -8 48 -53 53zM312 487h245v-31l-22 -3c-38 -5 -62 -15 -94 -45
c-38 -37 -90 -81 -137 -120c68 -67 139 -140 202 -210c29 -32 45 -41 69 -45l19 -3v-30h-259v30l36 3c11 1 19 7 19 17c0 23 -88 111 -195 207c78 63 180 149 180 176c0 11 -11 17 -34 20l-29 3v31z" />
    <glyph glyph-name="l" unicode="l" horiz-adv-x="284" 
d="M20 663v31c55 8 128 25 176 42l6 -3c-8 -102 -9 -306 -9 -415c0 -80 1 -182 2 -233c1 -40 7 -47 48 -52l23 -3v-30h-245v30l20 3c42 6 50 10 52 52c2 63 2 153 2 227c0 104 -2 204 -4 296c-2 41 -8 48 -53 53z" />
    <glyph glyph-name="m" unicode="m" horiz-adv-x="897" 
d="M31 433v31c51 8 125 26 168 42l5 -3v-93c51 43 123 93 190 93c62 0 102 -25 111 -92c51 43 124 92 191 92c71 0 113 -36 113 -123c0 -54 -2 -112 -2 -170c0 -42 0 -84 2 -126c2 -41 7 -46 47 -51l23 -3v-30h-239v30l19 3c39 6 46 9 48 51c2 41 2 82 2 123
c0 42 -1 80 -2 125c-4 69 -22 93 -74 93c-61 0 -123 -41 -126 -122c-1 -30 -2 -61 -2 -93c0 -42 0 -84 2 -126c2 -41 6 -46 43 -51l22 -3v-30h-233v30l19 3c40 6 45 9 47 51c2 41 2 82 2 123c0 42 -1 80 -2 125c-4 69 -22 93 -74 93c-63 0 -122 -43 -127 -135
c-2 -35 -2 -68 -2 -103s1 -67 2 -103c2 -41 7 -46 45 -51l22 -3v-30h-240v30l20 3c41 6 48 8 50 51c2 50 3 99 3 149s-1 98 -3 147c-2 41 -7 46 -52 51z" />
    <glyph glyph-name="n" unicode="n" horiz-adv-x="611" 
d="M31 433v31c51 8 125 26 168 42l5 -3v-93c51 43 131 93 198 93c71 0 121 -36 121 -123c0 -54 -2 -112 -2 -170c0 -42 0 -84 2 -126c2 -41 7 -46 47 -51l23 -3v-30h-239v30l19 3c39 6 46 9 48 51c2 41 3 82 3 123c0 42 -1 80 -3 125c-4 69 -29 93 -81 93
c-68 0 -131 -43 -136 -134c-2 -35 -2 -69 -2 -104s1 -67 2 -103c2 -41 7 -46 45 -51l22 -3v-30h-240v30l20 3c41 6 48 8 50 51c2 50 3 99 3 149s-1 98 -3 147c-2 41 -7 46 -52 51z" />
    <glyph glyph-name="o" unicode="o" horiz-adv-x="562" 
d="M284 503c145 0 240 -106 240 -259c0 -155 -110 -259 -246 -259c-145 0 -241 104 -241 259c0 153 110 259 247 259zM271 461c-70 0 -118 -73 -118 -196c0 -154 61 -238 139 -238c69 0 116 75 116 193c0 159 -59 241 -137 241z" />
    <glyph glyph-name="p" unicode="p" horiz-adv-x="598" 
d="M24 431v31c53 9 116 24 162 41l6 -3v-94c48 53 109 97 186 97c115 0 183 -112 183 -237c0 -138 -90 -280 -249 -280c-47 0 -89 24 -116 41l3 -144c1 -41 7 -47 48 -52l50 -3v-30h-272v30l20 3c43 7 49 10 50 51c2 89 2 222 2 307c0 72 0 131 -2 186c-1 41 -7 48 -47 53z
M320 434c-80 0 -130 -79 -130 -208c0 -137 45 -195 126 -195c71 0 131 75 131 205c0 109 -39 198 -127 198z" />
    <glyph glyph-name="q" unicode="q" horiz-adv-x="596" 
d="M477 496l44 -5c-7 -22 -18 -54 -18 -295c0 -97 2 -221 4 -313c1 -42 6 -45 49 -52l20 -3v-30h-272v30l50 3c37 2 46 11 47 40c3 70 3 138 3 202c-44 -44 -103 -89 -179 -89c-116 0 -183 113 -183 238c0 135 80 281 248 281c81 0 119 -43 153 -43c16 0 28 12 34 36z
M286 458c-74 0 -131 -77 -131 -205c0 -109 39 -198 128 -198c79 0 129 79 129 208c0 137 -45 195 -126 195z" />
    <glyph glyph-name="r" unicode="r" horiz-adv-x="412" 
d="M13 433v31c51 6 135 26 174 42l6 -3l-2 -124c28 37 108 124 164 124c42 0 61 -33 61 -69c0 -38 -19 -73 -55 -73c-52 0 -41 45 -75 45c-29 0 -73 -40 -78 -125c-2 -34 -2 -58 -2 -93s0 -68 2 -104c2 -41 7 -47 47 -51l39 -3v-30h-259v30l20 3c41 6 48 8 50 51
c2 50 3 99 3 149s-1 98 -3 147c-2 41 -18 48 -63 51z" />
    <glyph glyph-name="s" unicode="s" horiz-adv-x="437" 
d="M57 169h35c7 -105 60 -143 117 -143c54 0 89 24 89 77c0 117 -241 96 -241 252c0 84 68 148 171 148c50 0 103 -15 144 -51v-124h-35c-6 99 -56 134 -112 134c-55 0 -81 -28 -81 -67c0 -109 247 -96 247 -261c0 -101 -84 -149 -182 -149c-61 0 -114 12 -152 37v147z" />
    <glyph glyph-name="t" unicode="t" horiz-adv-x="361" 
d="M175 635l28 -3c-3 -63 -4 -107 -4 -145h139v-48h-140c-1 -49 -3 -116 -3 -173c0 -59 1 -110 3 -153c2 -37 27 -53 58 -53c26 0 54 12 71 36l23 -22c-42 -62 -102 -89 -153 -89c-61 0 -106 34 -106 102c0 55 2 116 2 181c0 56 0 117 -1 171h-81v32c52 10 125 60 164 164z
" />
    <glyph glyph-name="u" unicode="u" horiz-adv-x="595" 
d="M19 487h177c-4 -58 -7 -144 -7 -200c0 -42 1 -87 2 -132c4 -69 25 -93 77 -93c68 0 128 43 133 135c2 35 2 67 2 102s0 67 -2 103c-2 41 -6 46 -45 51l-21 3v31h171c-3 -60 -4 -163 -4 -231c0 -50 1 -123 4 -172c3 -40 7 -46 49 -51l22 -3v-30h-174v79
c-47 -38 -122 -95 -195 -95c-71 0 -119 36 -119 123c0 54 2 112 2 170c0 42 0 83 -2 125c-2 41 -7 46 -47 51l-23 3v31z" />
    <glyph glyph-name="v" unicode="v" horiz-adv-x="507" 
d="M-5 487h239v-31l-19 -2c-27 -3 -41 -12 -41 -31c0 -14 28 -94 109 -304c73 174 113 281 113 303c0 19 -11 29 -38 32l-19 2v31h174v-31l-13 -2c-22 -4 -29 -14 -48 -55c-49 -102 -120 -270 -173 -406h-54c-51 141 -115 297 -169 417c-14 29 -21 39 -50 44l-11 2v31z" />
    <glyph glyph-name="w" unicode="w" horiz-adv-x="739" 
d="M-5 487h234v-31l-19 -2c-29 -3 -43 -13 -43 -33c0 -12 16 -69 88 -292c31 87 82 233 116 355h51c23 -87 86 -269 117 -355c56 155 93 270 93 291c0 20 -13 31 -40 34l-19 2v31h169v-31l-12 -2c-22 -4 -28 -14 -44 -55c-43 -102 -103 -270 -147 -406h-55
c-30 101 -66 211 -114 333c-45 -117 -88 -241 -119 -333h-55c-43 141 -96 297 -143 417c-12 29 -18 39 -47 44l-11 2v31z" />
    <glyph glyph-name="x" unicode="x" horiz-adv-x="572" 
d="M21 487h267v-31l-17 -2c-26 -3 -37 -11 -37 -23c0 -10 12 -34 77 -129c59 67 93 111 93 127c0 13 -10 21 -39 25l-14 2v31h203v-31l-15 -2c-37 -5 -61 -27 -107 -76c-33 -37 -68 -74 -99 -109c32 -48 72 -105 112 -160s62 -73 97 -76l21 -2v-31h-264v31l16 2
c25 3 35 10 35 23c0 10 -20 47 -84 141c-65 -74 -104 -121 -104 -138c0 -13 13 -22 42 -26l14 -2v-31h-208v31l16 2c35 4 56 26 104 75c39 41 78 82 114 121c-31 47 -69 100 -105 149c-39 53 -61 73 -96 76l-22 2v31z" />
    <glyph glyph-name="y" unicode="y" horiz-adv-x="504" 
d="M-5 487h237v-31l-19 -2c-27 -3 -41 -12 -41 -29c0 -16 31 -122 110 -338c47 123 108 307 108 332c0 22 -13 32 -38 35l-19 2v31h177v-31l-9 -2c-28 -7 -40 -16 -56 -55c-54 -128 -115 -294 -170 -460c-37 -110 -90 -145 -146 -145c-62 0 -115 46 -115 163l32 2
c7 -50 44 -74 89 -74c42 0 75 23 89 73c-47 149 -107 309 -167 452c-12 30 -22 39 -51 44l-11 2v31z" />
    <glyph glyph-name="z" unicode="z" horiz-adv-x="495" 
d="M53 487h400v-33c-71 -84 -227 -287 -288 -373c36 -1 70 -2 108 -2c108 0 146 9 150 104h30l-5 -183h-419v32c63 62 253 302 300 374c-33 1 -66 2 -101 2c-111 0 -146 -8 -150 -104h-30z" />
    <glyph glyph-name="ae" unicode="&#xe6;" horiz-adv-x="766" 
d="M728 267h-313c-1 -125 65 -189 149 -189c60 0 107 33 122 90h36c-22 -117 -89 -182 -203 -182c-84 0 -144 54 -171 137c-65 -86 -134 -134 -198 -134c-63 0 -105 35 -105 101c0 73 60 123 141 161c58 27 105 44 130 57c0 15 0 45 -1 65c-3 57 -28 84 -81 84
c-45 0 -81 -26 -81 -56c0 -15 14 -23 14 -50c0 -28 -23 -52 -59 -52c-32 0 -54 20 -54 57c0 63 108 147 232 147c65 0 97 -26 108 -73c37 46 91 73 155 73c139 0 181 -112 181 -193c0 -13 -1 -26 -2 -43zM416 311l183 2c20 1 29 8 29 32c0 64 -31 115 -93 115
c-56 0 -110 -43 -119 -149zM316 260c-99 -20 -167 -69 -167 -134c0 -41 23 -60 59 -60c53 0 101 39 106 126c1 24 2 45 2 68z" />
    <glyph glyph-name="eng" unicode="&#x14b;" horiz-adv-x="608" 
d="M31 433v31c51 8 125 26 168 42l5 -3v-93c51 43 131 93 198 93c71 0 121 -36 121 -123c0 -54 -2 -112 -2 -170c0 -95 2 -221 2 -284c0 -93 -53 -134 -119 -134c-42 0 -78 22 -103 68l23 21c13 -18 32 -25 47 -25c25 0 47 17 49 52c4 61 4 181 4 299c0 42 -1 80 -3 125
c-4 69 -29 93 -81 93c-68 0 -131 -43 -136 -134c-2 -35 -2 -69 -2 -104s1 -67 2 -103c2 -40 7 -46 45 -51l22 -3v-30h-240v30l20 3c41 6 48 8 50 51c2 50 3 99 3 149s-1 98 -3 147c-2 41 -7 46 -52 51z" />
    <glyph glyph-name="eth" unicode="&#xf0;" horiz-adv-x="560" 
d="M118 680l2 38c82 0 150 -18 213 -50l87 40l22 -36l-68 -32c98 -72 145 -207 145 -346c0 -199 -112 -309 -255 -309c-139 0 -227 104 -227 252s96 262 242 262c55 0 98 -28 125 -66c-9 67 -44 130 -99 174l-110 -51l-22 37l91 42c-41 23 -90 41 -146 45zM268 457
c-71 0 -117 -64 -117 -192c0 -147 57 -232 137 -232c72 0 116 78 116 199c0 156 -57 225 -136 225z" />
    <glyph glyph-name="germandbls" unicode="&#xdf;" horiz-adv-x="597" 
d="M313 705c131 0 184 -70 184 -151c0 -69 -35 -133 -97 -157c100 -19 159 -91 159 -199c0 -115 -66 -213 -188 -213c-72 0 -131 35 -133 163h30c4 -72 33 -95 87 -95c64 0 93 64 93 140c0 88 -37 162 -159 163v37c78 0 106 74 106 137s-26 131 -89 131
c-71 0 -108 -47 -112 -116c-5 -86 -5 -215 -5 -264c0 -72 0 -226 2 -281h-173v30l20 3c41 6 50 10 51 53c2 65 2 125 2 191c0 54 -2 146 -2 200c0 159 120 228 224 228z" />
    <glyph glyph-name="ij" unicode="&#x133;" horiz-adv-x="573" 
d="M31 433v31c51 8 122 25 170 42l6 -4c-2 -60 -5 -167 -5 -261c0 -73 1 -121 2 -157c2 -40 8 -46 47 -51l22 -3v-30h-242v30l20 3c41 6 48 9 50 51c2 50 3 99 3 149c0 53 -2 121 -3 147c-2 41 -7 46 -52 51zM151 706c38 0 65 -27 65 -65s-27 -65 -65 -65s-65 27 -65 65
s27 65 65 65zM322 433v31c51 8 122 25 170 42l7 -4c-3 -60 -5 -180 -5 -274s1 -239 1 -302c0 -93 -54 -134 -119 -134c-43 0 -79 22 -104 68l23 21c14 -18 32 -25 47 -25c25 0 47 17 49 52c4 57 4 207 4 312c0 54 -2 134 -3 160c-2 41 -7 46 -52 51zM442 706
c38 0 65 -27 65 -65s-27 -65 -65 -65s-65 27 -65 65s27 65 65 65z" />
    <glyph glyph-name="oe" unicode="&#x153;" horiz-adv-x="864" 
d="M826 267h-313c0 -125 65 -189 149 -189c60 0 107 33 122 90h36c-22 -117 -89 -182 -202 -182c-67 0 -123 33 -161 89c-40 -57 -104 -90 -179 -90c-145 0 -241 104 -241 259c0 153 110 259 247 259c83 0 144 -36 181 -94c43 59 109 94 183 94c139 0 180 -112 180 -193
c0 -13 -1 -26 -2 -43zM271 461c-70 0 -118 -73 -118 -196c0 -154 61 -238 139 -238c69 0 116 75 116 193c0 159 -59 241 -137 241zM515 311l182 2c20 1 29 8 29 32c0 64 -30 115 -93 115c-56 0 -110 -43 -118 -149z" />
    <glyph glyph-name="oslash" unicode="&#xf8;" horiz-adv-x="562" 
d="M466 530l41 -26l-54 -69c45 -45 71 -112 71 -191c0 -155 -110 -259 -246 -259c-53 0 -98 13 -135 38l-53 -72l-41 26l57 76c-44 46 -69 111 -69 191c0 153 110 259 247 259c51 0 96 -14 133 -38zM389 351l-196 -261c25 -42 60 -63 99 -63c69 0 116 75 116 193
c0 52 -7 95 -19 131zM172 140l196 261c-25 39 -59 60 -97 60c-70 0 -118 -73 -118 -196c0 -49 7 -91 19 -125z" />
    <glyph glyph-name="thorn" unicode="&#xfe;" horiz-adv-x="598" 
d="M320 434c-80 0 -130 -79 -130 -208c0 -137 45 -195 126 -195c71 0 131 75 131 205c0 109 -39 198 -127 198zM20 663v31c55 8 128 25 176 42l6 -3c-7 -95 -8 -233 -8 -329c47 52 107 99 184 99c115 0 183 -112 183 -237c0 -138 -90 -280 -249 -280c-47 0 -89 24 -116 41
c0 -45 1 -104 3 -144c2 -41 7 -47 48 -52l50 -3v-30h-272v30l20 3c43 7 49 10 50 51c0 82 -1 220 -1 406c0 103 -1 228 -3 320c-2 41 -8 48 -53 53z" />
    <glyph glyph-name="aacute" unicode="&#xe1;" horiz-adv-x="515" 
d="M316 260c-92 -19 -167 -65 -167 -135c0 -39 22 -59 59 -59c52 0 102 38 106 125c1 24 2 46 2 69zM496 90l18 -20c-28 -46 -69 -79 -113 -79c-56 0 -76 32 -77 100c-57 -63 -109 -102 -174 -102c-66 0 -105 38 -105 100c0 77 66 127 141 162c58 27 105 44 130 57
c0 15 0 45 -1 65c-3 57 -28 84 -81 84c-45 0 -80 -27 -80 -56c0 -14 13 -22 13 -49c0 -26 -23 -50 -58 -50c-31 0 -52 19 -52 56c0 61 105 145 229 145c89 0 135 -44 135 -122c0 -64 -9 -165 -9 -257c0 -39 18 -54 40 -54c16 0 32 8 44 20zM287 725h96c15 0 22 -14 6 -25
l-179 -162l-29 13z" />
    <glyph glyph-name="abreve" unicode="&#x103;" horiz-adv-x="515" 
d="M316 260c-92 -19 -167 -65 -167 -135c0 -39 22 -59 59 -59c52 0 102 38 106 125c1 24 2 46 2 69zM496 90l18 -20c-28 -46 -69 -79 -113 -79c-56 0 -76 32 -77 100c-57 -63 -109 -102 -174 -102c-66 0 -105 38 -105 100c0 77 66 127 141 162c58 27 105 44 130 57
c0 15 0 45 -1 65c-3 57 -28 84 -81 84c-45 0 -80 -27 -80 -56c0 -14 13 -22 13 -49c0 -26 -23 -50 -58 -50c-31 0 -52 19 -52 56c0 61 105 145 229 145c89 0 135 -44 135 -122c0 -64 -9 -165 -9 -257c0 -39 18 -54 40 -54c16 0 32 8 44 20zM128 713l28 9
c22 -64 48 -77 104 -77c54 0 88 14 107 77l28 -9c-22 -108 -71 -145 -134 -145c-64 0 -108 37 -133 145z" />
    <glyph glyph-name="acircumflex" unicode="&#xe2;" horiz-adv-x="515" 
d="M316 260c-92 -19 -167 -65 -167 -135c0 -39 22 -59 59 -59c52 0 102 38 106 125c1 24 2 46 2 69zM496 90l18 -20c-28 -46 -69 -79 -113 -79c-56 0 -76 32 -77 100c-57 -63 -109 -102 -174 -102c-66 0 -105 38 -105 100c0 77 66 127 141 162c58 27 105 44 130 57
c0 15 0 45 -1 65c-3 57 -28 84 -81 84c-45 0 -80 -27 -80 -56c0 -14 13 -22 13 -49c0 -26 -23 -50 -58 -50c-31 0 -52 19 -52 56c0 61 105 145 229 145c89 0 135 -44 135 -122c0 -64 -9 -165 -9 -257c0 -39 18 -54 40 -54c16 0 32 8 44 20zM116 550l101 162
c10 15 25 19 41 19c15 0 34 -3 42 -16l103 -165l-27 -13l-119 110l-114 -110z" />
    <glyph glyph-name="adieresis" unicode="&#xe4;" horiz-adv-x="515" 
d="M316 260c-92 -19 -167 -65 -167 -135c0 -39 22 -59 59 -59c52 0 102 38 106 125c1 24 2 46 2 69zM496 90l18 -20c-28 -46 -69 -79 -113 -79c-56 0 -76 32 -77 100c-57 -63 -109 -102 -174 -102c-66 0 -105 38 -105 100c0 77 66 127 141 162c58 27 105 44 130 57
c0 15 0 45 -1 65c-3 57 -28 84 -81 84c-45 0 -80 -27 -80 -56c0 -14 13 -22 13 -49c0 -26 -23 -50 -58 -50c-31 0 -52 19 -52 56c0 61 105 145 229 145c89 0 135 -44 135 -122c0 -64 -9 -165 -9 -257c0 -39 18 -54 40 -54c16 0 32 8 44 20zM127 628c0 27 22 49 49 49
s50 -22 50 -49c0 -28 -23 -50 -50 -50s-49 22 -49 50zM324 628c0 27 22 49 50 49c27 0 49 -22 49 -49c0 -28 -22 -50 -49 -50c-28 0 -50 22 -50 50z" />
    <glyph glyph-name="agrave" unicode="&#xe0;" horiz-adv-x="515" 
d="M316 260c-92 -19 -167 -65 -167 -135c0 -39 22 -59 59 -59c52 0 102 38 106 125c1 24 2 46 2 69zM496 90l18 -20c-28 -46 -69 -79 -113 -79c-56 0 -76 32 -77 100c-57 -63 -109 -102 -174 -102c-66 0 -105 38 -105 100c0 77 66 127 141 162c58 27 105 44 130 57
c0 15 0 45 -1 65c-3 57 -28 84 -81 84c-45 0 -80 -27 -80 -56c0 -14 13 -22 13 -49c0 -26 -23 -50 -58 -50c-31 0 -52 19 -52 56c0 61 105 145 229 145c89 0 135 -44 135 -122c0 -64 -9 -165 -9 -257c0 -39 18 -54 40 -54c16 0 32 8 44 20zM149 725h96l106 -174l-29 -13
l-179 162c-16 11 -9 25 6 25z" />
    <glyph glyph-name="amacron" unicode="&#x101;" horiz-adv-x="515" 
d="M316 260c-92 -19 -167 -65 -167 -135c0 -39 22 -59 59 -59c52 0 102 38 106 125c1 24 2 46 2 69zM496 90l18 -20c-28 -46 -69 -79 -113 -79c-56 0 -76 32 -77 100c-57 -63 -109 -102 -174 -102c-66 0 -105 38 -105 100c0 77 66 127 141 162c58 27 105 44 130 57
c0 15 0 45 -1 65c-3 57 -28 84 -81 84c-45 0 -80 -27 -80 -56c0 -14 13 -22 13 -49c0 -26 -23 -50 -58 -50c-31 0 -52 19 -52 56c0 61 105 145 229 145c89 0 135 -44 135 -122c0 -64 -9 -165 -9 -257c0 -39 18 -54 40 -54c16 0 32 8 44 20zM144 636h243v-49h-243v49z" />
    <glyph glyph-name="aogonek" unicode="&#x105;" horiz-adv-x="515" 
d="M496 90l18 -20c-25 -41 -59 -70 -97 -77c-46 -24 -66 -62 -66 -101c0 -36 19 -56 57 -56c21 0 45 7 61 28l19 -20c-21 -28 -57 -53 -110 -53c-79 0 -106 36 -106 82c0 55 40 98 94 124c-30 12 -41 42 -42 94c-57 -63 -109 -102 -174 -102c-66 0 -105 38 -105 100
c0 77 66 127 141 162c58 27 105 44 130 57c0 15 0 45 -1 65c-3 57 -28 84 -81 84c-45 0 -80 -27 -80 -56c0 -14 13 -22 13 -49c0 -26 -23 -50 -58 -50c-31 0 -52 19 -52 56c0 61 105 145 229 145c89 0 135 -44 135 -122c0 -64 -9 -165 -9 -257c0 -39 18 -54 40 -54
c16 0 32 8 44 20zM316 260c-92 -19 -167 -65 -167 -135c0 -39 22 -59 59 -59c52 0 102 38 106 125c1 24 2 46 2 69z" />
    <glyph glyph-name="aring" unicode="&#xe5;" horiz-adv-x="515" 
d="M316 260c-92 -19 -167 -65 -167 -135c0 -39 22 -59 59 -59c52 0 102 38 106 125c1 24 2 46 2 69zM496 90l18 -20c-28 -46 -69 -79 -113 -79c-56 0 -76 32 -77 100c-57 -63 -109 -102 -174 -102c-66 0 -105 38 -105 100c0 77 66 127 141 162c58 27 105 44 130 57
c0 15 0 45 -1 65c-3 57 -28 84 -81 84c-45 0 -80 -27 -80 -56c0 -14 13 -22 13 -49c0 -26 -23 -50 -58 -50c-31 0 -52 19 -52 56c0 61 105 145 229 145c89 0 135 -44 135 -122c0 -64 -9 -165 -9 -257c0 -39 18 -54 40 -54c16 0 32 8 44 20zM166 629c0 55 47 99 101 99
c55 0 102 -44 102 -99c0 -58 -47 -101 -102 -101c-54 0 -101 43 -101 101zM266 682c-30 0 -52 -24 -52 -56c0 -31 22 -57 52 -57c34 0 56 26 56 57c0 32 -22 56 -56 56z" />
    <glyph glyph-name="atilde" unicode="&#xe3;" horiz-adv-x="515" 
d="M316 260c-92 -19 -167 -65 -167 -135c0 -39 22 -59 59 -59c52 0 102 38 106 125c1 24 2 46 2 69zM496 90l18 -20c-28 -46 -69 -79 -113 -79c-56 0 -76 32 -77 100c-57 -63 -109 -102 -174 -102c-66 0 -105 38 -105 100c0 77 66 127 141 162c58 27 105 44 130 57
c0 15 0 45 -1 65c-3 57 -28 84 -81 84c-45 0 -80 -27 -80 -56c0 -14 13 -22 13 -49c0 -26 -23 -50 -58 -50c-31 0 -52 19 -52 56c0 61 105 145 229 145c89 0 135 -44 135 -122c0 -64 -9 -165 -9 -257c0 -39 18 -54 40 -54c16 0 32 8 44 20zM142 554l-31 8
c1 75 36 137 91 137c54 0 94 -65 134 -65c27 0 48 21 49 68l30 -4c-1 -77 -33 -134 -87 -134c-64 0 -90 62 -133 62c-33 0 -52 -26 -53 -72z" />
    <glyph glyph-name="ccedilla" unicode="&#xe7;" horiz-adv-x="475" 
d="M412 175h36c-18 -117 -84 -179 -181 -188l-24 -29c76 0 122 -20 122 -78c0 -57 -68 -86 -134 -86c-37 0 -65 10 -91 24l13 29c18 -10 40 -15 70 -15c45 0 64 12 64 36c0 26 -27 41 -100 41l-5 8l45 70c-109 8 -190 110 -190 242c0 155 108 274 251 274
c119 0 161 -58 161 -109c0 -40 -25 -61 -56 -61c-34 0 -53 18 -53 59c0 42 -11 68 -69 68c-73 0 -127 -69 -127 -179c0 -130 61 -206 142 -206c62 0 111 34 126 100z" />
    <glyph glyph-name="cacute" unicode="&#x107;" horiz-adv-x="475" 
d="M412 175h36c-19 -127 -96 -189 -206 -189c-117 0 -205 106 -205 243c0 155 108 274 251 274c119 0 161 -58 161 -109c0 -40 -25 -61 -56 -61c-34 0 -53 18 -53 59c0 42 -11 68 -69 68c-73 0 -127 -69 -127 -179c0 -130 61 -206 142 -206c62 0 111 34 126 100zM305 725h96
c15 0 22 -14 6 -25l-179 -162l-29 13z" />
    <glyph glyph-name="ccaron" unicode="&#x10d;" horiz-adv-x="475" 
d="M412 175h36c-19 -127 -96 -189 -206 -189c-117 0 -205 106 -205 243c0 155 108 274 251 274c119 0 161 -58 161 -109c0 -40 -25 -61 -56 -61c-34 0 -53 18 -53 59c0 42 -11 68 -69 68c-73 0 -127 -69 -127 -179c0 -130 61 -206 142 -206c62 0 111 34 126 100zM134 723
l27 13l118 -109l115 109l27 -13l-101 -162c-10 -15 -26 -19 -42 -19c-15 0 -33 3 -41 16z" />
    <glyph glyph-name="ccircumflex" unicode="&#x109;" horiz-adv-x="475" 
d="M412 175h36c-19 -127 -96 -189 -206 -189c-117 0 -205 106 -205 243c0 155 108 274 251 274c119 0 161 -58 161 -109c0 -40 -25 -61 -56 -61c-34 0 -53 18 -53 59c0 42 -11 68 -69 68c-73 0 -127 -69 -127 -179c0 -130 61 -206 142 -206c62 0 111 34 126 100zM132 550
l101 162c10 15 25 19 41 19c15 0 34 -3 42 -16l103 -165l-27 -13l-119 110l-114 -110z" />
    <glyph glyph-name="cdotaccent" unicode="&#x10b;" horiz-adv-x="475" 
d="M412 175h36c-19 -127 -96 -189 -206 -189c-117 0 -205 106 -205 243c0 155 108 274 251 274c119 0 161 -58 161 -109c0 -40 -25 -61 -56 -61c-34 0 -53 18 -53 59c0 42 -11 68 -69 68c-73 0 -127 -69 -127 -179c0 -130 61 -206 142 -206c62 0 111 34 126 100zM269 678
c31 0 56 -24 56 -54c0 -31 -25 -56 -56 -56c-29 0 -54 25 -54 56c0 30 25 54 54 54z" />
    <glyph glyph-name="dcroat" unicode="&#x111;" horiz-adv-x="598" 
d="M316 604h87v4c-1 41 -8 49 -53 53l-23 2v31c60 8 133 25 181 42l6 -3c-3 -36 -5 -81 -6 -129h71v-41h-72c-2 -94 -2 -195 -2 -262c0 -72 0 -130 2 -185c1 -41 6 -48 46 -53l24 -3v-31c-53 -9 -115 -24 -162 -43l-6 3v94c-47 -53 -109 -97 -185 -97
c-116 0 -183 113 -183 238c0 138 90 279 248 279c48 0 89 -24 116 -41c0 30 -1 67 -1 101h-88v41zM285 458c-71 0 -131 -74 -131 -205c0 -109 40 -198 128 -198c79 0 129 79 129 208c0 137 -45 195 -126 195z" />
    <glyph glyph-name="dcaron" unicode="&#x10f;" horiz-adv-x="610" 
d="M327 694c60 8 133 25 181 42l6 -3c-8 -115 -9 -319 -9 -432c0 -72 0 -130 2 -185c1 -41 6 -48 46 -53l24 -3v-31c-53 -9 -115 -24 -162 -43l-6 3v94c-47 -53 -109 -97 -185 -97c-116 0 -183 113 -183 238c0 138 90 279 248 279c48 0 89 -24 116 -41c0 45 -1 104 -2 146
c-1 41 -8 49 -53 53l-23 2v31zM285 458c-71 0 -131 -74 -131 -205c0 -109 40 -198 128 -198c79 0 129 79 129 208c0 137 -45 195 -126 195zM567 521l-20 21c33 26 45 45 45 71c0 43 -40 37 -40 83c0 24 17 43 49 43c36 0 55 -26 55 -70c0 -49 -22 -100 -89 -148z" />
    <glyph glyph-name="eacute" unicode="&#xe9;" horiz-adv-x="495" 
d="M146 311l182 2c21 1 29 8 29 32c0 64 -30 115 -93 115c-55 0 -110 -43 -118 -149zM457 267h-312c-1 -125 65 -189 148 -189c60 0 107 33 122 90h36c-22 -117 -88 -182 -202 -182c-121 0 -207 109 -207 253c0 154 105 264 237 264c139 0 180 -112 180 -193
c0 -13 -1 -26 -2 -43zM301 725h96c15 0 22 -14 6 -25l-179 -162l-29 13z" />
    <glyph glyph-name="ebreve" unicode="&#x115;" horiz-adv-x="495" 
d="M146 311l182 2c21 1 29 8 29 32c0 64 -30 115 -93 115c-55 0 -110 -43 -118 -149zM457 267h-312c-1 -125 65 -189 148 -189c60 0 107 33 122 90h36c-22 -117 -88 -182 -202 -182c-121 0 -207 109 -207 253c0 154 105 264 237 264c139 0 180 -112 180 -193
c0 -13 -1 -26 -2 -43zM138 713l28 9c22 -64 48 -77 104 -77c54 0 88 14 107 77l28 -9c-22 -108 -71 -145 -134 -145c-64 0 -108 37 -133 145z" />
    <glyph glyph-name="ecaron" unicode="&#x11b;" horiz-adv-x="495" 
d="M146 311l182 2c21 1 29 8 29 32c0 64 -30 115 -93 115c-55 0 -110 -43 -118 -149zM457 267h-312c-1 -125 65 -189 148 -189c60 0 107 33 122 90h36c-22 -117 -88 -182 -202 -182c-121 0 -207 109 -207 253c0 154 105 264 237 264c139 0 180 -112 180 -193
c0 -13 -1 -26 -2 -43zM133 723l27 13l118 -109l115 109l27 -13l-101 -162c-10 -15 -26 -19 -42 -19c-15 0 -33 3 -41 16z" />
    <glyph glyph-name="ecircumflex" unicode="&#xea;" horiz-adv-x="495" 
d="M146 311l182 2c21 1 29 8 29 32c0 64 -30 115 -93 115c-55 0 -110 -43 -118 -149zM457 267h-312c-1 -125 65 -189 148 -189c60 0 107 33 122 90h36c-22 -117 -88 -182 -202 -182c-121 0 -207 109 -207 253c0 154 105 264 237 264c139 0 180 -112 180 -193
c0 -13 -1 -26 -2 -43zM129 550l101 162c10 15 25 19 41 19c15 0 34 -3 42 -16l103 -165l-27 -13l-119 110l-114 -110z" />
    <glyph glyph-name="edieresis" unicode="&#xeb;" horiz-adv-x="495" 
d="M146 311l182 2c21 1 29 8 29 32c0 64 -30 115 -93 115c-55 0 -110 -43 -118 -149zM457 267h-312c-1 -125 65 -189 148 -189c60 0 107 33 122 90h36c-22 -117 -88 -182 -202 -182c-121 0 -207 109 -207 253c0 154 105 264 237 264c139 0 180 -112 180 -193
c0 -13 -1 -26 -2 -43zM121 628c0 27 22 49 49 49s50 -22 50 -49c0 -28 -23 -50 -50 -50s-49 22 -49 50zM318 628c0 27 22 49 50 49c27 0 49 -22 49 -49c0 -28 -22 -50 -49 -50c-28 0 -50 22 -50 50z" />
    <glyph glyph-name="edotaccent" unicode="&#x117;" horiz-adv-x="495" 
d="M146 311l182 2c21 1 29 8 29 32c0 64 -30 115 -93 115c-55 0 -110 -43 -118 -149zM457 267h-312c-1 -125 65 -189 148 -189c60 0 107 33 122 90h36c-22 -117 -88 -182 -202 -182c-121 0 -207 109 -207 253c0 154 105 264 237 264c139 0 180 -112 180 -193
c0 -13 -1 -26 -2 -43zM272 678c31 0 56 -24 56 -54c0 -31 -25 -56 -56 -56c-29 0 -54 25 -54 56c0 30 25 54 54 54z" />
    <glyph glyph-name="egrave" unicode="&#xe8;" horiz-adv-x="495" 
d="M146 311l182 2c21 1 29 8 29 32c0 64 -30 115 -93 115c-55 0 -110 -43 -118 -149zM457 267h-312c-1 -125 65 -189 148 -189c60 0 107 33 122 90h36c-22 -117 -88 -182 -202 -182c-121 0 -207 109 -207 253c0 154 105 264 237 264c139 0 180 -112 180 -193
c0 -13 -1 -26 -2 -43zM164 725h96l106 -174l-29 -13l-179 162c-16 11 -9 25 6 25z" />
    <glyph glyph-name="emacron" unicode="&#x113;" horiz-adv-x="495" 
d="M146 311l182 2c21 1 29 8 29 32c0 64 -30 115 -93 115c-55 0 -110 -43 -118 -149zM457 267h-312c-1 -125 65 -189 148 -189c60 0 107 33 122 90h36c-22 -117 -88 -182 -202 -182c-121 0 -207 109 -207 253c0 154 105 264 237 264c139 0 180 -112 180 -193
c0 -13 -1 -26 -2 -43zM147 636h243v-49h-243v49z" />
    <glyph glyph-name="eogonek" unicode="&#x119;" horiz-adv-x="495" 
d="M457 267h-312c-1 -125 65 -189 148 -189c60 0 107 33 122 90h36c-18 -95 -65 -156 -142 -175c-47 -23 -67 -62 -67 -101c0 -36 19 -56 57 -56c21 0 45 7 61 28l19 -20c-21 -28 -57 -53 -110 -53c-79 0 -106 36 -106 82c0 48 31 88 74 114c-115 6 -195 112 -195 252
c0 154 105 264 237 264c139 0 180 -112 180 -193c0 -13 -1 -26 -2 -43zM146 311l182 2c21 1 29 8 29 32c0 64 -30 115 -93 115c-55 0 -110 -43 -118 -149z" />
    <glyph glyph-name="gacute" horiz-adv-x="551" 
d="M397 487h138v-48h-120c30 -28 47 -64 47 -118c0 -94 -83 -158 -198 -158c-27 0 -46 5 -63 5c-28 0 -56 -24 -56 -47c0 -20 13 -31 65 -31c102 0 165 -1 213 -12c65 -14 99 -50 99 -117c0 -101 -105 -172 -273 -172c-117 0 -208 38 -208 112c0 38 39 85 79 103
c-52 12 -72 33 -72 63c0 41 36 82 108 128c-57 28 -88 78 -88 139c0 92 74 168 185 168c63 0 90 -15 144 -15zM262 463c-53 0 -83 -47 -83 -120c0 -87 37 -139 95 -139c46 0 79 34 79 123c0 82 -29 136 -91 136zM191 -4c-29 0 -61 -28 -61 -77c0 -54 56 -86 137 -86
c105 0 161 46 161 98c0 36 -20 52 -56 57c-48 7 -88 8 -181 8zM315 725h96c15 0 22 -14 6 -25l-179 -162l-29 13z" />
    <glyph glyph-name="gbreve" unicode="&#x11f;" horiz-adv-x="551" 
d="M397 487h138v-48h-120c30 -28 47 -64 47 -118c0 -94 -83 -158 -198 -158c-27 0 -46 5 -63 5c-28 0 -56 -24 -56 -47c0 -20 13 -31 65 -31c102 0 165 -1 213 -12c65 -14 99 -50 99 -117c0 -101 -105 -172 -273 -172c-117 0 -208 38 -208 112c0 38 39 85 79 103
c-52 12 -72 33 -72 63c0 41 36 82 108 128c-57 28 -88 78 -88 139c0 92 74 168 185 168c63 0 90 -15 144 -15zM262 463c-53 0 -83 -47 -83 -120c0 -87 37 -139 95 -139c46 0 79 34 79 123c0 82 -29 136 -91 136zM191 -4c-29 0 -61 -28 -61 -77c0 -54 56 -86 137 -86
c105 0 161 46 161 98c0 36 -20 52 -56 57c-48 7 -88 8 -181 8zM138 713l28 9c22 -64 48 -77 104 -77c54 0 88 14 107 77l28 -9c-22 -108 -71 -145 -134 -145c-64 0 -108 37 -133 145z" />
    <glyph glyph-name="gcircumflex" unicode="&#x11d;" horiz-adv-x="551" 
d="M397 487h138v-48h-120c30 -28 47 -64 47 -118c0 -94 -83 -158 -198 -158c-27 0 -46 5 -63 5c-28 0 -56 -24 -56 -47c0 -20 13 -31 65 -31c102 0 165 -1 213 -12c65 -14 99 -50 99 -117c0 -101 -105 -172 -273 -172c-117 0 -208 38 -208 112c0 38 39 85 79 103
c-52 12 -72 33 -72 63c0 41 36 82 108 128c-57 28 -88 78 -88 139c0 92 74 168 185 168c63 0 90 -15 144 -15zM262 463c-53 0 -83 -47 -83 -120c0 -87 37 -139 95 -139c46 0 79 34 79 123c0 82 -29 136 -91 136zM191 -4c-29 0 -61 -28 -61 -77c0 -54 56 -86 137 -86
c105 0 161 46 161 98c0 36 -20 52 -56 57c-48 7 -88 8 -181 8zM127 550l101 162c10 15 25 19 41 19c15 0 34 -3 42 -16l103 -165l-27 -13l-119 110l-114 -110z" />
    <glyph glyph-name="gcommaaccent" unicode="&#x123;" horiz-adv-x="551" 
d="M314 780l14 -25c-44 -14 -64 -42 -64 -70c0 -18 8 -32 25 -32c33 0 54 -20 54 -51c0 -32 -23 -55 -58 -55c-53 0 -84 40 -84 93c0 56 35 116 113 140zM397 487h138v-48h-120c30 -28 47 -64 47 -118c0 -94 -83 -158 -198 -158c-27 0 -46 5 -63 5c-28 0 -56 -24 -56 -47
c0 -20 13 -31 65 -31c102 0 165 -1 213 -12c65 -14 99 -50 99 -117c0 -101 -105 -172 -273 -172c-117 0 -208 38 -208 112c0 38 39 85 79 103c-52 12 -72 33 -72 63c0 41 36 82 108 128c-57 28 -88 78 -88 139c0 92 74 168 185 168c63 0 90 -15 144 -15zM262 463
c-53 0 -83 -47 -83 -120c0 -87 37 -139 95 -139c46 0 79 34 79 123c0 82 -29 136 -91 136zM191 -4c-29 0 -61 -28 -61 -77c0 -54 56 -86 137 -86c105 0 161 46 161 98c0 36 -20 52 -56 57c-48 7 -88 8 -181 8z" />
    <glyph glyph-name="gdotaccent" unicode="&#x121;" horiz-adv-x="551" 
d="M397 487h138v-48h-120c30 -28 47 -64 47 -118c0 -94 -83 -158 -198 -158c-27 0 -46 5 -63 5c-28 0 -56 -24 -56 -47c0 -20 13 -31 65 -31c102 0 165 -1 213 -12c65 -14 99 -50 99 -117c0 -101 -105 -172 -273 -172c-117 0 -208 38 -208 112c0 38 39 85 79 103
c-52 12 -72 33 -72 63c0 41 36 82 108 128c-57 28 -88 78 -88 139c0 92 74 168 185 168c63 0 90 -15 144 -15zM262 463c-53 0 -83 -47 -83 -120c0 -87 37 -139 95 -139c46 0 79 34 79 123c0 82 -29 136 -91 136zM191 -4c-29 0 -61 -28 -61 -77c0 -54 56 -86 137 -86
c105 0 161 46 161 98c0 36 -20 52 -56 57c-48 7 -88 8 -181 8zM271 678c31 0 56 -24 56 -54c0 -31 -25 -56 -56 -56c-29 0 -54 25 -54 56c0 30 25 54 54 54z" />
    <glyph glyph-name="hcircumflex" unicode="&#x125;" horiz-adv-x="603" 
d="M21 663v31c56 8 128 25 176 42l6 -3c-6 -92 -8 -218 -8 -323c51 43 132 93 199 93c71 0 121 -36 121 -123c0 -54 -2 -112 -2 -170c0 -42 0 -84 2 -126c2 -41 7 -46 47 -51l23 -3v-30h-239v30l19 3c39 6 46 9 48 51c2 41 2 82 2 123c0 42 0 80 -2 125c-4 69 -29 93 -81 93
c-68 0 -131 -43 -136 -135c-2 -36 -2 -68 -2 -103s0 -67 2 -103c2 -41 7 -46 45 -51l22 -3v-30h-240v30l20 3c41 6 49 9 50 52c3 63 3 153 3 227c0 104 -2 204 -4 296c-1 41 -8 48 -53 53zM54 744l107 112c13 13 28 19 44 19c15 0 33 -5 44 -16l109 -115l-28 -13l-126 71
l-122 -71z" />
    <glyph glyph-name="hbar" unicode="&#x127;" horiz-adv-x="603" 
d="M16 602h76v6c-1 41 -8 48 -53 53l-18 2v31c56 8 128 25 176 42l6 -3c-3 -39 -4 -84 -6 -131h82v-41h-83c-1 -51 -1 -104 -1 -151c51 43 132 93 199 93c71 0 121 -36 121 -123c0 -54 -2 -112 -2 -170c0 -42 0 -84 2 -126c2 -41 7 -46 47 -51l23 -3v-30h-239v30l19 3
c39 6 46 9 48 51c2 41 2 82 2 123c0 42 0 80 -2 125c-4 69 -29 93 -81 93c-68 0 -131 -43 -136 -135c-2 -36 -2 -68 -2 -103s0 -67 2 -103c2 -41 7 -46 45 -51l22 -3v-30h-240v30l20 3c41 6 49 9 50 52c3 63 3 153 3 227c0 86 -2 170 -3 249h-77v41z" />
    <glyph glyph-name="iacute" unicode="&#xed;" horiz-adv-x="288" 
d="M164 725h96c15 0 22 -14 6 -25l-179 -162l-29 13zM31 433v31c51 8 122 25 170 42l6 -4c-2 -60 -5 -167 -5 -261c0 -73 1 -121 2 -157c2 -41 8 -46 47 -51l22 -3v-30h-242v30l20 3c41 6 48 8 50 51c2 50 3 99 3 149c0 53 -2 121 -3 147c-2 41 -7 46 -52 51z" />
    <glyph glyph-name="ibreve" unicode="&#x12d;" horiz-adv-x="288" 
d="M10 713l28 9c22 -64 48 -77 104 -77c54 0 88 14 107 77l28 -9c-22 -108 -71 -145 -134 -145c-64 0 -108 37 -133 145zM31 433v31c51 8 122 25 170 42l6 -4c-2 -60 -5 -167 -5 -261c0 -73 1 -121 2 -157c2 -41 8 -46 47 -51l22 -3v-30h-242v30l20 3c41 6 48 8 50 51
c2 50 3 99 3 149c0 53 -2 121 -3 147c-2 41 -7 46 -52 51z" />
    <glyph glyph-name="icircumflex" unicode="&#xee;" horiz-adv-x="288" 
d="M31 433v31c51 8 122 25 170 42l6 -4c-2 -60 -5 -167 -5 -261c0 -73 1 -121 2 -157c2 -41 8 -46 47 -51l22 -3v-30h-242v30l20 3c41 6 48 8 50 51c2 50 3 99 3 149c0 53 -2 121 -3 147c-2 41 -7 46 -52 51zM10 550l101 162c10 15 25 19 41 19c15 0 34 -3 42 -16l103 -165
l-27 -13l-119 110l-114 -110z" />
    <glyph glyph-name="idieresis" unicode="&#xef;" horiz-adv-x="288" 
d="M-3 628c0 27 22 49 49 49s50 -22 50 -49c0 -28 -23 -50 -50 -50s-49 22 -49 50zM194 628c0 27 22 49 50 49c27 0 49 -22 49 -49c0 -28 -22 -50 -49 -50c-28 0 -50 22 -50 50zM31 433v31c51 8 122 25 170 42l6 -4c-2 -60 -5 -167 -5 -261c0 -73 1 -121 2 -157
c2 -41 8 -46 47 -51l22 -3v-30h-242v30l20 3c41 6 48 8 50 51c2 50 3 99 3 149c0 53 -2 121 -3 147c-2 41 -7 46 -52 51z" />
    <glyph glyph-name="igrave" unicode="&#xec;" horiz-adv-x="288" 
d="M18 725h96l106 -174l-29 -13l-179 162c-16 11 -9 25 6 25zM31 433v31c51 8 122 25 170 42l6 -4c-2 -60 -5 -167 -5 -261c0 -73 1 -121 2 -157c2 -41 8 -46 47 -51l22 -3v-30h-242v30l20 3c41 6 48 8 50 51c2 50 3 99 3 149c0 53 -2 121 -3 147c-2 41 -7 46 -52 51z" />
    <glyph glyph-name="imacron" unicode="&#x12b;" horiz-adv-x="288" 
d="M23 636h243v-49h-243v49zM31 433v31c51 8 122 25 170 42l6 -4c-2 -60 -5 -167 -5 -261c0 -73 1 -121 2 -157c2 -41 8 -46 47 -51l22 -3v-30h-242v30l20 3c41 6 48 8 50 51c2 50 3 99 3 149c0 53 -2 121 -3 147c-2 41 -7 46 -52 51z" />
    <glyph glyph-name="iogonek" unicode="&#x12f;" horiz-adv-x="288" 
d="M31 433v31c51 8 122 25 170 42l6 -4c-2 -60 -5 -167 -5 -261c0 -73 1 -121 2 -157c2 -41 8 -46 47 -51l22 -3v-30h-53c-58 -22 -83 -64 -83 -108c0 -36 19 -56 57 -56c21 0 45 7 61 28l19 -20c-21 -28 -57 -53 -110 -53c-79 0 -106 36 -106 82c0 58 44 102 101 127h-128
v30l20 3c41 6 48 8 50 51c2 50 3 99 3 149c0 53 -2 121 -3 147c-2 41 -7 46 -52 51zM151 703c36 0 62 -26 62 -62s-26 -62 -62 -62c-37 0 -62 26 -62 62s25 62 62 62z" />
    <glyph glyph-name="itilde" unicode="&#x129;" horiz-adv-x="288" 
d="M14 554l-31 8c1 75 36 137 91 137c54 0 94 -65 134 -65c27 0 48 21 49 68l30 -4c-1 -77 -33 -134 -87 -134c-64 0 -90 62 -133 62c-33 0 -52 -26 -53 -72zM31 433v31c51 8 122 25 170 42l6 -4c-2 -60 -5 -167 -5 -261c0 -73 1 -121 2 -157c2 -41 8 -46 47 -51l22 -3v-30
h-242v30l20 3c41 6 48 8 50 51c2 50 3 99 3 149c0 53 -2 121 -3 147c-2 41 -7 46 -52 51z" />
    <glyph glyph-name="dotlessi" unicode="&#x131;" horiz-adv-x="288" 
d="M31 433v31c51 8 122 25 170 42l6 -4c-2 -60 -5 -167 -5 -261c0 -73 1 -121 2 -157c2 -41 8 -46 47 -51l22 -3v-30h-242v30l20 3c41 6 48 8 50 51c2 50 3 99 3 149c0 53 -2 121 -3 147c-2 41 -7 46 -52 51z" />
    <glyph glyph-name="dotlessj" unicode="&#xf6be;" horiz-adv-x="289" 
d="M30 433v31c51 8 122 25 170 42l7 -4c-3 -60 -5 -180 -5 -274s1 -237 1 -299c0 -93 -54 -135 -119 -135c-43 0 -79 23 -104 68l23 21c14 -17 32 -25 47 -25c25 0 47 17 49 53c4 56 4 204 4 309c0 54 -2 134 -3 160c-2 41 -7 46 -52 51z" />
    <glyph glyph-name="jcircumflex" unicode="&#x135;" horiz-adv-x="289" 
d="M30 433v31c51 8 122 25 170 42l7 -4c-3 -60 -5 -180 -5 -274s1 -237 1 -299c0 -93 -54 -135 -119 -135c-43 0 -79 23 -104 68l23 21c14 -17 32 -25 47 -25c25 0 47 17 49 53c4 56 4 204 4 309c0 54 -2 134 -3 160c-2 41 -7 46 -52 51zM3 550l101 162c10 15 25 19 41 19
c15 0 34 -3 42 -16l103 -165l-27 -13l-119 110l-114 -110z" />
    <glyph glyph-name="kcommaaccent" unicode="&#x137;" horiz-adv-x="593" 
d="M20 663v31c55 8 128 25 176 42l6 -3c-8 -102 -9 -306 -9 -415c0 -80 1 -182 2 -233c1 -40 6 -47 45 -52l22 -3v-30h-241v30l20 3c42 6 50 10 52 52c2 63 2 153 2 227c0 104 -2 204 -4 296c-2 41 -8 48 -53 53zM312 487h245v-31l-22 -3c-38 -5 -62 -15 -94 -45
c-38 -37 -90 -81 -137 -120c68 -67 139 -140 202 -210c29 -32 45 -41 69 -45l19 -3v-30h-259v30l36 3c11 1 19 7 19 17c0 23 -88 111 -195 207c78 63 180 149 180 176c0 11 -11 17 -34 20l-29 3v31zM258 -292l-14 25c44 13 65 41 65 70c0 18 -9 31 -26 31
c-33 0 -54 20 -54 52c0 31 23 55 58 55c53 0 84 -40 84 -94c0 -56 -34 -116 -113 -139z" />
    <glyph glyph-name="lacute" unicode="&#x13a;" horiz-adv-x="284" 
d="M20 663v31c55 8 128 25 176 42l6 -3c-8 -102 -9 -306 -9 -415c0 -80 1 -182 2 -233c1 -40 7 -47 48 -52l23 -3v-30h-245v30l20 3c42 6 50 10 52 52c2 63 2 153 2 227c0 104 -2 204 -4 296c-2 41 -8 48 -53 53zM158 870h96c15 0 22 -14 6 -25l-196 -122l-27 13z" />
    <glyph glyph-name="lcaron" unicode="&#x13e;" horiz-adv-x="284" 
d="M20 663v31c55 8 128 25 176 42l6 -3c-8 -102 -9 -306 -9 -415c0 -80 1 -182 2 -233c1 -40 7 -47 48 -52l23 -3v-30h-245v30l20 3c42 6 50 10 52 52c2 63 2 153 2 227c0 104 -2 204 -4 296c-2 41 -8 48 -53 53zM259 521l-20 21c33 26 45 45 45 71c0 43 -40 37 -40 83
c0 24 17 43 49 43c36 0 55 -26 55 -70c0 -49 -22 -100 -89 -148z" />
    <glyph glyph-name="lcommaaccent" unicode="&#x13c;" horiz-adv-x="284" 
d="M20 663v31c55 8 128 25 176 42l6 -3c-8 -102 -9 -306 -9 -415c0 -80 1 -182 2 -233c1 -40 7 -47 48 -52l23 -3v-30h-245v30l20 3c42 6 50 10 52 52c2 63 2 153 2 227c0 104 -2 204 -4 296c-2 41 -8 48 -53 53zM93 -292l-14 25c44 13 65 41 65 70c0 18 -9 31 -26 31
c-33 0 -54 20 -54 52c0 31 23 55 58 55c53 0 84 -40 84 -94c0 -56 -34 -116 -113 -139z" />
    <glyph glyph-name="ldot" unicode="&#x140;" horiz-adv-x="284" 
d="M20 663v31c55 8 128 25 176 42l6 -3c-8 -102 -9 -306 -9 -415c0 -80 1 -182 2 -233c1 -40 7 -47 48 -52l23 -3v-30h-245v30l20 3c42 6 50 10 52 52c2 63 2 153 2 227c0 104 -2 204 -4 296c-2 41 -8 48 -53 53zM299 464c30 0 55 -25 55 -55s-25 -56 -55 -56s-55 26 -55 56
s25 55 55 55z" />
    <glyph glyph-name="ldotaccent" horiz-adv-x="284" 
d="M20 663v31c55 8 128 25 176 42l6 -3c-8 -102 -9 -306 -9 -415c0 -80 1 -182 2 -233c1 -40 7 -47 48 -52l23 -3v-30h-245v30l20 3c42 6 50 10 52 52c2 63 2 153 2 227c0 104 -2 204 -4 296c-2 41 -8 48 -53 53zM299 464c30 0 55 -25 55 -55s-25 -56 -55 -56s-55 26 -55 56
s25 55 55 55z" />
    <glyph glyph-name="lslash" unicode="&#x142;" horiz-adv-x="294" 
d="M25 663v31c55 8 128 25 176 42l6 -3c-4 -50 -6 -125 -8 -201l62 67l20 -30l-83 -90v-161c0 -80 1 -182 2 -233c1 -40 7 -47 48 -52l23 -3v-30h-245v30l20 3c42 6 50 10 52 52c2 63 2 153 2 227v60l-67 -73l-21 30l87 95l-3 184c-2 41 -8 48 -53 53z" />
    <glyph glyph-name="nacute" unicode="&#x144;" horiz-adv-x="611" 
d="M31 433v31c51 8 125 26 168 42l5 -3v-93c51 43 131 93 198 93c71 0 121 -36 121 -123c0 -54 -2 -112 -2 -170c0 -42 0 -84 2 -126c2 -41 7 -46 47 -51l23 -3v-30h-239v30l19 3c39 6 46 9 48 51c2 41 3 82 3 123c0 42 -1 80 -3 125c-4 69 -29 93 -81 93
c-68 0 -131 -43 -136 -134c-2 -35 -2 -69 -2 -104s1 -67 2 -103c2 -41 7 -46 45 -51l22 -3v-30h-240v30l20 3c41 6 48 8 50 51c2 50 3 99 3 149s-1 98 -3 147c-2 41 -7 46 -52 51zM358 725h96c15 0 22 -14 6 -25l-179 -162l-29 13z" />
    <glyph glyph-name="napostrophe" unicode="&#x149;" horiz-adv-x="611" 
d="M31 433v31c51 8 125 26 168 42l5 -3v-93c51 43 131 93 198 93c71 0 121 -36 121 -123c0 -54 -2 -112 -2 -170c0 -42 0 -84 2 -126c2 -41 7 -46 47 -51l23 -3v-30h-239v30l19 3c39 6 46 9 48 51c2 41 3 82 3 123c0 42 -1 80 -3 125c-4 69 -29 93 -81 93
c-68 0 -131 -43 -136 -134c-2 -35 -2 -69 -2 -104s1 -67 2 -103c2 -41 7 -46 45 -51l22 -3v-30h-240v30l20 3c41 6 48 8 50 51c2 50 3 99 3 149s-1 98 -3 147c-2 41 -7 46 -52 51zM90 521l-20 21c33 26 45 45 45 71c0 43 -40 37 -40 83c0 24 17 43 49 43c36 0 55 -26 55 -70
c0 -49 -22 -100 -89 -148z" />
    <glyph glyph-name="ncaron" unicode="&#x148;" horiz-adv-x="611" 
d="M31 433v31c51 8 125 26 168 42l5 -3v-93c51 43 131 93 198 93c71 0 121 -36 121 -123c0 -54 -2 -112 -2 -170c0 -42 0 -84 2 -126c2 -41 7 -46 47 -51l23 -3v-30h-239v30l19 3c39 6 46 9 48 51c2 41 3 82 3 123c0 42 -1 80 -3 125c-4 69 -29 93 -81 93
c-68 0 -131 -43 -136 -134c-2 -35 -2 -69 -2 -104s1 -67 2 -103c2 -41 7 -46 45 -51l22 -3v-30h-240v30l20 3c41 6 48 8 50 51c2 50 3 99 3 149s-1 98 -3 147c-2 41 -7 46 -52 51zM175 723l27 13l118 -109l115 109l27 -13l-101 -162c-10 -15 -26 -19 -42 -19
c-15 0 -33 3 -41 16z" />
    <glyph glyph-name="ncommaaccent" unicode="&#x146;" horiz-adv-x="611" 
d="M31 433v31c51 8 125 26 168 42l5 -3v-93c51 43 131 93 198 93c71 0 121 -36 121 -123c0 -54 -2 -112 -2 -170c0 -42 0 -84 2 -126c2 -41 7 -46 47 -51l23 -3v-30h-239v30l19 3c39 6 46 9 48 51c2 41 3 82 3 123c0 42 -1 80 -3 125c-4 69 -29 93 -81 93
c-68 0 -131 -43 -136 -134c-2 -35 -2 -69 -2 -104s1 -67 2 -103c2 -41 7 -46 45 -51l22 -3v-30h-240v30l20 3c41 6 48 8 50 51c2 50 3 99 3 149s-1 98 -3 147c-2 41 -7 46 -52 51zM280 -292l-14 25c44 13 65 41 65 70c0 18 -9 31 -26 31c-33 0 -54 20 -54 52
c0 31 23 55 58 55c53 0 84 -40 84 -94c0 -56 -34 -116 -113 -139z" />
    <glyph glyph-name="ntilde" unicode="&#xf1;" horiz-adv-x="611" 
d="M31 433v31c51 8 125 26 168 42l5 -3v-93c51 43 131 93 198 93c71 0 121 -36 121 -123c0 -54 -2 -112 -2 -170c0 -42 0 -84 2 -126c2 -41 7 -46 47 -51l23 -3v-30h-239v30l19 3c39 6 46 9 48 51c2 41 3 82 3 123c0 42 -1 80 -3 125c-4 69 -29 93 -81 93
c-68 0 -131 -43 -136 -134c-2 -35 -2 -69 -2 -104s1 -67 2 -103c2 -41 7 -46 45 -51l22 -3v-30h-240v30l20 3c41 6 48 8 50 51c2 50 3 99 3 149s-1 98 -3 147c-2 41 -7 46 -52 51zM193 554l-31 8c1 75 36 137 91 137c54 0 94 -65 134 -65c27 0 48 21 49 68l30 -4
c-1 -77 -33 -134 -87 -134c-64 0 -90 62 -133 62c-33 0 -52 -26 -53 -72z" />
    <glyph glyph-name="oacute" unicode="&#xf3;" horiz-adv-x="562" 
d="M284 503c145 0 240 -106 240 -259c0 -155 -110 -259 -246 -259c-145 0 -241 104 -241 259c0 153 110 259 247 259zM271 461c-70 0 -118 -73 -118 -196c0 -154 61 -238 139 -238c69 0 116 75 116 193c0 159 -59 241 -137 241zM308 725h96c15 0 22 -14 6 -25l-179 -162
l-29 13z" />
    <glyph glyph-name="obreve" unicode="&#x14f;" horiz-adv-x="562" 
d="M284 503c145 0 240 -106 240 -259c0 -155 -110 -259 -246 -259c-145 0 -241 104 -241 259c0 153 110 259 247 259zM271 461c-70 0 -118 -73 -118 -196c0 -154 61 -238 139 -238c69 0 116 75 116 193c0 159 -59 241 -137 241zM147 713l28 9c22 -64 48 -77 104 -77
c54 0 88 14 107 77l28 -9c-22 -108 -71 -145 -134 -145c-64 0 -108 37 -133 145z" />
    <glyph glyph-name="ocircumflex" unicode="&#xf4;" horiz-adv-x="562" 
d="M284 503c145 0 240 -106 240 -259c0 -155 -110 -259 -246 -259c-145 0 -241 104 -241 259c0 153 110 259 247 259zM271 461c-70 0 -118 -73 -118 -196c0 -154 61 -238 139 -238c69 0 116 75 116 193c0 159 -59 241 -137 241zM137 550l101 162c10 15 25 19 41 19
c15 0 34 -3 42 -16l103 -165l-27 -13l-119 110l-114 -110z" />
    <glyph glyph-name="odieresis" unicode="&#xf6;" horiz-adv-x="562" 
d="M284 503c145 0 240 -106 240 -259c0 -155 -110 -259 -246 -259c-145 0 -241 104 -241 259c0 153 110 259 247 259zM271 461c-70 0 -118 -73 -118 -196c0 -154 61 -238 139 -238c69 0 116 75 116 193c0 159 -59 241 -137 241zM133 628c0 27 22 49 49 49s50 -22 50 -49
c0 -28 -23 -50 -50 -50s-49 22 -49 50zM330 628c0 27 22 49 50 49c27 0 49 -22 49 -49c0 -28 -22 -50 -49 -50c-28 0 -50 22 -50 50z" />
    <glyph glyph-name="ograve" unicode="&#xf2;" horiz-adv-x="562" 
d="M284 503c145 0 240 -106 240 -259c0 -155 -110 -259 -246 -259c-145 0 -241 104 -241 259c0 153 110 259 247 259zM271 461c-70 0 -118 -73 -118 -196c0 -154 61 -238 139 -238c69 0 116 75 116 193c0 159 -59 241 -137 241zM181 725h96l106 -174l-29 -13l-179 162
c-16 11 -9 25 6 25z" />
    <glyph glyph-name="ohungarumlaut" unicode="&#x151;" horiz-adv-x="562" 
d="M284 503c145 0 240 -106 240 -259c0 -155 -110 -259 -246 -259c-145 0 -241 104 -241 259c0 153 110 259 247 259zM271 461c-70 0 -118 -73 -118 -196c0 -154 61 -238 139 -238c69 0 116 75 116 193c0 159 -59 241 -137 241zM257 725h81c13 0 19 -14 6 -25l-168 -162
l-24 13zM413 725h81c13 0 19 -14 5 -25l-168 -162l-23 13z" />
    <glyph glyph-name="omacron" unicode="&#x14d;" horiz-adv-x="562" 
d="M284 503c145 0 240 -106 240 -259c0 -155 -110 -259 -246 -259c-145 0 -241 104 -241 259c0 153 110 259 247 259zM271 461c-70 0 -118 -73 -118 -196c0 -154 61 -238 139 -238c69 0 116 75 116 193c0 159 -59 241 -137 241zM160 636h243v-49h-243v49z" />
    <glyph glyph-name="otilde" unicode="&#xf5;" horiz-adv-x="562" 
d="M284 503c145 0 240 -106 240 -259c0 -155 -110 -259 -246 -259c-145 0 -241 104 -241 259c0 153 110 259 247 259zM271 461c-70 0 -118 -73 -118 -196c0 -154 61 -238 139 -238c69 0 116 75 116 193c0 159 -59 241 -137 241zM159 554l-31 8c1 75 36 137 91 137
c54 0 94 -65 134 -65c27 0 48 21 49 68l30 -4c-1 -77 -33 -134 -87 -134c-64 0 -90 62 -133 62c-33 0 -52 -26 -53 -72z" />
    <glyph glyph-name="racute" unicode="&#x155;" horiz-adv-x="412" 
d="M13 433v31c51 6 135 26 174 42l6 -3l-2 -124c28 37 108 124 164 124c42 0 61 -33 61 -69c0 -38 -19 -73 -55 -73c-52 0 -41 45 -75 45c-29 0 -73 -40 -78 -125c-2 -34 -2 -58 -2 -93s0 -68 2 -104c2 -41 7 -47 47 -51l39 -3v-30h-259v30l20 3c41 6 48 8 50 51
c2 50 3 99 3 149s-1 98 -3 147c-2 41 -18 48 -63 51zM285 725h96c15 0 22 -14 6 -25l-179 -162l-29 13z" />
    <glyph glyph-name="rcaron" unicode="&#x159;" horiz-adv-x="412" 
d="M13 433v31c51 6 135 26 174 42l6 -3l-2 -124c28 37 108 124 164 124c42 0 61 -33 61 -69c0 -38 -19 -73 -55 -73c-52 0 -41 45 -75 45c-29 0 -73 -40 -78 -125c-2 -34 -2 -58 -2 -93s0 -68 2 -104c2 -41 7 -47 47 -51l39 -3v-30h-259v30l20 3c41 6 48 8 50 51
c2 50 3 99 3 149s-1 98 -3 147c-2 41 -18 48 -63 51zM95 723l27 13l118 -109l115 109l27 -13l-101 -162c-10 -15 -26 -19 -42 -19c-15 0 -33 3 -41 16z" />
    <glyph glyph-name="rcommaaccent" unicode="&#x157;" horiz-adv-x="412" 
d="M13 433v31c51 6 135 26 174 42l6 -3l-2 -124c28 37 108 124 164 124c42 0 61 -33 61 -69c0 -38 -19 -73 -55 -73c-52 0 -41 45 -75 45c-29 0 -73 -40 -78 -125c-2 -34 -2 -58 -2 -93s0 -68 2 -104c2 -41 7 -47 47 -51l39 -3v-30h-259v30l20 3c41 6 48 8 50 51
c2 50 3 99 3 149s-1 98 -3 147c-2 41 -18 48 -63 51zM111 -292l-14 25c44 13 65 41 65 70c0 18 -9 31 -26 31c-33 0 -54 20 -54 52c0 31 23 55 58 55c53 0 84 -40 84 -94c0 -56 -34 -116 -113 -139z" />
    <glyph glyph-name="sacute" unicode="&#x15b;" horiz-adv-x="437" 
d="M57 169h35c7 -105 60 -143 117 -143c54 0 89 24 89 77c0 117 -241 96 -241 252c0 84 68 148 171 148c50 0 103 -15 144 -51v-124h-35c-6 99 -56 134 -112 134c-55 0 -81 -28 -81 -67c0 -109 247 -96 247 -261c0 -101 -84 -149 -182 -149c-61 0 -114 12 -152 37v147z
M250 725h96c15 0 22 -14 6 -25l-179 -162l-29 13z" />
    <glyph glyph-name="scaron" unicode="&#x161;" horiz-adv-x="437" 
d="M57 169h35c7 -105 60 -143 117 -143c54 0 89 24 89 77c0 117 -241 96 -241 252c0 84 68 148 171 148c50 0 103 -15 144 -51v-124h-35c-6 99 -56 134 -112 134c-55 0 -81 -28 -81 -67c0 -109 247 -96 247 -261c0 -101 -84 -149 -182 -149c-61 0 -114 12 -152 37v147z
M77 723l27 13l118 -109l115 109l27 -13l-101 -162c-10 -15 -26 -19 -42 -19c-15 0 -33 3 -41 16z" />
    <glyph glyph-name="scedilla" unicode="&#x15f;" horiz-adv-x="437" 
d="M57 169h35c7 -105 60 -143 117 -143c54 0 89 24 89 77c0 117 -241 96 -241 252c0 84 68 148 171 148c50 0 103 -15 144 -51v-124h-35c-6 99 -56 134 -112 134c-55 0 -81 -28 -81 -67c0 -109 247 -96 247 -261c0 -95 -75 -143 -165 -148l-23 -28c76 0 122 -20 122 -78
c0 -57 -68 -86 -134 -86c-37 0 -65 10 -91 24l13 29c18 -10 40 -15 70 -15c45 0 64 12 64 36c0 26 -27 41 -100 41l-5 8l45 69c-52 2 -97 14 -130 36v147z" />
    <glyph glyph-name="scedilla" unicode="&#xf6c2;" horiz-adv-x="437" 
d="M57 169h35c7 -105 60 -143 117 -143c54 0 89 24 89 77c0 117 -241 96 -241 252c0 84 68 148 171 148c50 0 103 -15 144 -51v-124h-35c-6 99 -56 134 -112 134c-55 0 -81 -28 -81 -67c0 -109 247 -96 247 -261c0 -95 -75 -143 -165 -148l-23 -28c76 0 122 -20 122 -78
c0 -57 -68 -86 -134 -86c-37 0 -65 10 -91 24l13 29c18 -10 40 -15 70 -15c45 0 64 12 64 36c0 26 -27 41 -100 41l-5 8l45 69c-52 2 -97 14 -130 36v147z" />
    <glyph glyph-name="scircumflex" unicode="&#x15d;" horiz-adv-x="437" 
d="M57 169h35c7 -105 60 -143 117 -143c54 0 89 24 89 77c0 117 -241 96 -241 252c0 84 68 148 171 148c50 0 103 -15 144 -51v-124h-35c-6 99 -56 134 -112 134c-55 0 -81 -28 -81 -67c0 -109 247 -96 247 -261c0 -101 -84 -149 -182 -149c-61 0 -114 12 -152 37v147z
M86 550l101 162c10 15 25 19 41 19c15 0 34 -3 42 -16l103 -165l-27 -13l-119 110l-114 -110z" />
    <glyph glyph-name="scommaaccent" unicode="&#x219;" horiz-adv-x="437" 
d="M57 169h35c7 -105 60 -143 117 -143c54 0 89 24 89 77c0 117 -241 96 -241 252c0 84 68 148 171 148c50 0 103 -15 144 -51v-124h-35c-6 99 -56 134 -112 134c-55 0 -81 -28 -81 -67c0 -109 247 -96 247 -261c0 -101 -84 -149 -182 -149c-61 0 -114 12 -152 37v147z
M176 -292l-14 25c44 13 65 41 65 70c0 18 -9 31 -26 31c-33 0 -54 20 -54 52c0 31 23 55 58 55c53 0 84 -40 84 -94c0 -56 -34 -116 -113 -139z" />
    <glyph glyph-name="tbar" unicode="&#x167;" horiz-adv-x="361" 
d="M175 635l28 -3c-3 -63 -4 -107 -4 -145h139v-48h-140c-1 -40 -3 -90 -3 -138h121v-46h-121c0 -54 1 -101 3 -142c2 -37 27 -53 58 -53c26 0 54 12 71 36l23 -22c-42 -62 -102 -89 -153 -89c-61 0 -106 34 -106 102c0 52 2 107 2 168h-68v46h68c0 46 0 94 -1 138h-81v32
c52 10 125 60 164 164z" />
    <glyph glyph-name="tcaron" unicode="&#x165;" horiz-adv-x="361" 
d="M175 635l28 -3c-3 -63 -4 -107 -4 -145h139v-48h-140c-1 -49 -3 -116 -3 -173c0 -59 1 -110 3 -153c2 -37 27 -53 58 -53c26 0 54 12 71 36l23 -22c-42 -62 -102 -89 -153 -89c-61 0 -106 34 -106 102c0 55 2 116 2 181c0 56 0 117 -1 171h-81v32c52 10 125 60 164 164z
M286 521l-20 21c33 26 45 45 45 71c0 43 -40 37 -40 83c0 24 17 43 49 43c36 0 55 -26 55 -70c0 -49 -22 -100 -89 -148z" />
    <glyph glyph-name="tcommaaccent" unicode="&#x163;" horiz-adv-x="361" 
d="M175 635l28 -3c-3 -63 -4 -107 -4 -145h139v-48h-140c-1 -49 -3 -116 -3 -173c0 -59 1 -110 3 -153c2 -37 27 -53 58 -53c26 0 54 12 71 36l23 -22c-42 -62 -102 -89 -153 -89c-61 0 -106 34 -106 102c0 55 2 116 2 181c0 56 0 117 -1 171h-81v32c52 10 125 60 164 164z
M141 -292l-14 25c44 13 65 41 65 70c0 18 -9 31 -26 31c-33 0 -54 20 -54 52c0 31 23 55 58 55c53 0 84 -40 84 -94c0 -56 -34 -116 -113 -139z" />
    <glyph glyph-name="tcommaaccent" unicode="&#x21b;" horiz-adv-x="361" 
d="M175 635l28 -3c-3 -63 -4 -107 -4 -145h139v-48h-140c-1 -49 -3 -116 -3 -173c0 -59 1 -110 3 -153c2 -37 27 -53 58 -53c26 0 54 12 71 36l23 -22c-42 -62 -102 -89 -153 -89c-61 0 -106 34 -106 102c0 55 2 116 2 181c0 56 0 117 -1 171h-81v32c52 10 125 60 164 164z
M141 -292l-14 25c44 13 65 41 65 70c0 18 -9 31 -26 31c-33 0 -54 20 -54 52c0 31 23 55 58 55c53 0 84 -40 84 -94c0 -56 -34 -116 -113 -139z" />
    <glyph glyph-name="uacute" unicode="&#xfa;" horiz-adv-x="595" 
d="M19 487h177c-4 -58 -7 -144 -7 -200c0 -42 1 -87 2 -132c4 -69 25 -93 77 -93c68 0 128 43 133 135c2 35 2 67 2 102s0 67 -2 103c-2 41 -6 46 -45 51l-21 3v31h171c-3 -60 -4 -163 -4 -231c0 -50 1 -123 4 -172c3 -40 7 -46 49 -51l22 -3v-30h-174v79
c-47 -38 -122 -95 -195 -95c-71 0 -119 36 -119 123c0 54 2 112 2 170c0 42 0 83 -2 125c-2 41 -7 46 -47 51l-23 3v31zM335 725h96c15 0 22 -14 6 -25l-179 -162l-29 13z" />
    <glyph glyph-name="ubreve" unicode="&#x16d;" horiz-adv-x="595" 
d="M19 487h177c-4 -58 -7 -144 -7 -200c0 -42 1 -87 2 -132c4 -69 25 -93 77 -93c68 0 128 43 133 135c2 35 2 67 2 102s0 67 -2 103c-2 41 -6 46 -45 51l-21 3v31h171c-3 -60 -4 -163 -4 -231c0 -50 1 -123 4 -172c3 -40 7 -46 49 -51l22 -3v-30h-174v79
c-47 -38 -122 -95 -195 -95c-71 0 -119 36 -119 123c0 54 2 112 2 170c0 42 0 83 -2 125c-2 41 -7 46 -47 51l-23 3v31zM151 713l28 9c22 -64 48 -77 104 -77c54 0 88 14 107 77l28 -9c-22 -108 -71 -145 -134 -145c-64 0 -108 37 -133 145z" />
    <glyph glyph-name="ucircumflex" unicode="&#xfb;" horiz-adv-x="595" 
d="M19 487h177c-4 -58 -7 -144 -7 -200c0 -42 1 -87 2 -132c4 -69 25 -93 77 -93c68 0 128 43 133 135c2 35 2 67 2 102s0 67 -2 103c-2 41 -6 46 -45 51l-21 3v31h171c-3 -60 -4 -163 -4 -231c0 -50 1 -123 4 -172c3 -40 7 -46 49 -51l22 -3v-30h-174v79
c-47 -38 -122 -95 -195 -95c-71 0 -119 36 -119 123c0 54 2 112 2 170c0 42 0 83 -2 125c-2 41 -7 46 -47 51l-23 3v31zM146 550l101 162c10 15 25 19 41 19c15 0 34 -3 42 -16l103 -165l-27 -13l-119 110l-114 -110z" />
    <glyph glyph-name="udieresis" unicode="&#xfc;" horiz-adv-x="595" 
d="M19 487h177c-4 -58 -7 -144 -7 -200c0 -42 1 -87 2 -132c4 -69 25 -93 77 -93c68 0 128 43 133 135c2 35 2 67 2 102s0 67 -2 103c-2 41 -6 46 -45 51l-21 3v31h171c-3 -60 -4 -163 -4 -231c0 -50 1 -123 4 -172c3 -40 7 -46 49 -51l22 -3v-30h-174v79
c-47 -38 -122 -95 -195 -95c-71 0 -119 36 -119 123c0 54 2 112 2 170c0 42 0 83 -2 125c-2 41 -7 46 -47 51l-23 3v31zM145 628c0 27 22 49 49 49s50 -22 50 -49c0 -28 -23 -50 -50 -50s-49 22 -49 50zM342 628c0 27 22 49 50 49c27 0 49 -22 49 -49c0 -28 -22 -50 -49 -50
c-28 0 -50 22 -50 50z" />
    <glyph glyph-name="ugrave" unicode="&#xf9;" horiz-adv-x="595" 
d="M19 487h177c-4 -58 -7 -144 -7 -200c0 -42 1 -87 2 -132c4 -69 25 -93 77 -93c68 0 128 43 133 135c2 35 2 67 2 102s0 67 -2 103c-2 41 -6 46 -45 51l-21 3v31h171c-3 -60 -4 -163 -4 -231c0 -50 1 -123 4 -172c3 -40 7 -46 49 -51l22 -3v-30h-174v79
c-47 -38 -122 -95 -195 -95c-71 0 -119 36 -119 123c0 54 2 112 2 170c0 42 0 83 -2 125c-2 41 -7 46 -47 51l-23 3v31zM177 725h96l106 -174l-29 -13l-179 162c-16 11 -9 25 6 25z" />
    <glyph glyph-name="uhungarumlaut" unicode="&#x171;" horiz-adv-x="595" 
d="M19 487h177c-4 -58 -7 -144 -7 -200c0 -42 1 -87 2 -132c4 -69 25 -93 77 -93c68 0 128 43 133 135c2 35 2 67 2 102s0 67 -2 103c-2 41 -6 46 -45 51l-21 3v31h171c-3 -60 -4 -163 -4 -231c0 -50 1 -123 4 -172c3 -40 7 -46 49 -51l22 -3v-30h-174v79
c-47 -38 -122 -95 -195 -95c-71 0 -119 36 -119 123c0 54 2 112 2 170c0 42 0 83 -2 125c-2 41 -7 46 -47 51l-23 3v31zM257 725h81c13 0 19 -14 6 -25l-168 -162l-24 13zM413 725h81c13 0 19 -14 5 -25l-168 -162l-23 13z" />
    <glyph glyph-name="umacron" unicode="&#x16b;" horiz-adv-x="595" 
d="M19 487h177c-4 -58 -7 -144 -7 -200c0 -42 1 -87 2 -132c4 -69 25 -93 77 -93c68 0 128 43 133 135c2 35 2 67 2 102s0 67 -2 103c-2 41 -6 46 -45 51l-21 3v31h171c-3 -60 -4 -163 -4 -231c0 -50 1 -123 4 -172c3 -40 7 -46 49 -51l22 -3v-30h-174v79
c-47 -38 -122 -95 -195 -95c-71 0 -119 36 -119 123c0 54 2 112 2 170c0 42 0 83 -2 125c-2 41 -7 46 -47 51l-23 3v31zM171 636h243v-49h-243v49z" />
    <glyph glyph-name="uogonek" unicode="&#x173;" horiz-adv-x="595" 
d="M19 487h177c-4 -58 -7 -144 -7 -200c0 -42 1 -87 2 -132c4 -69 25 -93 77 -93c68 0 128 43 133 135c2 35 2 67 2 102s0 67 -2 103c-2 41 -6 46 -45 51l-21 3v31h171c-3 -60 -4 -163 -4 -231c0 -50 1 -123 4 -172c3 -40 7 -46 49 -51l22 -3v-30h-77
c-58 -22 -83 -64 -83 -108c0 -36 19 -56 57 -56c21 0 45 7 61 28l19 -20c-21 -28 -57 -53 -110 -53c-79 0 -106 36 -106 82c0 58 44 102 101 127h-36v79c-47 -38 -122 -95 -195 -95c-71 0 -119 36 -119 123c0 54 2 112 2 170c0 42 0 83 -2 125c-2 41 -7 46 -47 51l-23 3v31z
" />
    <glyph glyph-name="uring" unicode="&#x16f;" horiz-adv-x="595" 
d="M19 487h177c-4 -58 -7 -144 -7 -200c0 -42 1 -87 2 -132c4 -69 25 -93 77 -93c68 0 128 43 133 135c2 35 2 67 2 102s0 67 -2 103c-2 41 -6 46 -45 51l-21 3v31h171c-3 -60 -4 -163 -4 -231c0 -50 1 -123 4 -172c3 -40 7 -46 49 -51l22 -3v-30h-174v79
c-47 -38 -122 -95 -195 -95c-71 0 -119 36 -119 123c0 54 2 112 2 170c0 42 0 83 -2 125c-2 41 -7 46 -47 51l-23 3v31zM194 629c0 55 47 99 101 99c55 0 102 -44 102 -99c0 -58 -47 -101 -102 -101c-54 0 -101 43 -101 101zM294 682c-30 0 -52 -24 -52 -56
c0 -31 22 -57 52 -57c34 0 56 26 56 57c0 32 -22 56 -56 56z" />
    <glyph glyph-name="utilde" unicode="&#x169;" horiz-adv-x="595" 
d="M19 487h177c-4 -58 -7 -144 -7 -200c0 -42 1 -87 2 -132c4 -69 25 -93 77 -93c68 0 128 43 133 135c2 35 2 67 2 102s0 67 -2 103c-2 41 -6 46 -45 51l-21 3v31h171c-3 -60 -4 -163 -4 -231c0 -50 1 -123 4 -172c3 -40 7 -46 49 -51l22 -3v-30h-174v79
c-47 -38 -122 -95 -195 -95c-71 0 -119 36 -119 123c0 54 2 112 2 170c0 42 0 83 -2 125c-2 41 -7 46 -47 51l-23 3v31zM175 554l-31 8c1 75 36 137 91 137c54 0 94 -65 134 -65c27 0 48 21 49 68l30 -4c-1 -77 -33 -134 -87 -134c-64 0 -90 62 -133 62
c-33 0 -52 -26 -53 -72z" />
    <glyph glyph-name="wcircumflex" unicode="&#x175;" horiz-adv-x="739" 
d="M-5 487h234v-31l-19 -2c-29 -3 -43 -13 -43 -33c0 -12 16 -69 88 -292c31 87 82 233 116 355h51c23 -87 86 -269 117 -355c56 155 93 270 93 291c0 20 -13 31 -40 34l-19 2v31h169v-31l-12 -2c-22 -4 -28 -14 -44 -55c-43 -102 -103 -270 -147 -406h-55
c-30 101 -66 211 -114 333c-45 -117 -88 -241 -119 -333h-55c-43 141 -96 297 -143 417c-12 29 -18 39 -47 44l-11 2v31zM249 550l101 162c10 15 25 19 41 19c15 0 34 -3 42 -16l103 -165l-27 -13l-119 110l-114 -110z" />
    <glyph glyph-name="wacute" unicode="&#x1e83;" horiz-adv-x="739" 
d="M-5 487h234v-31l-19 -2c-29 -3 -43 -13 -43 -33c0 -12 16 -69 88 -292c31 87 82 233 116 355h51c23 -87 86 -269 117 -355c56 155 93 270 93 291c0 20 -13 31 -40 34l-19 2v31h169v-31l-12 -2c-22 -4 -28 -14 -44 -55c-43 -102 -103 -270 -147 -406h-55
c-30 101 -66 211 -114 333c-45 -117 -88 -241 -119 -333h-55c-43 141 -96 297 -143 417c-12 29 -18 39 -47 44l-11 2v31zM405 725h96c15 0 22 -14 6 -25l-179 -162l-29 13z" />
    <glyph glyph-name="wgrave" unicode="&#x1e81;" horiz-adv-x="739" 
d="M-5 487h234v-31l-19 -2c-29 -3 -43 -13 -43 -33c0 -12 16 -69 88 -292c31 87 82 233 116 355h51c23 -87 86 -269 117 -355c56 155 93 270 93 291c0 20 -13 31 -40 34l-19 2v31h169v-31l-12 -2c-22 -4 -28 -14 -44 -55c-43 -102 -103 -270 -147 -406h-55
c-30 101 -66 211 -114 333c-45 -117 -88 -241 -119 -333h-55c-43 141 -96 297 -143 417c-12 29 -18 39 -47 44l-11 2v31zM259 725h96l106 -174l-29 -13l-179 162c-16 11 -9 25 6 25z" />
    <glyph glyph-name="wdieresis" unicode="&#x1e85;" horiz-adv-x="739" 
d="M-5 487h234v-31l-19 -2c-29 -3 -43 -13 -43 -33c0 -12 16 -69 88 -292c31 87 82 233 116 355h51c23 -87 86 -269 117 -355c56 155 93 270 93 291c0 20 -13 31 -40 34l-19 2v31h169v-31l-12 -2c-22 -4 -28 -14 -44 -55c-43 -102 -103 -270 -147 -406h-55
c-30 101 -66 211 -114 333c-45 -117 -88 -241 -119 -333h-55c-43 141 -96 297 -143 417c-12 29 -18 39 -47 44l-11 2v31zM244 628c0 27 22 49 49 49s50 -22 50 -49c0 -28 -23 -50 -50 -50s-49 22 -49 50zM441 628c0 27 22 49 50 49c27 0 49 -22 49 -49
c0 -28 -22 -50 -49 -50c-28 0 -50 22 -50 50z" />
    <glyph glyph-name="yacute" unicode="&#xfd;" horiz-adv-x="504" 
d="M-5 487h237v-31l-19 -2c-27 -3 -41 -12 -41 -29c0 -16 31 -122 110 -338c47 123 108 307 108 332c0 22 -13 32 -38 35l-19 2v31h177v-31l-9 -2c-28 -7 -40 -16 -56 -55c-54 -128 -115 -294 -170 -460c-37 -110 -90 -145 -146 -145c-62 0 -115 46 -115 163l32 2
c7 -50 44 -74 89 -74c42 0 75 23 89 73c-47 149 -107 309 -167 452c-12 30 -22 39 -51 44l-11 2v31zM316 725h96c15 0 22 -14 6 -25l-179 -162l-29 13z" />
    <glyph glyph-name="ycircumflex" unicode="&#x177;" horiz-adv-x="504" 
d="M-5 487h237v-31l-19 -2c-27 -3 -41 -12 -41 -29c0 -16 31 -122 110 -338c47 123 108 307 108 332c0 22 -13 32 -38 35l-19 2v31h177v-31l-9 -2c-28 -7 -40 -16 -56 -55c-54 -128 -115 -294 -170 -460c-37 -110 -90 -145 -146 -145c-62 0 -115 46 -115 163l32 2
c7 -50 44 -74 89 -74c42 0 75 23 89 73c-47 149 -107 309 -167 452c-12 30 -22 39 -51 44l-11 2v31zM125 550l101 162c10 15 25 19 41 19c15 0 34 -3 42 -16l103 -165l-27 -13l-119 110l-114 -110z" />
    <glyph glyph-name="ydieresis" unicode="&#xff;" horiz-adv-x="504" 
d="M-5 487h237v-31l-19 -2c-27 -3 -41 -12 -41 -29c0 -16 31 -122 110 -338c47 123 108 307 108 332c0 22 -13 32 -38 35l-19 2v31h177v-31l-9 -2c-28 -7 -40 -16 -56 -55c-54 -128 -115 -294 -170 -460c-37 -110 -90 -145 -146 -145c-62 0 -115 46 -115 163l32 2
c7 -50 44 -74 89 -74c42 0 75 23 89 73c-47 149 -107 309 -167 452c-12 30 -22 39 -51 44l-11 2v31zM129 628c0 27 22 49 49 49s50 -22 50 -49c0 -28 -23 -50 -50 -50s-49 22 -49 50zM326 628c0 27 22 49 50 49c27 0 49 -22 49 -49c0 -28 -22 -50 -49 -50
c-28 0 -50 22 -50 50z" />
    <glyph glyph-name="ygrave" unicode="&#x1ef3;" horiz-adv-x="504" 
d="M-5 487h237v-31l-19 -2c-27 -3 -41 -12 -41 -29c0 -16 31 -122 110 -338c47 123 108 307 108 332c0 22 -13 32 -38 35l-19 2v31h177v-31l-9 -2c-28 -7 -40 -16 -56 -55c-54 -128 -115 -294 -170 -460c-37 -110 -90 -145 -146 -145c-62 0 -115 46 -115 163l32 2
c7 -50 44 -74 89 -74c42 0 75 23 89 73c-47 149 -107 309 -167 452c-12 30 -22 39 -51 44l-11 2v31zM150 725h96l106 -174l-29 -13l-179 162c-16 11 -9 25 6 25z" />
    <glyph glyph-name="zacute" unicode="&#x17a;" horiz-adv-x="495" 
d="M53 487h400v-33c-71 -84 -227 -287 -288 -373c36 -1 70 -2 108 -2c108 0 146 9 150 104h30l-5 -183h-419v32c63 62 253 302 300 374c-33 1 -66 2 -101 2c-111 0 -146 -8 -150 -104h-30zM282 725h96c15 0 22 -14 6 -25l-179 -162l-29 13z" />
    <glyph glyph-name="zcaron" unicode="&#x17e;" horiz-adv-x="495" 
d="M53 487h400v-33c-71 -84 -227 -287 -288 -373c36 -1 70 -2 108 -2c108 0 146 9 150 104h30l-5 -183h-419v32c63 62 253 302 300 374c-33 1 -66 2 -101 2c-111 0 -146 -8 -150 -104h-30zM116 723l27 13l118 -109l115 109l27 -13l-101 -162c-10 -15 -26 -19 -42 -19
c-15 0 -33 3 -41 16z" />
    <glyph glyph-name="zdotaccent" unicode="&#x17c;" horiz-adv-x="495" 
d="M53 487h400v-33c-71 -84 -227 -287 -288 -373c36 -1 70 -2 108 -2c108 0 146 9 150 104h30l-5 -183h-419v32c63 62 253 302 300 374c-33 1 -66 2 -101 2c-111 0 -146 -8 -150 -104h-30zM245 678c31 0 56 -24 56 -54c0 -31 -25 -56 -56 -56c-29 0 -54 25 -54 56
c0 30 25 54 54 54z" />
    <glyph glyph-name="aeacute" unicode="&#x1fd;" horiz-adv-x="766" 
d="M728 267h-313c-1 -125 65 -189 149 -189c60 0 107 33 122 90h36c-22 -117 -89 -182 -203 -182c-84 0 -144 54 -171 137c-65 -86 -134 -134 -198 -134c-63 0 -105 35 -105 101c0 73 60 123 141 161c58 27 105 44 130 57c0 15 0 45 -1 65c-3 57 -28 84 -81 84
c-45 0 -81 -26 -81 -56c0 -15 14 -23 14 -50c0 -28 -23 -52 -59 -52c-32 0 -54 20 -54 57c0 63 108 147 232 147c65 0 97 -26 108 -73c37 46 91 73 155 73c139 0 181 -112 181 -193c0 -13 -1 -26 -2 -43zM416 311l183 2c20 1 29 8 29 32c0 64 -31 115 -93 115
c-56 0 -110 -43 -119 -149zM316 260c-99 -20 -167 -69 -167 -134c0 -41 23 -60 59 -60c53 0 101 39 106 126c1 24 2 45 2 68zM459 725h96c15 0 22 -14 6 -25l-179 -162l-29 13z" />
    <glyph glyph-name="iacute_jacute" horiz-adv-x="573" 
d="M31 433v31c51 8 122 25 170 42l6 -4c-2 -60 -5 -167 -5 -261c0 -73 1 -121 2 -157c2 -40 8 -46 47 -51l22 -3v-30h-242v30l20 3c41 6 48 9 50 51c2 50 3 99 3 149c0 53 -2 121 -3 147c-2 41 -7 46 -52 51zM322 433v31c51 8 122 25 170 42l7 -4c-3 -60 -5 -180 -5 -274
s1 -237 1 -299c0 -93 -54 -135 -119 -135c-43 0 -79 23 -104 68l23 21c14 -17 32 -25 47 -25c25 0 47 17 49 53c4 56 4 204 4 309c0 54 -2 134 -3 160c-2 41 -7 46 -52 51zM466 725h96c15 0 22 -14 6 -25l-179 -162l-29 13zM179 725h96c15 0 22 -14 6 -25l-179 -162l-29 13z
" />
    <glyph glyph-name="oslashacute" unicode="&#x1ff;" horiz-adv-x="562" 
d="M301 725h96c15 0 22 -14 6 -25l-179 -162l-29 13zM466 530l41 -26l-54 -69c45 -45 71 -112 71 -191c0 -155 -110 -259 -246 -259c-53 0 -98 13 -135 38l-53 -72l-41 26l57 76c-44 46 -69 111 -69 191c0 153 110 259 247 259c51 0 96 -14 133 -38zM389 351l-196 -261
c25 -42 60 -63 99 -63c69 0 116 75 116 193c0 52 -7 95 -19 131zM172 140l196 261c-25 39 -59 60 -97 60c-70 0 -118 -73 -118 -196c0 -49 7 -91 19 -125z" />
    <glyph glyph-name="dollar" unicode="$" 
d="M257 787h52v-98c77 -2 131 -23 172 -51v-161h-33c-6 118 -70 163 -139 168v-226c89 -47 196 -95 196 -214c0 -108 -92 -177 -196 -191v-97h-52v94c-78 2 -140 22 -182 49v165h33c10 -121 79 -162 149 -167v251c-84 44 -174 90 -174 196c0 91 70 165 174 180v102zM309 279
v-217c56 11 91 49 91 101c0 54 -40 87 -91 116zM257 449v191c-37 -11 -71 -42 -71 -91c0 -44 30 -73 71 -100z" />
    <glyph glyph-name="cent" unicode="&#xa2;" 
d="M287 770h48v-77c110 -1 152 -55 152 -102c0 -36 -25 -56 -54 -56c-30 0 -48 17 -48 54c0 36 -10 60 -50 64v-363c54 0 101 33 117 95h34c-15 -104 -71 -162 -151 -176v-87h-48v84c-108 2 -189 101 -189 229s78 231 189 253v82zM287 648c-52 -16 -90 -81 -90 -167
c0 -97 38 -162 90 -183v350z" />
    <glyph glyph-name="sterling" unicode="&#xa3;" 
d="M45 388h75c-14 35 -25 72 -25 117c0 117 92 204 235 204c86 0 142 -20 188 -52v-172h-32c-6 136 -84 183 -160 183c-63 0 -120 -45 -120 -117c0 -61 21 -113 41 -163h166v-49h-148c9 -28 17 -57 17 -88c0 -65 -30 -118 -88 -165h151c116 0 133 18 141 114h36l-8 -200
h-444v37c87 52 110 89 110 150c0 57 -20 104 -40 152h-95v49z" />
    <glyph glyph-name="yen" unicode="&#xa5;" 
d="M-22 694h255v-32l-20 -3c-27 -4 -39 -12 -39 -27c0 -11 6 -25 15 -44c37 -72 78 -148 118 -227c49 79 90 149 131 225c10 18 15 31 15 41c0 18 -14 26 -43 32l-20 4v31h203v-32l-20 -3c-28 -4 -40 -23 -74 -78c-50 -80 -100 -162 -148 -243h120v-48h-137v-77h119v-48
h-119c1 -22 2 -54 2 -76c2 -41 10 -53 45 -56l31 -3v-30h-256v30l27 3c36 4 48 13 49 56c0 23 0 49 1 76h-115v48h115v77h-133v48h114c-52 84 -103 178 -139 244c-30 58 -46 72 -76 77l-21 3v32z" />
    <glyph glyph-name="florin" unicode="&#x192;" 
d="M159 487h79c24 179 116 231 187 231c50 0 74 -24 74 -65c0 -31 -18 -59 -55 -59c-48 0 -53 47 -91 47c-29 0 -40 -28 -40 -62c0 -42 15 -92 45 -92h108v-48h-127v-513c0 -93 -54 -134 -119 -134c-43 0 -78 22 -103 68l22 21c14 -18 33 -25 48 -25c24 0 46 17 48 52
c4 57 4 243 4 348c0 54 0 129 -1 183h-79v48z" />
    <glyph glyph-name="Euro" unicode="&#x20ac;" 
d="M185 453h245l-11 -48h-242c-3 -22 -3 -39 -3 -56c0 -24 1 -42 4 -65h210l-10 -48h-192c30 -133 112 -199 187 -199c72 0 141 34 149 151h33l-12 -160c-63 -35 -113 -42 -181 -42c-180 0 -317 115 -317 345c0 216 159 377 329 377c69 0 107 -9 169 -38l12 -161h-33
c-8 117 -74 151 -147 151c-75 0 -164 -68 -190 -207z" />
    <glyph glyph-name="numbersign" unicode="#" 
d="M180 694h78l-23 -206h132l23 206h79l-23 -206h116l-8 -63h-116l-18 -161h116l-8 -63h-116l-22 -201h-79l23 201h-132l-23 -201h-78l22 201h-115l8 63h114l19 161h-115l8 63h114zM228 425l-19 -161h132l19 161h-132z" />
    <glyph glyph-name="currency" unicode="&#xa4;" 
d="M36 539l61 60l75 -73c33 22 72 34 117 34s84 -12 117 -34l74 73l63 -63l-73 -73c21 -34 34 -75 34 -119c0 -43 -12 -83 -35 -116l74 -75l-62 -62l-74 75c-33 -21 -74 -36 -118 -36c-43 0 -83 14 -117 35l-75 -75l-62 63l73 75c-22 33 -35 74 -35 116c0 44 14 86 35 120z
M289 483c-77 0 -135 -61 -135 -140c0 -76 58 -138 135 -138c76 0 134 62 134 138c0 79 -58 140 -134 140z" />
    <glyph glyph-name="zero" unicode="0" 
d="M297 709c162 0 235 -162 235 -361c0 -221 -97 -363 -255 -363c-165 0 -238 148 -238 363c0 212 104 361 258 361zM287 587c-112 0 -191 -89 -191 -239c0 -146 69 -241 191 -241c110 0 188 83 188 241c0 133 -53 239 -188 239z" />
    <glyph glyph-name="one" unicode="1" 
d="M75 523v48c95 42 238 110 303 144l10 -5c-8 -99 -12 -291 -12 -362c0 -87 0 -208 2 -259c1 -41 12 -53 52 -56l65 -3v-30h-359v30l70 3c41 4 54 13 55 56c2 88 3 171 3 258s-1 174 -3 252z" />
    <glyph glyph-name="two" unicode="2" 
d="M102 473h-31c21 153 110 236 235 236c138 0 195 -94 195 -179c0 -156 -141 -247 -292 -428c39 -1 99 -3 134 -3c108 0 128 10 151 91h31l-34 -190h-429l-4 46c167 142 332 313 332 439c0 73 -39 128 -129 128c-82 0 -137 -44 -159 -140z" />
    <glyph glyph-name="three" unicode="3" 
d="M103 491h-32c10 149 100 218 220 218c126 0 202 -69 202 -167c0 -78 -58 -140 -134 -162c92 -20 159 -92 159 -182c0 -128 -104 -214 -238 -214c-129 0 -217 69 -219 204h31c3 -74 70 -132 158 -132c92 0 144 58 144 135c0 97 -66 145 -178 145v45c94 0 165 36 165 128
c0 64 -40 118 -131 118c-83 0 -135 -49 -147 -136z" />
    <glyph glyph-name="four" unicode="4" 
d="M93 261h247v295c-84 -95 -166 -192 -247 -295zM391 708h68c-3 -149 -5 -299 -5 -447h78v-77h-78c0 -60 0 -122 2 -184h-121c2 62 2 124 2 184h-298v107c120 130 239 273 352 417z" />
    <glyph glyph-name="five" unicode="5" 
d="M156 585l-25 -190c44 43 101 67 164 67c138 0 216 -88 216 -215c0 -146 -87 -263 -244 -263c-121 0 -198 69 -204 200h32c5 -74 70 -128 142 -128c90 0 153 66 153 173c0 95 -42 163 -137 163c-65 0 -108 -27 -140 -81h-42l44 392c91 -9 202 -14 264 -14s90 6 112 33h33
c-28 -102 -66 -140 -169 -140c-68 0 -134 1 -199 3z" />
    <glyph glyph-name="six" unicode="6" 
d="M287 405c-78 0 -127 -65 -127 -156c0 -140 53 -216 136 -216c70 0 120 54 120 183c0 107 -39 189 -129 189zM454 712l2 -40c-176 -13 -279 -130 -294 -284c47 52 106 91 181 91c128 0 191 -103 191 -223c0 -136 -85 -272 -250 -272c-148 0 -244 117 -244 303
c0 244 147 425 414 425z" />
    <glyph glyph-name="seven" unicode="7" 
d="M79 694h449l8 -52c-91 -198 -180 -422 -261 -642h-121c95 203 196 396 298 586c-39 2 -122 4 -257 4c-76 0 -104 -35 -120 -123h-32z" />
    <glyph glyph-name="eight" unicode="8" 
d="M186 348c-80 32 -130 92 -130 173c0 107 89 188 237 188c136 0 216 -73 216 -162c0 -69 -46 -121 -130 -155c93 -37 154 -103 154 -197c0 -112 -91 -211 -259 -211c-157 0 -237 83 -237 181c0 73 53 143 149 183zM305 414c81 22 110 74 110 134c0 66 -43 118 -126 118
c-85 0 -124 -56 -124 -115c0 -61 44 -110 140 -137zM255 322c-82 -23 -118 -82 -118 -150c0 -80 49 -143 140 -143c94 0 142 60 142 131c0 62 -42 128 -164 162z" />
    <glyph glyph-name="nine" unicode="9" 
d="M275 662c-69 0 -122 -49 -122 -175c0 -105 38 -185 125 -185c80 0 129 55 129 161c0 133 -51 199 -132 199zM115 -15l-2 40c176 12 281 136 296 297c-40 -52 -102 -95 -176 -95c-128 0 -198 102 -198 222c0 147 103 264 250 264c148 0 241 -117 241 -295
c0 -252 -144 -433 -411 -433z" />
    <glyph glyph-name="zeroaltp" horiz-adv-x="613" 
d="M318 709c162 0 235 -162 235 -361c0 -221 -97 -363 -255 -363c-165 0 -238 146 -238 361c0 212 104 363 258 363zM453 513l-241 -380c26 -17 58 -26 96 -26c110 0 186 83 186 241c0 64 -12 122 -41 165zM163 178l241 382c-25 17 -57 27 -96 27c-112 0 -189 -91 -189 -241
c0 -70 15 -127 44 -168z" />
    <glyph glyph-name="zerop" horiz-adv-x="613" 
d="M318 709c162 0 235 -162 235 -361c0 -221 -97 -363 -255 -363c-165 0 -238 148 -238 363c0 212 104 361 258 361zM308 587c-112 0 -191 -89 -191 -239c0 -146 69 -241 191 -241c110 0 188 83 188 241c0 133 -53 239 -188 239z" />
    <glyph glyph-name="onep" horiz-adv-x="439" 
d="M-6 523v48c95 42 238 110 303 144l10 -5c-8 -99 -12 -291 -12 -362c0 -87 0 -208 2 -259c1 -41 12 -53 52 -56l65 -3v-30h-359v30l70 3c41 4 54 13 55 56c2 88 3 171 3 258s-1 174 -3 252z" />
    <glyph glyph-name="twop" horiz-adv-x="539" 
d="M82 473h-31c21 153 110 236 235 236c138 0 195 -94 195 -179c0 -156 -141 -247 -292 -428c39 -1 99 -3 134 -3c108 0 128 10 151 91h31l-34 -190h-429l-4 46c167 142 332 313 332 439c0 73 -39 128 -129 128c-82 0 -137 -44 -159 -140z" />
    <glyph glyph-name="threep" horiz-adv-x="539" 
d="M72 491h-32c10 149 100 218 220 218c126 0 202 -69 202 -167c0 -78 -58 -140 -134 -162c92 -20 159 -92 159 -182c0 -128 -104 -214 -238 -214c-129 0 -217 69 -219 204h31c3 -74 70 -132 158 -132c92 0 144 58 144 135c0 97 -66 145 -178 145v45c94 0 165 36 165 128
c0 64 -40 118 -131 118c-83 0 -135 -49 -147 -136z" />
    <glyph glyph-name="fourp" horiz-adv-x="561" 
d="M74 261h247v295c-84 -95 -166 -192 -247 -295zM372 708h68c-3 -149 -5 -299 -5 -447h78v-77h-78c0 -60 0 -122 2 -184h-121c2 62 2 124 2 184h-298v107c120 130 239 273 352 417z" />
    <glyph glyph-name="fivep" horiz-adv-x="572" 
d="M156 585l-25 -190c44 43 101 67 164 67c138 0 216 -88 216 -215c0 -146 -87 -263 -244 -263c-121 0 -198 69 -204 200h32c5 -74 70 -128 142 -128c90 0 153 66 153 173c0 95 -42 163 -137 163c-65 0 -108 -27 -140 -81h-42l44 392c91 -9 202 -14 264 -14s90 6 112 33h33
c-28 -102 -66 -140 -169 -140c-68 0 -134 1 -199 3z" />
    <glyph glyph-name="sixp" horiz-adv-x="599" 
d="M300 405c-78 0 -127 -65 -127 -156c0 -140 53 -216 136 -216c70 0 120 54 120 183c0 107 -39 189 -129 189zM467 712l2 -40c-176 -13 -279 -130 -294 -284c47 52 106 91 181 91c128 0 191 -103 191 -223c0 -136 -85 -272 -250 -272c-148 0 -244 117 -244 303
c0 244 147 425 414 425z" />
    <glyph glyph-name="sevenp" horiz-adv-x="519" 
d="M49 694h449l8 -52c-91 -198 -180 -422 -261 -642h-121c95 203 196 396 298 586c-39 2 -122 4 -257 4c-76 0 -104 -35 -120 -123h-32z" />
    <glyph glyph-name="eightp" horiz-adv-x="601" 
d="M201 348c-80 32 -130 92 -130 173c0 107 89 188 237 188c136 0 216 -73 216 -162c0 -69 -46 -121 -130 -155c93 -37 154 -103 154 -197c0 -112 -91 -211 -259 -211c-157 0 -237 83 -237 181c0 73 53 143 149 183zM320 414c81 22 110 74 110 134c0 66 -43 118 -126 118
c-85 0 -124 -56 -124 -115c0 -61 44 -110 140 -137zM270 322c-82 -23 -118 -82 -118 -150c0 -80 49 -143 140 -143c94 0 142 60 142 131c0 62 -42 128 -164 162z" />
    <glyph glyph-name="ninep" horiz-adv-x="597" 
d="M293 662c-69 0 -122 -49 -122 -175c0 -105 38 -185 125 -185c80 0 129 55 129 161c0 133 -51 199 -132 199zM133 -15l-2 40c176 12 281 136 296 297c-40 -52 -102 -95 -176 -95c-128 0 -198 102 -198 222c0 147 103 264 250 264c148 0 241 -117 241 -295
c0 -252 -144 -433 -411 -433z" />
    <glyph glyph-name="dollarp" 
d="M255 787h50v-98c77 -2 131 -23 172 -51v-161h-33c-6 118 -71 163 -139 168v-226c89 -47 196 -105 196 -214c0 -108 -92 -177 -196 -191v-97h-50v94c-78 2 -142 22 -184 49v165h33c10 -121 81 -162 151 -167v251c-85 44 -176 93 -176 196c0 91 72 165 176 180v102z
M305 282v-220c57 10 90 50 90 102c0 54 -36 89 -90 118zM255 447v193c-40 -8 -74 -42 -74 -91c0 -44 31 -75 74 -102z" />
    <glyph glyph-name="centp" horiz-adv-x="480" 
d="M244 770h48v-77c110 -1 152 -55 152 -102c0 -36 -25 -56 -54 -56c-30 0 -48 17 -48 54c0 36 -10 60 -50 64v-363c54 0 101 33 117 95h34c-15 -104 -71 -162 -151 -176v-87h-48v84c-108 2 -189 101 -189 229s78 231 189 253v82zM244 648c-52 -16 -90 -81 -90 -167
c0 -97 38 -162 90 -183v350z" />
    <glyph glyph-name="sterlingp" horiz-adv-x="607" 
d="M48 388h76c-14 35 -25 72 -25 117c0 117 92 204 234 204c86 0 142 -20 188 -52v-172h-31c-6 136 -84 183 -160 183c-63 0 -120 -45 -120 -117c0 -61 21 -113 41 -163h166v-49h-149c10 -28 17 -57 17 -88c0 -65 -29 -118 -87 -165h151c115 0 133 18 141 114h35l-7 -200
h-445v37c87 52 111 89 111 150c0 57 -20 104 -40 152h-96v49z" />
    <glyph glyph-name="yenp" horiz-adv-x="689" 
d="M10 694h276v-32l-22 -3c-30 -4 -42 -12 -42 -27c0 -11 6 -25 16 -44c41 -72 85 -148 129 -227c53 79 98 149 144 225c10 18 15 31 15 41c0 18 -14 26 -46 32l-22 4v31h221v-32l-22 -3c-30 -4 -43 -23 -80 -78c-55 -80 -110 -162 -162 -243h130v-48h-152v-77h130v-48h-130
l2 -76c1 -41 11 -53 49 -56l33 -3v-30h-271v30l31 3c38 4 51 13 52 56l2 76h-126v48h126v77h-148v48h123c-56 84 -112 178 -150 244c-33 58 -51 72 -84 77l-22 3v32z" />
    <glyph glyph-name="florinp" horiz-adv-x="341" 
d="M27 487h78c25 179 117 231 187 231c50 0 74 -24 74 -65c0 -31 -17 -59 -54 -59c-48 0 -53 47 -92 47c-28 0 -39 -28 -39 -62c0 -42 14 -92 44 -92h108v-48h-127v-211c0 -94 1 -239 1 -302c0 -93 -54 -134 -120 -134c-42 0 -78 22 -103 68l23 21c13 -18 32 -25 47 -25
c25 0 46 17 49 52c4 57 4 243 4 348c0 54 -1 129 -2 183h-78v48z" />
    <glyph glyph-name="Europ" horiz-adv-x="632" 
d="M191 453h245l-11 -48h-242c-3 -22 -3 -39 -3 -56c0 -24 1 -42 4 -65h210l-10 -48h-192c30 -133 112 -199 187 -199c72 0 141 34 149 151h33l-12 -160c-63 -35 -113 -42 -181 -42c-180 0 -317 115 -317 345c0 216 159 377 329 377c69 0 107 -9 169 -38l12 -161h-33
c-8 117 -74 151 -147 151c-75 0 -164 -68 -190 -207z" />
    <glyph glyph-name="numbersignp" horiz-adv-x="679" 
d="M250 694h84l-48 -206h172l48 206h83l-48 -206h132l-15 -63h-130l-39 -161h132l-15 -63h-130l-47 -201h-84l47 201h-171l-48 -201h-83l47 201h-131l15 63h129l39 161h-130l14 63h129zM273 425l-39 -161h171l39 161h-171z" />
    <glyph glyph-name="zeroop" horiz-adv-x="562" 
d="M292 518c151 0 215 -120 215 -266c0 -158 -86 -267 -232 -267c-155 0 -218 112 -218 265c0 154 92 268 235 268zM282 418c-102 0 -167 -71 -167 -170c0 -96 59 -167 167 -167c98 0 164 63 164 167c0 88 -43 170 -164 170z" />
    <glyph glyph-name="oneop" horiz-adv-x="386" 
d="M274 538l11 -5c-7 -63 -11 -210 -11 -266c0 -74 0 -133 2 -181c2 -37 11 -49 48 -51l60 -5v-30h-334v30l64 5c38 2 48 12 51 51c3 42 3 125 3 189c0 39 -1 110 -3 157l-157 -64v43c22 8 247 118 266 127z" />
    <glyph glyph-name="twoop" horiz-adv-x="534" 
d="M110 304h-31c0 146 88 214 198 214c107 0 173 -56 173 -153c0 -133 -141 -201 -241 -276c29 -2 81 -2 109 -2c102 0 118 7 139 83h30l-29 -170h-406l-1 56c113 52 288 152 288 275c0 66 -39 102 -107 102c-69 0 -120 -40 -122 -129z" />
    <glyph glyph-name="threeop" horiz-adv-x="534" 
d="M76 303h-32c9 150 97 215 217 215c126 0 195 -69 195 -168c0 -79 -55 -140 -131 -162c93 -20 148 -87 148 -178c0 -129 -92 -224 -226 -224c-129 0 -214 66 -216 203h31c3 -75 65 -133 153 -133c97 0 142 66 142 147c0 98 -58 143 -170 143v43c94 0 157 37 157 129
c0 65 -33 121 -123 121c-83 0 -135 -48 -145 -136z" />
    <glyph glyph-name="fourop" horiz-adv-x="572" 
d="M98 74h232v295c-78 -94 -156 -193 -232 -295zM379 516h64c-3 -149 -3 -295 -3 -442h78v-74h-78c0 -61 0 -126 2 -188h-116c2 62 2 127 2 188h-284v100c115 130 230 272 335 416z" />
    <glyph glyph-name="fiveop" horiz-adv-x="566" 
d="M157 400l-23 -196c44 39 93 62 155 62c139 0 210 -94 210 -214c0 -147 -78 -264 -235 -264c-121 0 -193 67 -199 197h32c5 -74 65 -127 137 -127c93 0 149 66 149 177c0 95 -38 166 -133 166c-65 0 -100 -27 -132 -81h-44l41 392c87 -10 191 -14 253 -14s90 6 114 33h31
c-28 -102 -65 -135 -169 -135c-67 0 -122 1 -187 4z" />
    <glyph glyph-name="sixop" horiz-adv-x="593" 
d="M295 407c-79 0 -125 -67 -125 -158c0 -139 52 -214 134 -214c70 0 119 53 119 182c0 107 -38 190 -128 190zM462 712l3 -40c-177 -7 -279 -130 -294 -284c48 53 103 92 177 92c129 0 190 -104 190 -224c0 -136 -81 -270 -246 -270c-148 0 -237 116 -237 302
c0 244 140 424 407 424z" />
    <glyph glyph-name="sevenop" horiz-adv-x="529" 
d="M63 503h421l8 -52c-91 -204 -171 -426 -249 -653h-120c95 216 191 411 289 603c-39 2 -105 4 -233 4c-76 0 -104 -35 -120 -123h-32z" />
    <glyph glyph-name="eightop" horiz-adv-x="603" 
d="M214 351c-80 32 -136 90 -136 171c0 107 91 187 231 187c136 0 210 -71 210 -160c0 -67 -50 -126 -135 -161c94 -37 159 -100 159 -193c0 -112 -85 -210 -253 -210c-157 0 -231 80 -231 178c0 73 57 148 155 188zM325 411c74 24 105 78 105 139c0 66 -42 116 -125 116
c-85 0 -121 -55 -121 -114c0 -65 44 -114 141 -141zM272 325c-71 -23 -117 -87 -117 -155c0 -80 47 -140 138 -140c94 0 139 58 139 130c0 62 -38 127 -160 165z" />
    <glyph glyph-name="nineop" horiz-adv-x="594" 
d="M289 468c-69 0 -122 -50 -122 -176c0 -104 35 -188 123 -188c80 0 131 59 131 164c0 133 -51 200 -132 200zM129 -213l-2 40c176 13 281 141 296 303c-40 -52 -102 -97 -176 -97c-128 0 -191 101 -191 221c0 148 96 264 243 264c148 0 235 -117 235 -295
c0 -252 -138 -436 -405 -436z" />
    <glyph glyph-name="zerooldstyle" unicode="&#xf730;" 
d="M295 518c151 0 215 -120 215 -266c0 -158 -86 -267 -232 -267c-155 0 -218 112 -218 265c0 154 92 268 235 268zM285 418c-102 0 -167 -71 -167 -170c0 -96 59 -167 167 -167c98 0 164 63 164 167c0 88 -43 170 -164 170z" />
    <glyph glyph-name="oneoldstyle" unicode="&#xf731;" 
d="M368 538l11 -5c-7 -63 -11 -210 -11 -266c0 -74 0 -133 2 -181c2 -37 11 -49 48 -51l60 -5v-30h-334v30l64 5c38 2 48 12 51 51c3 42 3 125 3 189c0 39 -1 110 -3 157l-157 -64v43c22 8 247 118 266 127z" />
    <glyph glyph-name="twooldstyle" unicode="&#xf732;" 
d="M127 304h-31c0 146 88 214 198 214c107 0 173 -56 173 -153c0 -133 -141 -201 -241 -276c29 -2 81 -2 109 -2c102 0 118 7 139 83h30l-29 -170h-406l-1 56c113 52 288 152 288 275c0 66 -39 102 -107 102c-69 0 -120 -40 -122 -129z" />
    <glyph glyph-name="threeoldstyle" unicode="&#xf733;" 
d="M100 303h-32c9 150 97 215 217 215c126 0 195 -69 195 -168c0 -79 -55 -140 -131 -162c93 -20 148 -87 148 -178c0 -129 -92 -224 -226 -224c-129 0 -214 66 -216 203h31c3 -75 65 -133 153 -133c97 0 142 66 142 147c0 98 -58 143 -170 143v43c94 0 157 37 157 129
c0 65 -33 121 -123 121c-83 0 -135 -48 -145 -136z" />
    <glyph glyph-name="fouroldstyle" unicode="&#xf734;" 
d="M99 74h232v295c-78 -94 -156 -193 -232 -295zM380 516h64c-3 -149 -3 -295 -3 -442h78v-74h-78c0 -61 0 -126 2 -188h-116c2 62 2 127 2 188h-284v100c115 130 230 272 335 416z" />
    <glyph glyph-name="fiveoldstyle" unicode="&#xf735;" 
d="M160 400l-23 -196c44 39 93 62 155 62c139 0 210 -94 210 -214c0 -147 -78 -264 -235 -264c-121 0 -193 67 -199 197h32c5 -74 65 -127 137 -127c93 0 149 66 149 177c0 95 -38 166 -133 166c-65 0 -100 -27 -132 -81h-44l41 392c87 -10 191 -14 253 -14s90 6 114 33h31
c-28 -102 -65 -135 -169 -135c-67 0 -122 1 -187 4z" />
    <glyph glyph-name="sixoldstyle" unicode="&#xf736;" 
d="M286 407c-79 0 -125 -67 -125 -158c0 -139 52 -214 134 -214c70 0 119 53 119 182c0 107 -38 190 -128 190zM453 712l3 -40c-177 -7 -279 -130 -294 -284c48 53 103 92 177 92c129 0 190 -104 190 -224c0 -136 -81 -270 -246 -270c-148 0 -237 116 -237 302
c0 244 140 424 407 424z" />
    <glyph glyph-name="sevenoldstyle" unicode="&#xf737;" 
d="M94 503h421l8 -52c-91 -204 -171 -426 -249 -653h-120c95 216 191 411 289 603c-39 2 -105 4 -233 4c-76 0 -104 -35 -120 -123h-32z" />
    <glyph glyph-name="eightoldstyle" unicode="&#xf738;" 
d="M198 351c-80 32 -136 90 -136 171c0 107 91 187 231 187c136 0 210 -71 210 -160c0 -67 -50 -126 -135 -161c94 -37 159 -100 159 -193c0 -112 -85 -210 -253 -210c-157 0 -231 80 -231 178c0 73 57 148 155 188zM309 411c74 24 105 78 105 139c0 66 -42 116 -125 116
c-85 0 -121 -55 -121 -114c0 -65 44 -114 141 -141zM256 325c-71 -23 -117 -87 -117 -155c0 -80 47 -140 138 -140c94 0 139 58 139 130c0 62 -38 127 -160 165z" />
    <glyph glyph-name="nineoldstyle" unicode="&#xf739;" 
d="M275 468c-69 0 -122 -50 -122 -176c0 -104 35 -188 123 -188c80 0 131 59 131 164c0 133 -51 200 -132 200zM115 -213l-2 40c176 13 281 141 296 303c-40 -52 -102 -97 -176 -97c-128 0 -191 101 -191 221c0 148 96 264 243 264c148 0 235 -117 235 -295
c0 -252 -138 -436 -405 -436z" />
    <glyph glyph-name="ampersand" unicode="&#x26;" horiz-adv-x="809" 
d="M546 406h226v-31l-28 -2c-22 -4 -30 -13 -48 -55c-35 -86 -80 -155 -134 -210c46 -32 90 -49 133 -49c25 0 52 12 74 33l21 -25c-37 -44 -86 -81 -149 -81c-53 0 -111 21 -166 58c-61 -40 -130 -59 -208 -59c-151 0 -230 78 -230 180c0 93 66 162 171 201
c-24 52 -40 108 -40 154c0 125 94 189 203 189c89 0 167 -49 167 -138c0 -94 -73 -156 -206 -202c46 -84 117 -172 193 -234c64 65 95 147 95 206c0 19 -11 31 -38 32l-36 2v31zM313 405c97 38 140 95 140 161c0 63 -39 97 -89 97c-56 0 -93 -36 -93 -110
c0 -43 16 -95 42 -148zM437 72c-82 65 -162 159 -212 257c-54 -27 -76 -71 -76 -138c0 -81 49 -156 150 -156c49 0 96 14 138 37z" />
    <glyph glyph-name="onesuperior" unicode="&#xb9;" horiz-adv-x="390" 
d="M51 707v42c60 26 156 71 197 92l13 -6c-5 -61 -7 -183 -7 -229c0 -55 0 -128 1 -160c0 -21 6 -29 27 -30l47 -3v-29h-239v29l50 2c21 2 28 8 29 31c1 48 2 111 2 159c0 54 -1 100 -2 150z" />
    <glyph glyph-name="twosuperior" unicode="&#xb2;" horiz-adv-x="390" 
d="M78 680h-31c14 102 73 157 154 157c92 0 130 -61 130 -117c0 -73 -52 -123 -116 -190c-24 -25 -44 -46 -65 -73h75c65 0 76 5 91 57h30l-23 -130h-281l-3 36c106 89 210 194 210 271c0 43 -23 76 -76 76c-48 0 -82 -27 -95 -87z" />
    <glyph glyph-name="threesuperior" unicode="&#xb3;" horiz-adv-x="390" 
d="M83 691h-31c7 100 66 146 144 146c83 0 135 -48 135 -111c0 -47 -31 -82 -73 -100c52 -17 87 -61 87 -114c0 -83 -68 -139 -155 -139c-85 0 -143 46 -145 138h32c2 -46 41 -81 93 -81c54 0 86 32 86 78c0 58 -42 85 -113 85v38c60 0 105 22 105 75c0 39 -25 69 -77 69
c-49 0 -81 -29 -88 -84z" />
    <glyph glyph-name="percent" unicode="%" horiz-adv-x="839" 
d="M647 700l45 -30l-517 -694l-45 30zM645 421c99 0 143 -96 143 -215c0 -132 -58 -216 -154 -216c-101 0 -145 87 -145 216c0 126 62 215 156 215zM640 340c-64 0 -106 -50 -106 -134c0 -83 38 -135 106 -135c60 0 103 47 103 135c0 75 -28 134 -103 134zM206 710
c99 0 143 -98 143 -216c0 -132 -58 -216 -154 -216c-101 0 -145 88 -145 216c0 126 62 216 156 216zM201 628c-64 0 -106 -50 -106 -134c0 -83 38 -135 106 -135c60 0 103 46 103 135c0 75 -28 134 -103 134z" />
    <glyph glyph-name="perthousand" unicode="&#x2030;" horiz-adv-x="1199" 
d="M647 700l45 -30l-517 -694l-45 30zM645 421c99 0 143 -96 143 -215c0 -132 -58 -216 -154 -216c-101 0 -145 87 -145 216c0 126 62 215 156 215zM640 340c-64 0 -106 -50 -106 -134c0 -83 38 -135 106 -135c60 0 103 47 103 135c0 75 -28 134 -103 134zM1006 421
c99 0 143 -96 143 -215c0 -132 -58 -216 -154 -216c-101 0 -145 87 -145 216c0 126 62 215 156 215zM1001 340c-64 0 -106 -50 -106 -134c0 -83 38 -135 106 -135c60 0 103 47 103 135c0 75 -28 134 -103 134zM206 710c99 0 143 -98 143 -216c0 -132 -58 -216 -154 -216
c-101 0 -145 88 -145 216c0 126 62 216 156 216zM201 628c-64 0 -106 -50 -106 -134c0 -83 38 -135 106 -135c60 0 103 46 103 135c0 75 -28 134 -103 134z" />
    <glyph glyph-name="fraction" unicode="&#x2044;" horiz-adv-x="257" 
d="M365 700l45 -30l-517 -694l-45 30z" />
    <glyph glyph-name="fraction" unicode="&#x2215;" horiz-adv-x="257" 
d="M365 700l45 -30l-517 -694l-45 30z" />
    <glyph glyph-name="asciicircum" unicode="^" horiz-adv-x="500" 
d="M211 725h77l160 -379h-69l-129 310l-129 -310h-70z" />
    <glyph glyph-name="asciitilde" unicode="~" horiz-adv-x="598" 
d="M191 560c103 0 149 -116 237 -116c57 0 87 28 109 64l31 -20c-36 -81 -84 -124 -156 -124c-104 0 -159 122 -251 122c-49 0 -80 -23 -99 -62l-35 18c43 83 99 118 164 118z" />
    <glyph glyph-name="periodcentered" unicode="&#xb7;" horiz-adv-x="339" 
d="M169 361c42 0 74 -32 74 -74c0 -41 -32 -74 -74 -74c-41 0 -73 33 -73 74c0 42 32 74 73 74z" />
    <glyph glyph-name="periodcentered" unicode="&#x2219;" horiz-adv-x="339" 
d="M169 361c42 0 74 -32 74 -74c0 -41 -32 -74 -74 -74c-41 0 -73 33 -73 74c0 42 32 74 73 74z" />
    <glyph glyph-name="plus" unicode="+" horiz-adv-x="650" 
d="M285 538h78v-236h237v-78h-237v-236h-78v236h-235v78h235v236z" />
    <glyph glyph-name="multiply" unicode="&#xd7;" horiz-adv-x="584" 
d="M105 505l187 -187l187 187l55 -55l-187 -186l187 -188l-54 -55l-188 187l-187 -187l-55 55l186 188l-185 186z" />
    <glyph glyph-name="plusminus" unicode="&#xb1;" horiz-adv-x="650" 
d="M285 678h78v-236h237v-78h-237v-236h-78v236h-235v78h235v236zM50 78h550v-78h-550v78z" />
    <glyph glyph-name="less" unicode="&#x3c;" horiz-adv-x="601" 
d="M50 315l501 237v-87l-411 -191l411 -191v-89l-501 237v84z" />
    <glyph glyph-name="equal" unicode="=" horiz-adv-x="650" 
d="M50 420h550v-78h-550v78zM50 210h550v-78h-550v78z" />
    <glyph glyph-name="greater" unicode="&#x3e;" horiz-adv-x="601" 
d="M50 552l501 -237v-84l-501 -237v88l410 191l-410 191v88z" />
    <glyph glyph-name="approxequal" unicode="&#x2248;" horiz-adv-x="641" 
d="M214 485c103 0 149 -116 237 -116c57 0 87 28 109 64l31 -20c-36 -81 -84 -124 -156 -124c-104 0 -159 122 -251 122c-49 0 -80 -23 -99 -62l-35 18c43 83 99 118 164 118zM214 272c103 0 149 -116 237 -116c57 0 87 28 109 64l31 -20c-36 -81 -84 -124 -156 -124
c-104 0 -159 122 -251 122c-49 0 -80 -23 -99 -62l-35 18c43 83 99 118 164 118z" />
    <glyph glyph-name="notequal" unicode="&#x2260;" horiz-adv-x="650" 
d="M50 420h333l84 109h95l-83 -109h121v-78h-178l-102 -132h280v-78h-337l-87 -114h-96l86 114h-116v78h173l103 132h-276v78z" />
    <glyph glyph-name="divide" unicode="&#xf7;" horiz-adv-x="650" 
d="M325 136c39 0 71 -31 71 -71s-32 -71 -71 -71c-40 0 -71 31 -71 71s31 71 71 71zM324 549c40 0 71 -31 71 -72c0 -40 -31 -71 -71 -71s-71 31 -71 71c0 41 31 72 71 72zM50 310h550v-78h-550v78z" />
    <glyph glyph-name="minus" unicode="&#x2212;" horiz-adv-x="650" 
d="M50 310h550v-78h-550v78z" />
    <glyph glyph-name="partialdiff" unicode="&#x2202;" horiz-adv-x="568" 
d="M124 680l2 38c250 0 402 -162 402 -412c0 -187 -114 -321 -282 -321c-141 0 -209 104 -209 235c0 142 98 266 239 266c57 0 101 -24 129 -75c-25 152 -117 256 -281 269zM286 433c-92 0 -135 -66 -135 -182c0 -134 56 -212 128 -212c82 0 133 77 133 215
c0 110 -51 179 -126 179z" />
    <glyph glyph-name="mu" unicode="&#xb5;" horiz-adv-x="595" 
d="M19 487h177c-4 -58 -7 -144 -7 -200c0 -42 1 -87 2 -132c4 -69 25 -93 77 -93c68 0 128 43 133 135c2 35 2 67 2 102s0 67 -2 103c-2 41 -6 46 -45 51l-21 3v31h171c-2 -60 -4 -163 -4 -231c0 -50 1 -123 4 -172c3 -40 7 -46 49 -51l22 -3v-30h-174v79
c-47 -38 -122 -95 -195 -95c-19 0 -38 4 -52 11l16 -197h-104c16 158 23 340 23 479c0 42 0 83 -2 125c-2 41 -7 46 -47 51l-23 3v31z" />
    <glyph glyph-name="mu" unicode="&#x3bc;" horiz-adv-x="595" 
d="M19 487h177c-4 -58 -7 -144 -7 -200c0 -42 1 -87 2 -132c4 -69 25 -93 77 -93c68 0 128 43 133 135c2 35 2 67 2 102s0 67 -2 103c-2 41 -6 46 -45 51l-21 3v31h171c-2 -60 -4 -163 -4 -231c0 -50 1 -123 4 -172c3 -40 7 -46 49 -51l22 -3v-30h-174v79
c-47 -38 -122 -95 -195 -95c-19 0 -38 4 -52 11l16 -197h-104c16 158 23 340 23 479c0 42 0 83 -2 125c-2 41 -7 46 -47 51l-23 3v31z" />
    <glyph glyph-name="pi" unicode="&#x3c0;" horiz-adv-x="664" 
d="M14 382l92 79c17 13 36 26 66 26h458l-11 -81h-112c-3 -49 -4 -96 -4 -147c0 -80 3 -154 4 -170c2 -29 13 -40 37 -40c13 0 33 3 59 12v-40c-46 -21 -91 -36 -129 -36c-60 0 -75 34 -75 93c0 38 5 113 5 202c0 41 -1 81 -4 126h-146v-402c0 -13 -30 -19 -65 -19
c-36 0 -65 8 -62 22l76 399h-42c-30 0 -90 -30 -131 -51z" />
    <glyph glyph-name="Delta" unicode="&#x394;" horiz-adv-x="648" 
d="M306 711h35l296 -711h-629zM300 552l-184 -455l377 -1z" />
    <glyph glyph-name="Delta" unicode="&#x2206;" horiz-adv-x="648" 
d="M306 711h35l296 -711h-629zM300 552l-184 -455l377 -1z" />
    <glyph glyph-name="product" unicode="&#x220f;" horiz-adv-x="752" 
d="M27 694h698v-32l-35 -3c-40 -3 -50 -15 -52 -56c-3 -75 -6 -186 -6 -257c0 -87 0 -206 2 -257c1 -41 12 -53 52 -56l35 -3v-30h-291v30l32 3c41 4 54 13 55 56c2 88 3 172 3 259s-1 161 -3 247c-1 43 -14 52 -55 52h-174c-40 0 -50 -11 -52 -52c-3 -75 -6 -178 -6 -249
c0 -87 0 -206 2 -257c1 -41 12 -53 52 -56l35 -3v-30h-292v30l32 3c41 4 54 13 55 56c2 88 3 172 3 259s-1 169 -3 255c-1 43 -14 52 -55 56l-32 3v32z" />
    <glyph glyph-name="summation" unicode="&#x2211;" horiz-adv-x="678" 
d="M48 694h536l9 -209h-37c-8 88 -25 108 -109 108c-80 0 -202 0 -259 -2c46 -62 133 -170 180 -232c-53 -70 -148 -191 -195 -255c62 -1 212 -3 248 -3c124 0 140 19 149 119h37l-11 -220h-574v42c89 106 175 211 260 317c-77 98 -155 197 -234 293v42z" />
    <glyph glyph-name="Omega" unicode="&#x3a9;" horiz-adv-x="853" 
d="M19 147h31c29 -50 39 -60 107 -60h87c-61 47 -133 163 -133 273c0 188 128 350 320 350c197 0 306 -156 306 -329c0 -98 -69 -226 -130 -294h89c68 0 78 10 107 60h31l-25 -147h-310v35c69 61 114 154 114 286c0 197 -76 342 -200 342c-111 0 -178 -135 -178 -277
c0 -183 45 -277 118 -351v-35h-309z" />
    <glyph glyph-name="Omega" unicode="&#x2126;" horiz-adv-x="853" 
d="M19 147h31c29 -50 39 -60 107 -60h87c-61 47 -133 163 -133 273c0 188 128 350 320 350c197 0 306 -156 306 -329c0 -98 -69 -226 -130 -294h89c68 0 78 10 107 60h31l-25 -147h-310v35c69 61 114 154 114 286c0 197 -76 342 -200 342c-111 0 -178 -135 -178 -277
c0 -183 45 -277 118 -351v-35h-309z" />
    <glyph glyph-name="radical" unicode="&#x221a;" horiz-adv-x="613" 
d="M-1 422h168l125 -301l269 608h70l-329 -729h-67l-168 370h-68v52z" />
    <glyph glyph-name="infinity" unicode="&#x221e;" horiz-adv-x="618" 
d="M325 429c32 70 80 104 133 104c73 0 134 -61 134 -183c0 -130 -73 -200 -156 -200c-66 0 -115 41 -143 108c-32 -70 -80 -104 -133 -104c-73 0 -134 61 -134 183c0 129 73 200 156 200c67 0 116 -42 143 -108zM269 326c-24 90 -70 117 -112 117c-50 0 -90 -35 -90 -104
c0 -66 43 -102 99 -102c47 0 87 25 103 89zM350 360c23 -90 69 -116 112 -116c49 0 89 35 89 104c0 65 -43 101 -98 101c-48 0 -88 -25 -103 -89z" />
    <glyph glyph-name="lozenge" unicode="&#x25ca;" horiz-adv-x="598" 
d="M258 698h79l212 -446l-212 -452h-79l-210 448zM296 605l-168 -349l174 -362l166 349z" />
    <glyph glyph-name="logicalnot" unicode="&#xac;" horiz-adv-x="716" 
d="M44 325h627v-325h-85v263h-542v62z" />
    <glyph glyph-name="bar" unicode="|" horiz-adv-x="384" 
d="M150 694h84v-896h-84v896z" />
    <glyph glyph-name="brokenbar" unicode="&#xa6;" horiz-adv-x="380" 
d="M150 185h80v-383h-80v383zM150 694h80v-353h-80v353z" />
    <glyph glyph-name="degree" unicode="&#xb0;" horiz-adv-x="426" 
d="M222 713c97 0 168 -73 168 -187c0 -117 -76 -208 -183 -208c-96 0 -171 70 -171 186c0 124 84 209 186 209zM212 661c-59 0 -93 -61 -93 -138c0 -86 34 -153 93 -153s94 58 94 136c0 90 -35 155 -94 155z" />
    <glyph glyph-name="minute" unicode="&#x2032;" horiz-adv-x="243" 
d="M174 681l-42 -202h-28l-36 202c-5 28 13 41 51 41c39 0 61 -14 55 -41z" />
    <glyph glyph-name="second" unicode="&#x2033;" horiz-adv-x="411" 
d="M174 681l-42 -202h-28l-36 202c-5 28 13 41 51 41c39 0 61 -14 55 -41zM342 681l-42 -202h-28l-36 202c-5 28 13 41 51 41c39 0 61 -14 55 -41z" />
    <glyph glyph-name="ordfeminine" unicode="&#xaa;" horiz-adv-x="397" 
d="M238 554c-60 -11 -118 -46 -118 -90c0 -28 15 -41 40 -41c38 0 73 26 77 87c0 14 1 33 1 44zM219 739c71 0 107 -34 107 -93c0 -51 -8 -115 -8 -186c0 -24 13 -34 27 -34c12 0 24 6 33 15l18 -19c-23 -36 -56 -62 -89 -62c-44 0 -60 21 -63 67c-41 -41 -80 -68 -128 -68
c-51 0 -84 26 -84 79c0 55 52 92 109 119c32 14 64 24 97 39c0 9 0 34 -1 45c-1 38 -20 56 -57 56c-33 0 -57 -16 -57 -36c0 -14 10 -19 10 -36c0 -23 -20 -42 -49 -42c-26 0 -45 15 -45 46c0 47 85 110 180 110z" />
    <glyph glyph-name="ordmasculine" unicode="&#xba;" horiz-adv-x="432" 
d="M217 739c112 0 186 -79 186 -192s-85 -191 -191 -191c-111 0 -185 78 -185 191s85 192 190 192zM207 701c-51 0 -85 -53 -85 -138c0 -108 44 -169 101 -169c50 0 85 53 85 136c0 112 -44 171 -101 171z" />
    <glyph glyph-name="underscore" unicode="_" horiz-adv-x="520" 
d="M43 -63h434v-62h-434v62z" />
    <glyph glyph-name="emdash" unicode="&#x2014;" horiz-adv-x="932" 
d="M43 320h845v-62h-845v62z" />
    <glyph glyph-name="endash" unicode="&#x2013;" horiz-adv-x="670" 
d="M43 320h584v-62h-584v62z" />
    <glyph glyph-name="hyphen" unicode="-" horiz-adv-x="291" 
d="M43 322h205v-67h-205v67z" />
    <glyph glyph-name="hyphen" unicode="&#xad;" horiz-adv-x="291" 
d="M43 322h205v-67h-205v67z" />
    <glyph glyph-name="quotesingle" unicode="'" horiz-adv-x="243" 
d="M174 681l-42 -202h-28l-36 202c-5 28 13 41 51 41c39 0 61 -14 55 -41z" />
    <glyph glyph-name="quotedbl" unicode="&#x22;" horiz-adv-x="411" 
d="M174 681l-42 -202h-28l-36 202c-5 28 13 41 51 41c39 0 61 -14 55 -41zM342 681l-42 -202h-28l-36 202c-5 28 13 41 51 41c39 0 61 -14 55 -41z" />
    <glyph glyph-name="quotedblleft" unicode="&#x201c;" horiz-adv-x="468" 
d="M383 793l15 -27c-50 -24 -71 -70 -71 -101c0 -18 8 -32 30 -32c35 0 57 -22 57 -54c0 -34 -26 -64 -65 -64c-57 0 -88 45 -88 100c0 61 38 135 122 178zM178 793l15 -27c-50 -24 -71 -70 -71 -101c0 -18 8 -32 30 -32c35 0 57 -22 57 -54c0 -34 -26 -64 -65 -64
c-57 0 -88 45 -88 100c0 61 38 135 122 178z" />
    <glyph glyph-name="guillemotleft" unicode="&#xab;" horiz-adv-x="532" 
d="M248 280l230 215l28 -28l-145 -214l145 -211l-30 -25l-227 209c-6 6 -8 16 -8 29c0 11 2 21 7 25zM33 280l230 215l28 -28l-145 -214l145 -211l-30 -25l-227 209c-6 6 -8 16 -8 29c0 11 2 21 7 25z" />
    <glyph glyph-name="guilsinglleft" unicode="&#x2039;" horiz-adv-x="317" 
d="M33 280l230 215l28 -28l-145 -214l145 -211l-30 -25l-227 209c-6 6 -8 16 -8 29c0 11 2 21 7 25z" />
    <glyph glyph-name="guilsinglright" unicode="&#x203a;" horiz-adv-x="317" 
d="M26 469l31 26l227 -210c5 -5 7 -16 7 -28s-2 -21 -6 -25l-231 -215l-28 27l145 215z" />
    <glyph glyph-name="guillemotright" unicode="&#xbb;" horiz-adv-x="532" 
d="M26 469l31 26l227 -210c5 -5 7 -16 7 -28s-2 -21 -6 -25l-231 -215l-28 27l145 215zM241 469l31 26l227 -210c5 -5 7 -16 7 -28s-2 -21 -6 -25l-231 -215l-28 27l145 215z" />
    <glyph glyph-name="quotesinglbase" unicode="&#x201a;" horiz-adv-x="263" 
d="M88 -171l-16 27c51 24 72 70 72 101c0 18 -8 32 -31 32c-34 0 -57 22 -57 54c0 34 27 64 65 64c57 0 88 -45 88 -100c0 -61 -38 -135 -121 -178z" />
    <glyph glyph-name="quotedblbase" unicode="&#x201e;" horiz-adv-x="468" 
d="M88 -171l-16 27c51 24 72 70 72 101c0 18 -8 32 -31 32c-34 0 -57 22 -57 54c0 34 27 64 65 64c57 0 88 -45 88 -100c0 -61 -38 -135 -121 -178zM293 -171l-16 27c51 24 72 70 72 101c0 18 -8 32 -31 32c-34 0 -57 22 -57 54c0 34 27 64 65 64c57 0 88 -45 88 -100
c0 -61 -38 -135 -121 -178z" />
    <glyph glyph-name="quotedblright" unicode="&#x201d;" horiz-adv-x="468" 
d="M88 457l-16 27c51 24 72 70 72 101c0 19 -8 32 -31 32c-34 0 -57 22 -57 54c0 34 27 64 65 64c57 0 88 -45 88 -100c0 -61 -38 -135 -121 -178zM293 457l-16 27c51 24 72 70 72 101c0 19 -8 32 -31 32c-34 0 -57 22 -57 54c0 34 27 64 65 64c57 0 88 -45 88 -100
c0 -61 -38 -135 -121 -178z" />
    <glyph glyph-name="quoteright" unicode="&#x2019;" horiz-adv-x="263" 
d="M88 457l-16 27c51 24 72 70 72 101c0 19 -8 32 -31 32c-34 0 -57 22 -57 54c0 34 27 64 65 64c57 0 88 -45 88 -100c0 -61 -38 -135 -121 -178z" />
    <glyph glyph-name="quoteleft" unicode="&#x2018;" horiz-adv-x="263" 
d="M177 793l16 -27c-51 -24 -72 -70 -72 -101c0 -18 8 -32 30 -32c35 0 57 -22 57 -54c0 -34 -26 -64 -64 -64c-58 0 -88 45 -88 100c0 61 37 135 121 178z" />
    <glyph glyph-name="comma" unicode="," horiz-adv-x="250" 
d="M74 -194l-13 31c61 20 101 73 101 121c0 33 -11 48 -43 48c-40 0 -63 25 -63 60c0 34 27 65 67 65c64 0 101 -50 101 -130c0 -81 -51 -164 -150 -195z" />
    <glyph glyph-name="period" unicode="." horiz-adv-x="254" 
d="M127 130c39 0 69 -30 69 -69s-30 -70 -69 -70s-69 31 -69 70s30 69 69 69z" />
    <glyph glyph-name="colon" unicode=":" horiz-adv-x="254" 
d="M127 130c39 0 69 -30 69 -69s-30 -70 -69 -70s-69 31 -69 70s30 69 69 69zM127 513c39 0 69 -30 69 -70c0 -38 -30 -69 -69 -69s-69 31 -69 69c0 40 30 70 69 70z" />
    <glyph glyph-name="semicolon" unicode=";" horiz-adv-x="266" 
d="M127 513c40 0 70 -30 70 -70c0 -38 -30 -69 -70 -69c-38 0 -68 31 -68 69c0 40 30 70 68 70zM74 -194l-13 31c61 20 101 73 101 121c0 33 -11 48 -43 48c-40 0 -63 25 -63 60c0 34 27 65 67 65c64 0 101 -50 101 -130c0 -81 -51 -164 -150 -195z" />
    <glyph glyph-name="ellipsis" unicode="&#x2026;" horiz-adv-x="953" 
d="M136 130c40 0 70 -30 70 -69s-30 -70 -70 -70c-39 0 -69 31 -69 70s30 69 69 69zM476 130c40 0 70 -30 70 -69s-30 -70 -70 -70c-39 0 -69 31 -69 70s30 69 69 69zM816 130c40 0 70 -30 70 -69s-30 -70 -70 -70c-39 0 -69 31 -69 70s30 69 69 69z" />
    <glyph glyph-name="question" unicode="?" horiz-adv-x="473" 
d="M58 496h-30c9 144 99 213 212 213c120 0 185 -76 185 -171c0 -176 -208 -239 -217 -346h-36c0 115 135 180 135 321c0 67 -39 114 -115 114c-73 0 -124 -44 -134 -131zM158 76c13 22 40 31 63 18c22 -14 31 -41 18 -62c-13 -23 -40 -32 -63 -19c-22 13 -31 41 -18 63z
" />
    <glyph glyph-name="questiondown" unicode="&#xbf;" horiz-adv-x="473" 
d="M245 301h36c0 -115 -135 -180 -135 -321c0 -67 39 -114 115 -114c73 0 124 45 134 131h30c-9 -144 -98 -213 -212 -213c-120 0 -185 76 -185 171c0 177 208 239 217 346zM255 502c35 0 62 -27 62 -63c0 -34 -27 -62 -62 -62c-36 0 -63 28 -63 62c0 36 27 63 63 63z" />
    <glyph glyph-name="exclam" unicode="!" horiz-adv-x="345" 
d="M111 760h123l-40 -571h-42zM133 76c13 22 40 31 62 18c23 -14 32 -41 19 -62c-14 -23 -41 -32 -63 -19c-23 13 -32 41 -18 63z" />
    <glyph glyph-name="exclamdown" unicode="&#xa1;" horiz-adv-x="345" 
d="M152 305h42l40 -571h-123zM172 503c36 0 63 -27 63 -63c0 -35 -27 -62 -63 -62c-35 0 -63 27 -63 62c0 36 28 63 63 63z" />
    <glyph glyph-name="parenleft" unicode="(" horiz-adv-x="395" 
d="M366 742l13 -32c-138 -67 -197 -213 -197 -441c0 -243 68 -396 197 -457l-14 -31c-180 61 -295 242 -295 480c0 235 105 420 296 481z" />
    <glyph glyph-name="parenright" unicode=")" horiz-adv-x="395" 
d="M13 710l14 32c180 -61 294 -242 294 -480c0 -235 -105 -420 -295 -481l-13 31c138 68 197 214 197 442c0 243 -68 395 -197 456z" />
    <glyph glyph-name="bracketleft" unicode="[" horiz-adv-x="373" 
d="M101 736h254v-37h-153v-875h153v-36h-254v948z" />
    <glyph glyph-name="bracketright" unicode="]" horiz-adv-x="373" 
d="M18 736h254v-948h-254v36h153v875h-153v37z" />
    <glyph glyph-name="braceleft" unicode="{" horiz-adv-x="413" 
d="M400 742v-36c-138 0 -157 -81 -157 -169c0 -49 10 -102 10 -146c0 -66 -30 -116 -106 -125c76 -11 105 -62 105 -126c0 -43 -10 -97 -10 -145c0 -90 20 -176 159 -176v-36c-192 0 -257 94 -257 210c0 44 9 94 9 131c0 71 -17 121 -96 121l-1 40c78 0 96 49 96 122
c0 36 -8 85 -8 130c0 106 62 205 256 205z" />
    <glyph glyph-name="braceright" unicode="}" horiz-adv-x="413" 
d="M12 706v36c192 0 257 -94 257 -210c0 -44 -9 -94 -9 -131c0 -71 17 -120 96 -120l1 -41c-78 0 -96 -49 -96 -122c0 -36 8 -85 8 -130c0 -106 -62 -205 -256 -205v36c138 0 157 81 157 169c0 49 -10 102 -10 146c0 66 30 116 106 125c-76 11 -105 62 -105 126
c0 43 10 97 10 145c0 90 -20 176 -159 176z" />
    <glyph glyph-name="slash" unicode="/" horiz-adv-x="474" 
d="M393 794h71l-383 -866h-71z" />
    <glyph glyph-name="backslash" unicode="\" horiz-adv-x="474" 
d="M10 794h71l383 -866h-71z" />
    <glyph glyph-name="asterisk" unicode="*" horiz-adv-x="405" 
d="M155 696l47 -111l47 111c6 16 17 21 30 21c25 0 51 -21 51 -44c0 -9 -3 -18 -13 -26l-88 -81l122 -10c23 -2 33 -19 33 -38c0 -23 -16 -49 -39 -49c-6 0 -12 2 -20 6l-108 61l30 -121c1 -4 1 -8 1 -11c0 -24 -23 -37 -46 -37c-21 0 -42 12 -42 37c0 3 1 7 2 11l24 120
l-106 -60c-8 -5 -14 -6 -21 -6c-23 0 -38 26 -38 49c0 19 10 36 32 38l121 10l-87 81c-10 8 -14 17 -14 26c0 23 27 45 51 45c13 0 25 -6 31 -22z" />
    <glyph glyph-name="bullet" unicode="&#x2022;" horiz-adv-x="545" 
d="M210 489c89 37 192 -7 229 -97c37 -88 -7 -192 -95 -229c-90 -36 -193 7 -230 96c-37 90 6 193 96 230z" />
    <glyph glyph-name="section" unicode="&#xa7;" horiz-adv-x="640" 
d="M345 708c48 0 85 -13 118 -32v-115h-36c-3 60 -27 104 -97 105c-52 0 -83 -33 -83 -80c0 -81 79 -125 163 -173c97 -55 200 -115 200 -242c0 -79 -55 -153 -129 -181c2 -11 4 -23 4 -37c0 -94 -75 -166 -190 -166c-48 0 -86 13 -120 32v115h38c2 -60 26 -104 97 -105
c51 0 83 33 83 80c0 83 -83 127 -170 177c-95 55 -193 114 -193 238c0 80 54 153 128 180c-2 11 -3 25 -3 38c0 94 75 166 190 166zM168 473c-35 -21 -50 -56 -50 -95c0 -87 81 -138 166 -189c77 -47 157 -94 187 -167c35 21 50 56 50 95c0 89 -82 139 -170 192
c-75 46 -152 93 -183 164z" />
    <glyph glyph-name="dagger" unicode="&#x2020;" horiz-adv-x="507" 
d="M237 515c-1 61 -38 116 -38 166c0 33 33 33 59 33c25 0 56 0 56 -33c0 -53 -39 -105 -40 -166c66 4 123 38 171 38c33 0 33 -33 33 -59c0 -25 0 -56 -33 -56c-54 0 -104 38 -171 39c0 -59 40 -115 40 -167c0 -31 -34 -31 -60 -31c-24 0 -55 0 -55 31c0 53 37 108 38 167
c-60 -1 -126 -39 -171 -39c-32 0 -32 34 -32 60c0 24 0 55 32 55c57 0 109 -37 171 -38z" />
    <glyph glyph-name="daggerdbl" unicode="&#x2021;" horiz-adv-x="513" 
d="M237 515c-1 61 -38 111 -38 166c0 33 33 33 59 33c25 0 56 0 56 -33c0 -53 -38 -105 -40 -166c63 0 123 38 171 38c33 0 33 -33 33 -59c0 -25 0 -56 -33 -56c-54 0 -107 38 -171 39c1 -56 40 -94 40 -143c0 -44 -39 -96 -40 -148c60 2 121 39 171 39c33 0 33 -32 33 -58
c0 -25 0 -56 -33 -56c-53 0 -110 36 -171 39c0 -60 40 -115 40 -167c0 -33 -33 -33 -59 -33c-25 0 -56 0 -56 33c0 49 37 107 38 167c-62 -1 -112 -39 -171 -39c-32 0 -32 33 -32 58c0 24 0 56 32 56c54 0 110 -37 171 -39c-1 54 -38 98 -38 148c0 47 37 88 38 143
c-59 -2 -126 -39 -171 -39c-32 0 -32 34 -32 60c0 24 0 55 32 55c57 0 110 -37 171 -38z" />
    <glyph glyph-name="paragraph" unicode="&#xb6;" horiz-adv-x="630" 
d="M279 694h312v-32l-32 -3c-42 -4 -55 -13 -56 -57c-2 -89 -3 -175 -3 -304c0 -151 1 -170 1 -298h-114c1 144 1 427 1 641h-53v-355c-15 -4 -44 -5 -65 -5c-136 0 -214 76 -214 199c0 121 75 214 223 214z" />
    <glyph glyph-name="copyright" unicode="&#xa9;" horiz-adv-x="827" 
d="M433 708c201 0 345 -153 345 -353c0 -199 -184 -371 -385 -371c-199 0 -344 150 -344 349c0 201 185 375 384 375zM423 659c-174 0 -311 -133 -311 -307c0 -175 115 -318 291 -318c178 0 312 126 312 300c0 177 -115 325 -292 325zM430 573c51 0 94 -7 142 -27l8 -120
h-30c-7 72 -63 107 -116 107c-77 0 -145 -62 -145 -183c0 -122 70 -187 145 -187c53 0 109 36 116 107h30l-8 -114c-50 -26 -96 -35 -146 -35c-134 0 -231 77 -231 219c0 133 105 233 235 233z" />
    <glyph glyph-name="publish" horiz-adv-x="827" 
d="M433 708c201 0 345 -153 345 -353c0 -199 -184 -371 -385 -371c-199 0 -344 150 -344 349c0 201 185 375 384 375zM423 659c-176 0 -311 -130 -311 -307c0 -175 116 -318 291 -318c178 0 312 126 312 300c0 177 -115 325 -292 325zM245 567h202c129 0 173 -58 173 -131
c0 -66 -53 -134 -165 -134c-24 0 -47 2 -73 7c0 -41 0 -94 1 -126c0 -20 6 -27 27 -28l39 -2v-31h-204v31l26 2c20 1 27 7 28 28c1 51 2 112 2 161c0 56 -1 107 -2 161c-1 21 -8 27 -29 29l-25 3v30zM385 527c-2 -45 -3 -131 -3 -177c18 -4 34 -6 49 -6c66 0 99 40 99 90
c0 52 -25 95 -107 95c-14 0 -27 -1 -38 -2z" />
    <glyph glyph-name="registered" unicode="&#xae;" horiz-adv-x="563" 
d="M297 708c115 0 216 -81 216 -223c0 -128 -113 -242 -243 -242c-128 0 -220 96 -220 223c0 147 122 242 247 242zM283 667c-104 0 -184 -72 -184 -190c0 -104 76 -192 181 -192c56 0 103 19 135 53h-53c-15 33 -35 68 -55 96c-13 17 -25 25 -36 25c-6 0 -13 1 -19 2
c0 -22 0 -58 1 -77c1 -18 2 -21 19 -23h15v-23h-128v23l14 1c18 2 22 5 23 22c1 27 1 67 1 97c0 31 0 59 -1 87c-1 16 -5 19 -21 21l-16 1v24h130c81 0 112 -35 112 -76c0 -36 -24 -59 -62 -69c8 -4 17 -14 22 -21c17 -22 30 -50 43 -72c5 -7 12 -14 29 -15
c21 31 32 69 32 113c0 103 -77 193 -182 193zM254 585c-1 -30 -2 -64 -2 -96c9 -1 19 -1 28 -1c38 0 60 16 60 48c0 28 -18 50 -65 50c-7 0 -16 0 -21 -1z" />
    <glyph glyph-name="trademark" unicode="&#x2122;" horiz-adv-x="1004" 
d="M31 731h364v-115h-33c-2 57 -19 70 -71 74l-36 1c-3 -35 -4 -101 -4 -145c0 -43 0 -90 2 -123c2 -21 6 -26 29 -29l22 -2v-30h-184v30l22 2c23 3 29 5 29 29c2 41 2 84 2 124c0 52 0 107 -1 144l-37 -1c-53 -4 -68 -14 -71 -74h-33v115zM456 731h150l101 -235l101 235
h140v-31l-24 -1c-17 -1 -22 -5 -22 -22c0 -54 2 -228 4 -262c1 -13 6 -21 22 -22l26 -1v-30h-174v30l24 1c17 2 22 5 22 22c0 58 0 151 -4 239l-122 -290h-24l-128 291c-2 -85 -3 -185 -3 -240c0 -17 4 -21 21 -22l26 -1v-30h-144v30l25 1c18 1 23 5 23 22c1 82 7 175 7 262
c0 16 -6 21 -23 22l-24 1v31z" />
    <glyph glyph-name="at" unicode="@" horiz-adv-x="888" 
d="M510 362c-83 -13 -167 -65 -167 -130c0 -43 23 -63 59 -63c52 0 101 38 106 125c1 24 2 46 2 68zM772 469l36 3c27 -78 40 -146 40 -207c0 -252 -220 -383 -451 -383c-209 0 -356 94 -356 321c0 222 161 415 401 415c106 0 172 -49 172 -135c0 -64 -9 -127 -9 -257
c0 -38 18 -53 40 -53c16 0 33 8 44 19l18 -20c-28 -46 -69 -78 -112 -78c-57 0 -77 32 -78 100c-57 -64 -108 -103 -174 -103c-65 0 -106 34 -106 104c0 73 67 123 142 158c58 27 106 45 131 57c0 16 0 46 -1 66c-3 61 -34 88 -86 88c-157 0 -292 -137 -292 -344
c0 -175 109 -283 308 -283c149 0 351 94 351 370c0 48 -5 103 -18 162z" />
    <glyph glyph-name="Asmall" unicode="&#xf761;" horiz-adv-x="515" 
d="M233 374l-63 -163h126zM229 504h61c49 -132 123 -316 176 -440c10 -22 16 -30 35 -32l22 -2v-30h-221v30l23 2c18 1 26 7 26 17c0 20 -24 78 -40 118h-157c-21 -54 -39 -95 -39 -115c0 -12 7 -18 26 -20l24 -2v-30h-173v30l21 2c21 2 28 9 42 40c53 127 126 306 174 432z
" />
    <glyph glyph-name="Bsmall" unicode="&#xf762;" horiz-adv-x="526" 
d="M35 503h234c141 0 185 -58 185 -117c0 -52 -41 -97 -101 -111c77 -13 125 -68 125 -131c0 -72 -50 -144 -202 -144h-241v30l22 3c37 5 44 10 46 48c2 52 2 118 2 177c0 67 0 124 -2 166c-2 37 -7 42 -43 46l-25 3v30zM201 247c0 -60 0 -140 2 -174c1 -30 12 -36 59 -36
c74 0 108 40 108 100c0 58 -19 110 -136 110h-33zM205 458l-4 -169c13 -3 34 -3 49 -3c67 2 102 37 102 87c0 48 -29 88 -106 88c-16 0 -30 -1 -41 -3z" />
    <glyph glyph-name="Csmall" unicode="&#xf763;" horiz-adv-x="528" 
d="M317 518c61 0 111 -9 168 -32l9 -141h-32c-9 86 -75 128 -140 128c-92 0 -170 -75 -170 -219c0 -146 81 -223 170 -223c65 0 131 44 140 128h32l-9 -135c-59 -30 -114 -39 -173 -39c-157 0 -272 89 -272 256c0 158 124 277 277 277z" />
    <glyph glyph-name="Dsmall" unicode="&#xf764;" horiz-adv-x="598" 
d="M35 503h223c213 0 300 -97 300 -239c0 -157 -109 -264 -313 -264h-210v30l23 3c36 4 43 8 45 46c2 52 2 122 2 182c0 66 0 121 -2 163c-2 37 -7 42 -43 46l-25 3v30zM210 456c-3 -52 -5 -146 -5 -202c0 -54 0 -112 2 -172c1 -32 12 -38 59 -38c105 0 181 79 181 215
c0 137 -51 199 -190 199c-24 0 -36 -1 -47 -2z" />
    <glyph glyph-name="Esmall" unicode="&#xf765;" horiz-adv-x="490" 
d="M35 503h401v-151h-32c-4 83 -22 102 -96 102c-36 0 -67 0 -99 -2c-3 -47 -4 -119 -5 -171h46c46 0 60 7 62 65h35v-170h-35c-2 52 -14 65 -60 65h-48c0 -59 0 -133 2 -167c1 -20 29 -28 107 -28c64 0 84 19 95 100h32v-146h-405v30l22 3c37 5 44 10 46 48
c2 52 2 118 2 177c0 67 0 124 -2 167c-2 36 -7 41 -44 45l-24 3v30z" />
    <glyph glyph-name="Fsmall" unicode="&#xf766;" horiz-adv-x="449" 
d="M35 503h401v-155h-32c-4 78 -22 106 -96 106c-36 0 -67 0 -99 -2c-3 -49 -4 -123 -4 -186h61c45 0 59 8 61 66h35v-171h-35c-2 52 -14 65 -59 65h-63c0 -58 0 -103 2 -147c2 -37 7 -42 43 -46l32 -3v-30h-247v30l22 3c37 5 44 10 46 48c2 52 2 118 2 178
c0 66 0 123 -2 165c-2 37 -7 42 -44 46l-24 3v30z" />
    <glyph glyph-name="Gsmall" unicode="&#xf767;" horiz-adv-x="586" 
d="M494 486l10 -141h-34c-8 85 -74 128 -140 128c-95 0 -177 -68 -177 -218c0 -147 75 -224 173 -224c57 0 89 14 89 40v80c0 44 -6 56 -69 61v31h231v-33c-47 -4 -58 -13 -58 -58v-123c-51 -27 -117 -44 -204 -44c-159 0 -275 87 -275 255c0 163 128 278 285 278
c61 0 112 -9 169 -32z" />
    <glyph glyph-name="Hsmall" unicode="&#xf768;" horiz-adv-x="639" 
d="M35 503h242v-30l-24 -3c-36 -5 -43 -8 -45 -46c-2 -36 -3 -80 -3 -138h228c0 48 -1 94 -2 138c-2 36 -8 42 -43 46l-25 3v30h241v-30l-23 -3c-37 -5 -43 -8 -45 -46c-2 -52 -3 -104 -3 -164s0 -136 2 -181c2 -37 7 -42 43 -46l26 -3v-30h-241v30l22 3c37 5 45 8 46 46
c2 46 2 108 2 162h-228c0 -56 0 -122 2 -162c2 -36 8 -42 43 -46l26 -3v-30h-241v30l23 3c37 5 43 8 45 46c2 53 2 121 2 181c0 59 0 111 -2 164c-2 37 -7 42 -43 46l-25 3v30z" />
    <glyph glyph-name="Ismall" unicode="&#xf769;" horiz-adv-x="311" 
d="M35 503h241v-30l-23 -3c-37 -5 -43 -8 -45 -46c-2 -49 -3 -108 -3 -165c0 -60 0 -135 2 -180c2 -36 8 -42 43 -46l26 -3v-30h-241v30l23 3c36 5 43 8 45 46c2 53 2 120 2 181c0 58 0 114 -2 164c-2 37 -7 42 -43 46l-25 3v30z" />
    <glyph glyph-name="Jsmall" unicode="&#xf76a;" horiz-adv-x="310" 
d="M37 503h242v-30l-23 -3c-37 -5 -44 -9 -45 -46c-2 -51 -3 -105 -3 -169c0 -85 1 -185 1 -240c0 -79 -72 -128 -136 -128c-33 0 -69 13 -97 42l20 27c14 -11 32 -17 51 -17c31 0 56 18 58 72c2 49 3 175 3 249c0 59 0 111 -2 164c-2 37 -7 42 -44 46l-25 3v30z" />
    <glyph glyph-name="Ksmall" unicode="&#xf76b;" horiz-adv-x="593" 
d="M328 503h224v-31l-23 -3c-30 -4 -51 -14 -82 -44c-39 -37 -89 -84 -139 -126c63 -65 141 -157 201 -225c24 -28 39 -38 60 -41l19 -3v-30h-245v30l35 3c11 1 17 7 17 16c0 5 -4 14 -12 25c-32 45 -106 124 -177 191c60 52 131 118 164 163c8 10 11 18 11 23
c0 10 -8 16 -29 18l-24 3v31zM35 503h241v-30l-23 -3c-37 -5 -43 -8 -45 -46c-2 -49 -3 -108 -3 -165c0 -60 0 -135 2 -180c2 -36 8 -42 43 -46l26 -3v-30h-241v30l23 3c36 5 43 8 45 46c2 53 2 120 2 181c0 58 0 114 -2 164c-2 37 -7 42 -43 46l-25 3v30z" />
    <glyph glyph-name="Lsmall" unicode="&#xf76c;" horiz-adv-x="478" 
d="M35 503h242v-30l-24 -3c-37 -5 -44 -9 -45 -46c-2 -50 -4 -108 -4 -165c0 -60 0 -128 3 -175c2 -29 28 -37 105 -37c68 0 96 33 104 122h32v-169h-413v30l22 3c37 5 44 9 46 48c2 53 2 118 2 179c0 58 0 111 -2 164c-2 37 -7 42 -44 46l-24 3v30z" />
    <glyph glyph-name="Msmall" unicode="&#xf76d;" horiz-adv-x="734" 
d="M44 503h196c35 -89 94 -244 135 -333c39 88 100 244 134 333h185v-30l-28 -2c-27 -2 -34 -10 -34 -37c0 -75 3 -320 6 -367c2 -24 8 -34 34 -35l30 -2v-30h-229v30l28 2c27 2 35 8 35 35c0 82 -2 234 -6 358c-45 -105 -126 -319 -168 -425h-32c-41 106 -126 320 -173 426
c-3 -123 -4 -278 -4 -359c0 -27 7 -34 33 -35l31 -2v-30h-185v30l29 2c27 1 34 8 35 35c5 114 9 246 9 367c0 28 -9 35 -34 37l-27 2v30z" />
    <glyph glyph-name="Nsmall" unicode="&#xf76e;" horiz-adv-x="591" 
d="M18 503h192c66 -99 171 -261 244 -360c1 42 2 87 2 123c0 57 0 134 -1 168c-1 26 -9 36 -32 37l-32 2v30h179v-30l-27 -2c-26 -2 -33 -9 -34 -37c-2 -62 -3 -194 -3 -265v-177h-72c-98 149 -208 309 -296 428c-2 -56 -4 -123 -4 -170c0 -62 0 -148 1 -184
c1 -25 10 -32 34 -34l28 -2v-30h-179v30l28 2c25 2 33 6 34 34c2 63 2 124 2 186c0 61 0 122 -2 182c-1 28 -9 35 -34 37l-28 2v30z" />
    <glyph glyph-name="Osmall" unicode="&#xf76f;" horiz-adv-x="618" 
d="M40 250c0 148 121 268 281 268c157 0 257 -131 257 -265c0 -147 -121 -268 -277 -268c-154 0 -261 118 -261 265zM310 474c-93 0 -156 -92 -156 -224c0 -123 60 -222 156 -222c91 0 155 89 155 225c0 115 -50 221 -155 221z" />
    <glyph glyph-name="Psmall" unicode="&#xf770;" horiz-adv-x="516" 
d="M35 503h246c151 0 201 -69 201 -148c0 -77 -62 -151 -190 -151c-27 0 -60 2 -87 8c0 -49 0 -83 2 -133c2 -37 7 -43 43 -46l38 -3v-30h-253v30l22 3c37 5 44 8 46 46c2 53 2 121 2 181c0 59 0 111 -2 164c-2 37 -7 42 -43 46l-25 3v30zM209 459c-2 -52 -4 -150 -4 -202
c22 -6 43 -9 60 -9c75 0 107 45 107 104s-27 109 -117 109c-17 0 -32 0 -46 -2z" />
    <glyph glyph-name="Qsmall" unicode="&#xf771;" horiz-adv-x="618" 
d="M40 250c0 148 121 268 281 268c157 0 257 -131 257 -265c0 -145 -117 -264 -270 -268c75 -18 130 -84 195 -84c34 0 52 10 56 54l31 -3c0 -85 -35 -146 -109 -146c-92 0 -151 122 -227 122c-30 0 -44 -8 -64 -45l-32 9c25 57 55 91 96 97c-128 21 -214 129 -214 261z
M310 474c-93 0 -156 -92 -156 -224c0 -123 60 -222 156 -222c91 0 155 89 155 225c0 115 -50 221 -155 221z" />
    <glyph glyph-name="Rsmall" unicode="&#xf772;" horiz-adv-x="575" 
d="M35 503h242c147 0 206 -61 206 -136c0 -68 -50 -113 -127 -128c21 -9 40 -26 54 -45c29 -39 65 -95 90 -132c11 -16 26 -27 44 -29l19 -2v-31h-147c-28 55 -68 120 -107 175c-26 35 -46 49 -65 49l-39 4c0 -58 0 -105 2 -149c2 -37 5 -44 41 -47l23 -2v-30h-236v30l23 3
c36 5 43 8 45 46c2 53 2 120 2 181c0 58 0 111 -2 164c-2 37 -7 42 -43 46l-25 3v30zM209 459c-2 -48 -3 -135 -4 -188c20 -3 36 -4 54 -4c74 0 115 34 115 95c0 57 -33 99 -123 99c-18 0 -28 0 -42 -2z" />
    <glyph glyph-name="Ssmall" unicode="&#xf773;" horiz-adv-x="451" 
d="M48 160h33c9 -100 67 -129 124 -129c62 0 96 31 96 77c0 52 -49 82 -109 111c-70 34 -139 78 -139 155c0 81 73 144 179 144c69 0 113 -15 151 -40v-131h-34c-5 98 -60 131 -117 131c-44 0 -79 -24 -79 -70c0 -48 46 -76 105 -105c72 -36 144 -79 144 -164
c0 -98 -90 -151 -195 -151c-69 0 -121 14 -159 37v135z" />
    <glyph glyph-name="Tsmall" unicode="&#xf774;" horiz-adv-x="518" 
d="M20 503h478v-152h-34c-2 81 -23 98 -98 103c-17 2 -36 2 -54 2c-3 -47 -4 -144 -4 -208c0 -59 0 -124 3 -169c1 -37 6 -42 42 -46l26 -3v-30h-241v30l22 3c37 5 44 8 46 46c2 56 2 114 2 171c0 72 -1 155 -2 206c-18 0 -37 0 -54 -2c-77 -5 -95 -18 -98 -103h-34v152z
" />
    <glyph glyph-name="Usmall" unicode="&#xf775;" horiz-adv-x="577" 
d="M20 503h232v-30l-31 -2c-25 -2 -31 -10 -32 -37c-3 -63 -5 -141 -5 -273c0 -85 59 -118 124 -118c63 0 127 33 127 109c0 160 -1 222 -2 282c-1 27 -9 35 -35 37l-29 2v30h188v-30l-30 -2c-26 -2 -32 -12 -33 -37c-4 -76 -5 -173 -5 -291c0 -109 -98 -158 -196 -158
c-105 0 -208 53 -208 158c0 145 0 228 -2 291c-1 28 -10 35 -34 37l-29 2v30z" />
    <glyph glyph-name="Vsmall" unicode="&#xf776;" horiz-adv-x="518" 
d="M-8 503h222v-30l-24 -2c-23 -2 -28 -9 -24 -26c14 -47 65 -192 116 -323c46 108 93 245 115 314c7 23 1 32 -24 35l-24 2v30h177v-30l-22 -2c-22 -2 -28 -8 -43 -40c-33 -70 -124 -304 -174 -443h-58c-51 135 -124 323 -179 452c-12 23 -16 29 -36 31l-22 2v30z" />
    <glyph glyph-name="Wsmall" unicode="&#xf777;" horiz-adv-x="737" 
d="M2 503h203v-30l-24 -2c-21 -2 -26 -11 -22 -27c21 -83 52 -192 88 -308c35 106 87 273 112 367h54c27 -95 82 -266 117 -368c34 107 66 222 87 302c6 25 -5 31 -29 34l-21 2v30h167v-30l-22 -2c-17 -2 -25 -13 -35 -42c-41 -118 -100 -310 -138 -441h-59
c-32 104 -77 235 -117 345c-39 -115 -75 -228 -110 -345h-60c-39 136 -98 318 -143 452c-8 22 -13 28 -30 31l-18 2v30z" />
    <glyph glyph-name="Xsmall" unicode="&#xf778;" horiz-adv-x="584" 
d="M22 503h245v-30l-21 -2c-20 -2 -28 -6 -28 -16c0 -13 18 -44 93 -146c101 110 112 129 112 146c0 10 -9 14 -29 16l-21 2v30h192v-30l-22 -2c-22 -2 -38 -18 -70 -52c-33 -38 -98 -108 -133 -148c43 -60 89 -126 137 -187c29 -38 46 -50 71 -52l22 -2v-30h-246v30l22 2
c16 2 26 5 26 14c0 16 -65 112 -97 154c-105 -120 -117 -138 -117 -153c0 -8 11 -13 28 -15l22 -2v-30h-193v30l22 2c21 2 39 16 72 52c42 45 84 90 138 153c-42 57 -86 124 -133 182c-29 35 -46 50 -70 52l-22 2v30z" />
    <glyph glyph-name="Ysmall" unicode="&#xf779;" horiz-adv-x="541" 
d="M-4 503h236v-30l-21 -2c-20 -2 -28 -5 -28 -14c0 -7 4 -18 12 -32c26 -46 57 -97 99 -160c38 53 75 111 104 162c7 11 10 21 10 27c0 11 -9 14 -31 17l-20 2v30h188v-30l-22 -2c-20 -2 -38 -17 -64 -54c-47 -66 -96 -140 -139 -201c0 -38 0 -95 2 -137
c2 -37 7 -42 43 -46l29 -3v-30h-248v30l26 3c37 4 44 8 46 46c2 50 2 90 2 137c-42 60 -106 159 -134 203c-24 38 -46 49 -68 52l-22 2v30z" />
    <glyph glyph-name="Zsmall" unicode="&#xf77a;" horiz-adv-x="522" 
d="M66 503h411v-38c-106 -121 -221 -258 -318 -379c50 -1 167 -2 190 -2c82 0 94 13 99 85h35l-9 -169h-439v37c115 129 219 252 325 380c-31 1 -154 1 -195 1c-55 0 -65 -14 -70 -76h-36z" />
    <glyph glyph-name="AEsmall" unicode="&#xf7e6;" horiz-adv-x="736" 
d="M267 503h415v-151h-33c-3 83 -22 102 -96 102c-35 0 -67 0 -99 -2c-2 -47 -4 -119 -5 -171h47c45 0 59 7 61 65h35v-170h-35c-2 52 -14 65 -60 65h-48c0 -59 0 -133 2 -167c2 -20 30 -28 107 -28c65 0 84 19 95 100h32v-146h-405v30l23 3c37 5 46 10 46 48l1 92h-157
c-35 -46 -58 -79 -76 -107c-14 -21 -14 -32 10 -34l24 -2l-1 -30h-182l1 30l22 2c22 2 31 9 56 40c88 113 203 257 295 378c-4 12 -13 17 -44 20l-31 3v30zM350 383l-125 -166h126c0 90 0 132 -1 166z" />
    <glyph glyph-name="Ethsmall" unicode="&#xf7f0;" horiz-adv-x="606" 
d="M44 503h223c214 0 301 -97 301 -239c0 -157 -110 -264 -313 -264h-211v30l23 3c37 4 44 8 46 46c2 46 2 112 2 166h-81v46h81c0 53 -1 100 -2 133c-2 37 -8 42 -43 46l-26 3v30zM215 291h89v-46h-89c0 -52 0 -108 1 -163c1 -32 12 -38 59 -38c106 0 180 79 180 215
c0 137 -50 199 -188 199c-25 0 -37 -1 -48 -2c-2 -41 -4 -112 -4 -165z" />
    <glyph glyph-name="IJsmall" horiz-adv-x="659" 
d="M35 503h241v-30l-23 -3c-37 -5 -43 -8 -45 -46c-2 -49 -3 -108 -3 -165c0 -60 0 -135 2 -180c2 -36 8 -42 43 -46l26 -3v-30h-241v30l23 3c36 5 43 8 45 46c2 53 2 120 2 181c0 58 0 114 -2 164c-2 37 -7 42 -43 46l-25 3v30zM387 503h242v-30l-23 -3
c-37 -5 -44 -9 -45 -46c-2 -51 -3 -105 -3 -169c0 -85 1 -185 1 -240c0 -79 -72 -128 -136 -128c-33 0 -69 13 -97 42l20 27c14 -11 32 -17 51 -17c31 0 56 18 58 72c2 49 3 175 3 249c0 59 0 111 -2 164c-2 37 -7 42 -44 46l-25 3v30z" />
    <glyph glyph-name="OEsmall" unicode="&#xf6fa;" horiz-adv-x="850" 
d="M407 503h388v-151h-32c-3 83 -25 104 -99 104c-28 0 -125 0 -177 -1c48 -45 76 -108 82 -174h37c46 0 60 7 62 65h35v-170h-35c-2 52 -14 65 -60 65h-37c-3 -72 -34 -139 -84 -185c38 -8 116 -12 175 -12c71 0 94 21 105 102h32v-146h-409c-28 -10 -59 -15 -92 -15
c-153 0 -261 118 -261 265c0 148 121 268 282 268c32 0 61 -6 88 -15zM307 474c-92 0 -154 -92 -154 -224c0 -123 58 -222 154 -222c92 0 154 89 154 225c0 115 -48 221 -154 221z" />
    <glyph glyph-name="Oslashsmall" unicode="&#xf7f8;" horiz-adv-x="613" 
d="M526 541l41 -25l-65 -76c47 -50 74 -118 74 -187c0 -147 -122 -268 -278 -268c-57 0 -107 16 -148 44l-61 -70l-41 25l65 75c-48 49 -76 116 -76 191c0 148 121 268 282 268c57 0 107 -18 147 -47zM173 129l246 287c-26 35 -64 58 -112 58c-92 0 -156 -92 -156 -224
c0 -45 6 -86 22 -121zM442 370l-245 -285c28 -35 65 -57 110 -57c92 0 156 89 156 225c0 42 -5 83 -21 117z" />
    <glyph glyph-name="Thornsmall" unicode="&#xf7fe;" horiz-adv-x="510" 
d="M32 503h242v-30l-23 -3c-37 -5 -44 -8 -45 -46c-1 -7 -1 -16 -1 -23h72c150 0 199 -69 199 -148c0 -76 -61 -151 -189 -151c-25 0 -57 2 -84 6l2 -29c2 -36 7 -42 43 -46l25 -3v-30h-241v30l23 3c37 5 44 8 45 46c2 53 3 120 3 181c0 58 0 114 -3 164c-2 37 -7 42 -43 46
l-25 3v30zM202 259v-106c22 -4 45 -6 62 -6c76 0 106 45 106 104c0 58 -18 109 -117 109c-16 0 -36 0 -50 -2c-1 -32 -1 -66 -1 -99z" />
    <glyph glyph-name="Aacutesmall" unicode="&#xf7e1;" horiz-adv-x="515" 
d="M305 725h96c15 0 22 -14 6 -25l-179 -162l-29 13zM233 374l-63 -163h126zM229 504h61c49 -132 123 -316 176 -440c10 -22 16 -30 35 -32l22 -2v-30h-221v30l23 2c18 1 26 7 26 17c0 20 -24 78 -40 118h-157c-21 -54 -39 -95 -39 -115c0 -12 7 -18 26 -20l24 -2v-30h-173
v30l21 2c21 2 28 9 42 40c53 127 126 306 174 432z" />
    <glyph glyph-name="Abrevesmall" horiz-adv-x="515" 
d="M125 713l28 9c22 -64 48 -77 104 -77c54 0 88 14 107 77l28 -9c-22 -108 -71 -145 -134 -145c-64 0 -108 37 -133 145zM233 374l-63 -163h126zM229 504h61c49 -132 123 -316 176 -440c10 -22 16 -30 35 -32l22 -2v-30h-221v30l23 2c18 1 26 7 26 17c0 20 -24 78 -40 118
h-157c-21 -54 -39 -95 -39 -115c0 -12 7 -18 26 -20l24 -2v-30h-173v30l21 2c21 2 28 9 42 40c53 127 126 306 174 432z" />
    <glyph glyph-name="Acircumflexsmall" unicode="&#xf7e2;" horiz-adv-x="515" 
d="M233 374l-63 -163h126zM229 504h61c49 -132 123 -316 176 -440c10 -22 16 -30 35 -32l22 -2v-30h-221v30l23 2c18 1 26 7 26 17c0 20 -24 78 -40 118h-157c-21 -54 -39 -95 -39 -115c0 -12 7 -18 26 -20l24 -2v-30h-173v30l21 2c21 2 28 9 42 40c53 127 126 306 174 432z
M113 550l101 162c10 15 25 19 41 19c15 0 34 -3 42 -16l103 -165l-27 -13l-119 110l-114 -110z" />
    <glyph glyph-name="Adieresissmall" unicode="&#xf7e4;" horiz-adv-x="515" 
d="M233 374l-63 -163h126zM229 504h61c49 -132 123 -316 176 -440c10 -22 16 -30 35 -32l22 -2v-30h-221v30l23 2c18 1 26 7 26 17c0 20 -24 78 -40 118h-157c-21 -54 -39 -95 -39 -115c0 -12 7 -18 26 -20l24 -2v-30h-173v30l21 2c21 2 28 9 42 40c53 127 126 306 174 432z
M108 628c0 27 22 49 49 49s50 -22 50 -49c0 -28 -23 -50 -50 -50s-49 22 -49 50zM305 628c0 27 22 49 50 49c27 0 49 -22 49 -49c0 -28 -22 -50 -49 -50c-28 0 -50 22 -50 50z" />
    <glyph glyph-name="Agravesmall" unicode="&#xf7e0;" horiz-adv-x="515" 
d="M128 725h96l106 -174l-29 -13l-179 162c-16 11 -9 25 6 25zM233 374l-63 -163h126zM229 504h61c49 -132 123 -316 176 -440c10 -22 16 -30 35 -32l22 -2v-30h-221v30l23 2c18 1 26 7 26 17c0 20 -24 78 -40 118h-157c-21 -54 -39 -95 -39 -115c0 -12 7 -18 26 -20l24 -2
v-30h-173v30l21 2c21 2 28 9 42 40c53 127 126 306 174 432z" />
    <glyph glyph-name="Amacronsmall" horiz-adv-x="515" 
d="M233 374l-63 -163h126zM229 504h61c49 -132 123 -316 176 -440c10 -22 16 -30 35 -32l22 -2v-30h-221v30l23 2c18 1 26 7 26 17c0 20 -24 78 -40 118h-157c-21 -54 -39 -95 -39 -115c0 -12 7 -18 26 -20l24 -2v-30h-173v30l21 2c21 2 28 9 42 40c53 127 126 306 174 432z
M137 636h243v-49h-243v49z" />
    <glyph glyph-name="Aogoneksmall" horiz-adv-x="515" 
d="M229 504h61c49 -132 123 -316 176 -440c10 -22 16 -30 35 -32l22 -2v-30h-47c-58 -22 -83 -64 -83 -108c0 -36 19 -56 57 -56c21 0 45 7 61 28l19 -20c-21 -28 -57 -53 -110 -53c-79 0 -106 36 -106 82c0 58 44 102 101 127h-113v30l23 2c18 1 26 7 26 17
c0 20 -24 78 -40 118h-157c-21 -54 -39 -95 -39 -115c0 -12 7 -18 26 -20l24 -2v-30h-173v30l21 2c21 2 28 9 42 40c53 127 126 306 174 432zM233 374l-63 -163h126z" />
    <glyph glyph-name="Aringsmall" unicode="&#xf7e5;" horiz-adv-x="515" 
d="M157 629c0 55 47 99 101 99c55 0 102 -44 102 -99c0 -58 -47 -101 -102 -101c-54 0 -101 43 -101 101zM257 682c-30 0 -52 -24 -52 -56c0 -31 22 -57 52 -57c34 0 56 26 56 57c0 32 -22 56 -56 56zM233 374l-63 -163h126zM229 504h61c49 -132 123 -316 176 -440
c10 -22 16 -30 35 -32l22 -2v-30h-221v30l23 2c18 1 26 7 26 17c0 20 -24 78 -40 118h-157c-21 -54 -39 -95 -39 -115c0 -12 7 -18 26 -20l24 -2v-30h-173v30l21 2c21 2 28 9 42 40c53 127 126 306 174 432z" />
    <glyph glyph-name="Atildesmall" unicode="&#xf7e3;" horiz-adv-x="515" 
d="M140 554l-31 8c1 75 36 137 91 137c54 0 94 -65 134 -65c27 0 48 21 49 68l30 -4c-1 -77 -33 -134 -87 -134c-64 0 -90 62 -133 62c-33 0 -52 -26 -53 -72zM233 374l-63 -163h126zM229 504h61c49 -132 123 -316 176 -440c10 -22 16 -30 35 -32l22 -2v-30h-221v30l23 2
c18 1 26 7 26 17c0 20 -24 78 -40 118h-157c-21 -54 -39 -95 -39 -115c0 -12 7 -18 26 -20l24 -2v-30h-173v30l21 2c21 2 28 9 42 40c53 127 126 306 174 432z" />
    <glyph glyph-name="Ccedillasmall" unicode="&#xf7e7;" horiz-adv-x="528" 
d="M317 518c61 0 111 -9 168 -32l9 -141h-32c-9 86 -75 128 -140 128c-92 0 -170 -75 -170 -219c0 -146 81 -223 170 -223c65 0 131 44 140 128h32l-9 -135c-58 -29 -112 -38 -170 -39l-22 -27c76 0 122 -20 122 -78c0 -57 -68 -86 -134 -86c-37 0 -65 10 -91 24l13 29
c18 -10 40 -15 70 -15c45 0 64 12 64 36c0 26 -27 41 -100 41l-5 8l45 70c-139 12 -237 99 -237 254c0 158 124 277 277 277z" />
    <glyph glyph-name="Cacutesmall" horiz-adv-x="528" 
d="M329 725h96c15 0 22 -14 6 -25l-179 -162l-29 13zM317 518c61 0 111 -9 168 -32l9 -141h-32c-9 86 -75 128 -140 128c-92 0 -170 -75 -170 -219c0 -146 81 -223 170 -223c65 0 131 44 140 128h32l-9 -135c-59 -30 -114 -39 -173 -39c-157 0 -272 89 -272 256
c0 158 124 277 277 277z" />
    <glyph glyph-name="Ccircumflexsmall" horiz-adv-x="528" 
d="M317 518c61 0 111 -9 168 -32l9 -141h-32c-9 86 -75 128 -140 128c-92 0 -170 -75 -170 -219c0 -146 81 -223 170 -223c65 0 131 44 140 128h32l-9 -135c-59 -30 -114 -39 -173 -39c-157 0 -272 89 -272 256c0 158 124 277 277 277zM176 550l101 162c10 15 25 19 41 19
c15 0 34 -3 42 -16l103 -165l-27 -13l-119 110l-114 -110z" />
    <glyph glyph-name="Ccaronsmall" horiz-adv-x="528" 
d="M169 723l27 13l118 -109l115 109l27 -13l-101 -162c-10 -15 -26 -19 -42 -19c-15 0 -33 3 -41 16zM317 518c61 0 111 -9 168 -32l9 -141h-32c-9 86 -75 128 -140 128c-92 0 -170 -75 -170 -219c0 -146 81 -223 170 -223c65 0 131 44 140 128h32l-9 -135
c-59 -30 -114 -39 -173 -39c-157 0 -272 89 -272 256c0 158 124 277 277 277z" />
    <glyph glyph-name="Cdotaccentsmall" horiz-adv-x="528" 
d="M317 518c61 0 111 -9 168 -32l9 -141h-32c-9 86 -75 128 -140 128c-92 0 -170 -75 -170 -219c0 -146 81 -223 170 -223c65 0 131 44 140 128h32l-9 -135c-59 -30 -114 -39 -173 -39c-157 0 -272 89 -272 256c0 158 124 277 277 277zM314 678c31 0 56 -24 56 -54
c0 -31 -25 -56 -56 -56c-29 0 -54 25 -54 56c0 30 25 54 54 54z" />
    <glyph glyph-name="Dcroatsmall" horiz-adv-x="593" 
d="M32 503h223c214 0 301 -97 301 -239c0 -157 -110 -264 -313 -264h-211v30l23 3c37 4 44 8 45 46c2 46 3 107 3 162h-57v54h57c0 39 -2 106 -3 129c-1 37 -7 42 -43 46l-25 3v30zM202 295h91v-54h-91c0 -52 0 -104 2 -159c1 -32 12 -38 59 -38c105 0 180 79 180 215
c0 137 -50 199 -188 199c-25 0 -37 -1 -48 -2c-3 -41 -5 -107 -5 -161z" />
    <glyph glyph-name="Dcaronsmall" horiz-adv-x="598" 
d="M140 723l27 13l118 -109l115 109l27 -13l-101 -162c-10 -15 -26 -19 -42 -19c-15 0 -33 3 -41 16zM35 503h223c213 0 300 -97 300 -239c0 -157 -109 -264 -313 -264h-210v30l23 3c36 4 43 8 45 46c2 52 2 122 2 182c0 66 0 121 -2 163c-2 37 -7 42 -43 46l-25 3v30z
M210 456c-3 -52 -5 -146 -5 -202c0 -54 0 -112 2 -172c1 -32 12 -38 59 -38c105 0 181 79 181 215c0 137 -51 199 -190 199c-24 0 -36 -1 -47 -2z" />
    <glyph glyph-name="Eacutesmall" unicode="&#xf7e9;" horiz-adv-x="490" 
d="M293 725h96c15 0 22 -14 6 -25l-179 -162l-29 13zM35 503h401v-151h-32c-4 83 -22 102 -96 102c-36 0 -67 0 -99 -2c-3 -47 -4 -119 -5 -171h46c46 0 60 7 62 65h35v-170h-35c-2 52 -14 65 -60 65h-48c0 -59 0 -133 2 -167c1 -20 29 -28 107 -28c64 0 84 19 95 100h32
v-146h-405v30l22 3c37 5 44 10 46 48c2 52 2 118 2 177c0 67 0 124 -2 167c-2 36 -7 41 -44 45l-24 3v30z" />
    <glyph glyph-name="Ebrevesmall" horiz-adv-x="490" 
d="M127 713l28 9c22 -64 48 -77 104 -77c54 0 88 14 107 77l28 -9c-22 -108 -71 -145 -134 -145c-64 0 -108 37 -133 145zM35 503h401v-151h-32c-4 83 -22 102 -96 102c-36 0 -67 0 -99 -2c-3 -47 -4 -119 -5 -171h46c46 0 60 7 62 65h35v-170h-35c-2 52 -14 65 -60 65h-48
c0 -59 0 -133 2 -167c1 -20 29 -28 107 -28c64 0 84 19 95 100h32v-146h-405v30l22 3c37 5 44 10 46 48c2 52 2 118 2 177c0 67 0 124 -2 167c-2 36 -7 41 -44 45l-24 3v30z" />
    <glyph glyph-name="Ecaronsmall" horiz-adv-x="490" 
d="M118 723l27 13l118 -109l115 109l27 -13l-101 -162c-10 -15 -26 -19 -42 -19c-15 0 -33 3 -41 16zM35 503h401v-151h-32c-4 83 -22 102 -96 102c-36 0 -67 0 -99 -2c-3 -47 -4 -119 -5 -171h46c46 0 60 7 62 65h35v-170h-35c-2 52 -14 65 -60 65h-48c0 -59 0 -133 2 -167
c1 -20 29 -28 107 -28c64 0 84 19 95 100h32v-146h-405v30l22 3c37 5 44 10 46 48c2 52 2 118 2 177c0 67 0 124 -2 167c-2 36 -7 41 -44 45l-24 3v30z" />
    <glyph glyph-name="Ecircumflexsmall" unicode="&#xf7ea;" horiz-adv-x="490" 
d="M35 503h401v-151h-32c-4 83 -22 102 -96 102c-36 0 -67 0 -99 -2c-3 -47 -4 -119 -5 -171h46c46 0 60 7 62 65h35v-170h-35c-2 52 -14 65 -60 65h-48c0 -59 0 -133 2 -167c1 -20 29 -28 107 -28c64 0 84 19 95 100h32v-146h-405v30l22 3c37 5 44 10 46 48
c2 52 2 118 2 177c0 67 0 124 -2 167c-2 36 -7 41 -44 45l-24 3v30zM116 550l101 162c10 15 25 19 41 19c15 0 34 -3 42 -16l103 -165l-27 -13l-119 110l-114 -110z" />
    <glyph glyph-name="Edieresissmall" unicode="&#xf7eb;" horiz-adv-x="490" 
d="M35 503h401v-151h-32c-4 83 -22 102 -96 102c-36 0 -67 0 -99 -2c-3 -47 -4 -119 -5 -171h46c46 0 60 7 62 65h35v-170h-35c-2 52 -14 65 -60 65h-48c0 -59 0 -133 2 -167c1 -20 29 -28 107 -28c64 0 84 19 95 100h32v-146h-405v30l22 3c37 5 44 10 46 48
c2 52 2 118 2 177c0 67 0 124 -2 167c-2 36 -7 41 -44 45l-24 3v30zM116 628c0 27 22 49 49 49s50 -22 50 -49c0 -28 -23 -50 -50 -50s-49 22 -49 50zM313 628c0 27 22 49 50 49c27 0 49 -22 49 -49c0 -28 -22 -50 -49 -50c-28 0 -50 22 -50 50z" />
    <glyph glyph-name="Edotaccentsmall" horiz-adv-x="490" 
d="M35 503h401v-151h-32c-4 83 -22 102 -96 102c-36 0 -67 0 -99 -2c-3 -47 -4 -119 -5 -171h46c46 0 60 7 62 65h35v-170h-35c-2 52 -14 65 -60 65h-48c0 -59 0 -133 2 -167c1 -20 29 -28 107 -28c64 0 84 19 95 100h32v-146h-405v30l22 3c37 5 44 10 46 48
c2 52 2 118 2 177c0 67 0 124 -2 167c-2 36 -7 41 -44 45l-24 3v30zM267 678c31 0 56 -24 56 -54c0 -31 -25 -56 -56 -56c-29 0 -54 25 -54 56c0 30 25 54 54 54z" />
    <glyph glyph-name="Egravesmall" unicode="&#xf7e8;" horiz-adv-x="490" 
d="M138 725h96l106 -174l-29 -13l-179 162c-16 11 -9 25 6 25zM35 503h401v-151h-32c-4 83 -22 102 -96 102c-36 0 -67 0 -99 -2c-3 -47 -4 -119 -5 -171h46c46 0 60 7 62 65h35v-170h-35c-2 52 -14 65 -60 65h-48c0 -59 0 -133 2 -167c1 -20 29 -28 107 -28
c64 0 84 19 95 100h32v-146h-405v30l22 3c37 5 44 10 46 48c2 52 2 118 2 177c0 67 0 124 -2 167c-2 36 -7 41 -44 45l-24 3v30z" />
    <glyph glyph-name="Emacronsmall" horiz-adv-x="490" 
d="M35 503h401v-151h-32c-4 83 -22 102 -96 102c-36 0 -67 0 -99 -2c-3 -47 -4 -119 -5 -171h46c46 0 60 7 62 65h35v-170h-35c-2 52 -14 65 -60 65h-48c0 -59 0 -133 2 -167c1 -20 29 -28 107 -28c64 0 84 19 95 100h32v-146h-405v30l22 3c37 5 44 10 46 48
c2 52 2 118 2 177c0 67 0 124 -2 167c-2 36 -7 41 -44 45l-24 3v30zM142 636h243v-49h-243v49z" />
    <glyph glyph-name="Eogoneksmall" horiz-adv-x="490" 
d="M35 503h401v-151h-32c-4 83 -22 102 -96 102c-36 0 -67 0 -99 -2c-3 -47 -4 -119 -5 -171h46c46 0 60 7 62 65h35v-170h-35c-2 52 -14 65 -60 65h-48c0 -59 0 -133 2 -167c1 -20 29 -28 107 -28c64 0 84 19 95 100h32v-146h-26c-58 -22 -83 -64 -83 -108
c0 -36 19 -56 57 -56c21 0 45 7 61 28l19 -20c-21 -28 -57 -53 -110 -53c-79 0 -106 36 -106 82c0 58 44 102 101 127h-318v30l22 3c37 5 44 10 46 48c2 52 2 118 2 177c0 67 0 124 -2 167c-2 36 -7 41 -44 45l-24 3v30z" />
    <glyph glyph-name="Gacutesmall" horiz-adv-x="586" 
d="M338 725h96c15 0 22 -14 6 -25l-179 -162l-29 13zM494 486l10 -141h-34c-8 85 -74 128 -140 128c-95 0 -177 -68 -177 -218c0 -147 75 -224 173 -224c57 0 89 14 89 40v80c0 44 -6 56 -69 61v31h231v-33c-47 -4 -58 -13 -58 -58v-123c-51 -27 -117 -44 -204 -44
c-159 0 -275 87 -275 255c0 163 128 278 285 278c61 0 112 -9 169 -32z" />
    <glyph glyph-name="Gbrevesmall" horiz-adv-x="586" 
d="M188 713l28 9c22 -64 48 -77 104 -77c54 0 88 14 107 77l28 -9c-22 -108 -71 -145 -134 -145c-64 0 -108 37 -133 145zM494 486l10 -141h-34c-8 85 -74 128 -140 128c-95 0 -177 -68 -177 -218c0 -147 75 -224 173 -224c57 0 89 14 89 40v80c0 44 -6 56 -69 61v31h231
v-33c-47 -4 -58 -13 -58 -58v-123c-51 -27 -117 -44 -204 -44c-159 0 -275 87 -275 255c0 163 128 278 285 278c61 0 112 -9 169 -32z" />
    <glyph glyph-name="Gcircumflexsmall" horiz-adv-x="586" 
d="M494 486l10 -141h-34c-8 85 -74 128 -140 128c-95 0 -177 -68 -177 -218c0 -147 75 -224 173 -224c57 0 89 14 89 40v80c0 44 -6 56 -69 61v31h231v-33c-47 -4 -58 -13 -58 -58v-123c-51 -27 -117 -44 -204 -44c-159 0 -275 87 -275 255c0 163 128 278 285 278
c61 0 112 -9 169 -32zM187 550l101 162c10 15 25 19 41 19c15 0 34 -3 42 -16l103 -165l-27 -13l-119 110l-114 -110z" />
    <glyph glyph-name="Gcommaaccentsmall" horiz-adv-x="586" 
d="M494 486l10 -141h-34c-8 85 -74 128 -140 128c-95 0 -177 -68 -177 -218c0 -147 75 -224 173 -224c57 0 89 14 89 40v80c0 44 -6 56 -69 61v31h231v-33c-47 -4 -58 -13 -58 -58v-123c-51 -27 -117 -44 -204 -44c-159 0 -275 87 -275 255c0 163 128 278 285 278
c61 0 112 -9 169 -32zM277 -292l-14 25c44 13 65 41 65 70c0 18 -9 31 -26 31c-33 0 -54 20 -54 52c0 31 23 55 58 55c53 0 84 -40 84 -94c0 -56 -34 -116 -113 -139z" />
    <glyph glyph-name="Gdotaccentsmall" horiz-adv-x="586" 
d="M494 486l10 -141h-34c-8 85 -74 128 -140 128c-95 0 -177 -68 -177 -218c0 -147 75 -224 173 -224c57 0 89 14 89 40v80c0 44 -6 56 -69 61v31h231v-33c-47 -4 -58 -13 -58 -58v-123c-51 -27 -117 -44 -204 -44c-159 0 -275 87 -275 255c0 163 128 278 285 278
c61 0 112 -9 169 -32zM320 678c31 0 56 -24 56 -54c0 -31 -25 -56 -56 -56c-29 0 -54 25 -54 56c0 30 25 54 54 54z" />
    <glyph glyph-name="Hcircumflexsmall" horiz-adv-x="639" 
d="M35 503h242v-30l-24 -3c-36 -5 -43 -8 -45 -46c-2 -36 -3 -80 -3 -138h228c0 48 -1 94 -2 138c-2 36 -8 42 -43 46l-25 3v30h241v-30l-23 -3c-37 -5 -43 -8 -45 -46c-2 -52 -3 -104 -3 -164s0 -136 2 -181c2 -37 7 -42 43 -46l26 -3v-30h-241v30l22 3c37 5 45 8 46 46
c2 46 2 108 2 162h-228c0 -56 0 -122 2 -162c2 -36 8 -42 43 -46l26 -3v-30h-241v30l23 3c37 5 43 8 45 46c2 53 2 121 2 181c0 59 0 111 -2 164c-2 37 -7 42 -43 46l-25 3v30zM177 550l101 162c10 15 25 19 41 19c15 0 34 -3 42 -16l103 -165l-27 -13l-119 110l-114 -110z
" />
    <glyph glyph-name="Hbarsmall" horiz-adv-x="634" 
d="M32 503h239v-30l-24 -3c-36 -5 -42 -8 -44 -46l-2 -25h231v25c-2 36 -7 42 -43 46l-25 3v30h238v-30l-23 -3c-37 -5 -44 -8 -46 -46c-1 -8 -1 -18 -1 -25h76v-36h-77c-1 -32 -1 -66 -1 -103c0 -60 0 -136 3 -181c2 -37 6 -42 43 -46l25 -3v-30h-237v30l23 3
c36 5 43 8 45 46c1 46 1 108 1 162h-234c0 -56 0 -122 3 -162c2 -36 7 -42 42 -46l26 -3v-30h-238v30l23 3c37 5 44 8 45 46c2 53 3 121 3 181c0 37 -1 70 -1 103h-75v36h74c0 7 -1 17 -1 25c-1 37 -6 42 -43 46l-25 3v30zM199 286h234v77h-233c-1 -24 -1 -49 -1 -77z" />
    <glyph glyph-name="Iacutesmall" unicode="&#xf7ed;" horiz-adv-x="311" 
d="M182 725h96c15 0 22 -14 6 -25l-179 -162l-29 13zM35 503h241v-30l-23 -3c-37 -5 -43 -8 -45 -46c-2 -49 -3 -108 -3 -165c0 -60 0 -135 2 -180c2 -36 8 -42 43 -46l26 -3v-30h-241v30l23 3c36 5 43 8 45 46c2 53 2 120 2 181c0 58 0 114 -2 164c-2 37 -7 42 -43 46
l-25 3v30z" />
    <glyph glyph-name="Icircumflexsmall" unicode="&#xf7ee;" horiz-adv-x="311" 
d="M35 503h241v-30l-23 -3c-37 -5 -43 -8 -45 -46c-2 -49 -3 -108 -3 -165c0 -60 0 -135 2 -180c2 -36 8 -42 43 -46l26 -3v-30h-241v30l23 3c36 5 43 8 45 46c2 53 2 120 2 181c0 58 0 114 -2 164c-2 37 -7 42 -43 46l-25 3v30zM11 560l101 162c10 15 25 19 41 19
c15 0 34 -3 42 -16l103 -165l-27 -13l-119 110l-114 -110z" />
    <glyph glyph-name="Idieresissmall" unicode="&#xf7ef;" horiz-adv-x="311" 
d="M35 503h241v-30l-23 -3c-37 -5 -43 -8 -45 -46c-2 -49 -3 -108 -3 -165c0 -60 0 -135 2 -180c2 -36 8 -42 43 -46l26 -3v-30h-241v30l23 3c36 5 43 8 45 46c2 53 2 120 2 181c0 58 0 114 -2 164c-2 37 -7 42 -43 46l-25 3v30zM6 628c0 27 22 49 49 49s50 -22 50 -49
c0 -28 -23 -50 -50 -50s-49 22 -49 50zM203 628c0 27 22 49 50 49c27 0 49 -22 49 -49c0 -28 -22 -50 -49 -50c-28 0 -50 22 -50 50z" />
    <glyph glyph-name="Igravesmall" unicode="&#xf7ec;" horiz-adv-x="311" 
d="M24 725h96l106 -174l-29 -13l-179 162c-16 11 -9 25 6 25zM35 503h241v-30l-23 -3c-37 -5 -43 -8 -45 -46c-2 -49 -3 -108 -3 -165c0 -60 0 -135 2 -180c2 -36 8 -42 43 -46l26 -3v-30h-241v30l23 3c36 5 43 8 45 46c2 53 2 120 2 181c0 58 0 114 -2 164
c-2 37 -7 42 -43 46l-25 3v30z" />
    <glyph glyph-name="Imacronsmall" horiz-adv-x="311" 
d="M35 503h241v-30l-23 -3c-37 -5 -43 -8 -45 -46c-2 -49 -3 -108 -3 -165c0 -60 0 -135 2 -180c2 -36 8 -42 43 -46l26 -3v-30h-241v30l23 3c36 5 43 8 45 46c2 53 2 120 2 181c0 58 0 114 -2 164c-2 37 -7 42 -43 46l-25 3v30zM34 636h243v-49h-243v49z" />
    <glyph glyph-name="Iogoneksmall" horiz-adv-x="311" 
d="M35 503h241v-30l-23 -3c-37 -5 -43 -8 -45 -46c-2 -49 -3 -108 -3 -165c0 -60 0 -135 2 -180c2 -36 8 -42 43 -46l26 -3v-30h-60c-58 -22 -83 -64 -83 -108c0 -36 19 -56 57 -56c21 0 45 7 61 28l19 -20c-21 -28 -57 -53 -110 -53c-79 0 -106 36 -106 82
c0 58 44 102 101 127h-120v30l23 3c36 5 43 8 45 46c2 53 2 120 2 181c0 58 0 114 -2 164c-2 37 -7 42 -43 46l-25 3v30z" />
    </font>
</defs>
</svg>
