<?xml version="1.0" standalone="no"?>
<!DOCTYPE svg PUBLIC "-//W3C//DTD SVG 20010904//EN"
 "http://www.w3.org/TR/2001/REC-SVG-20010904/DTD/svg10.dtd">
<svg version="1.0" xmlns="http://www.w3.org/2000/svg"
 width="261.000000pt" height="261.000000pt" viewBox="0 0 261.000000 261.000000"
 preserveAspectRatio="xMidYMid meet">
<metadata>
Created by potrace 1.11, written by Peter Selinger 2001-2013
</metadata>
<g transform="translate(0.000000,261.000000) scale(0.100000,-0.100000)"
fill="#000000" stroke="none">
<path d="M110 1310 l0 -1210 250 0 250 0 0 90 0 90 -140 0 -140 0 0 1025 0
1025 140 0 140 0 0 95 0 95 -250 0 -250 0 0 -1210z"/>
<path d="M1990 2430 l0 -90 145 0 145 0 0 -1025 0 -1025 -145 0 -145 0 0 -95
0 -95 255 0 255 0 0 1210 0 1210 -255 0 -255 0 0 -90z"/>
</g>
</svg>
