<?xml version="1.0" encoding="utf-8"?>
<!-- Generator: Adobe Illustrator 18.0.0, SVG Export Plug-In . SVG Version: 6.00 Build 0)  -->
<!DOCTYPE svg PUBLIC "-//W3C//DTD SVG 1.1//EN" "http://www.w3.org/Graphics/SVG/1.1/DTD/svg11.dtd">
<svg version="1.1" id="Layer_1" xmlns="http://www.w3.org/2000/svg" xmlns:xlink="http://www.w3.org/1999/xlink" x="0px" y="0px"
	 viewBox="0 0 175.5 501.5" enable-background="new 0 0 175.5 501.5" xml:space="preserve">
<g>
	<path fill="#55AF81" d="M175.5,187.8v146h-54.2v-16.7h33.8V204.5h-33.8v-16.7H175.5z"/>
</g>
<g>
	<path fill="#55AF81" d="M0,175.4c1.8-0.2,3.7-0.3,5.7-0.3c20.9,0,41.5,8.2,62.1,23.5l21.6-30.4c-23.2-18.6-49.7-28.8-83-28.8
		c-2.1,0-4.2,0.1-6.3,0.2V175.4z"/>
	<path fill="#55AF81" d="M22.7,238.9c-8.9-2.1-16.3-4.1-22.7-6.1v41c1.4,0.4,2.9,0.7,4.4,1.1c42.5,9.8,51.6,18.6,51.6,35.3
		c0,17.6-15.7,29.1-40.5,29.1c-5.4,0-10.5-0.4-15.5-1.1v36.1c4.8,0.5,9.6,0.7,14.5,0.7c48,0,81.7-25.5,81.7-68.6
		C96.2,268,71,250.6,22.7,238.9z"/>
</g>
<path fill="#706F6F" d="M1.3,23.3L1.3,23.3c2.6,0,4.5-0.9,6-2.6c1.5-1.7,2.6-4.5,3.4-8.4c0.4-2,0.9-3.6,1.3-4.9c0.5-1.3,1-2.3,1.6-3
	c0.6-0.7,1.2-1.2,2-1.5c0.7-0.3,1.5-0.4,2.4-0.4h0.1c0.9,0,1.7,0.2,2.4,0.6s1.4,0.9,2,1.7c0.6,0.7,1,1.6,1.4,2.6s0.5,2.1,0.5,3.4
	c0,1.9-0.3,3.6-0.9,5.2c-0.6,1.6-1.6,3.2-2.9,4.8l2,1.6c1.4-1.7,2.4-3.4,3.1-5.2c0.7-1.8,1-3.9,1-6.3c0-1.6-0.2-3-0.7-4.3
	c-0.4-1.3-1.1-2.4-1.9-3.4c-0.8-1-1.7-1.7-2.8-2.3C20.2,0.3,19.1,0,17.8,0h-0.1c-1.3,0-2.4,0.2-3.4,0.6c-1,0.4-1.9,1.1-2.6,2
	c-0.8,0.9-1.4,2.1-2,3.5c-0.6,1.4-1,3.2-1.5,5.2C7.9,13.2,7.5,14.8,7,16c-0.5,1.2-1,2.2-1.6,2.9c-0.6,0.7-1.2,1.2-1.9,1.5
	c-0.7,0.3-1.5,0.4-2.4,0.4H1c-0.4,0-0.7,0-1-0.1v2.5C0.4,23.3,0.8,23.3,1.3,23.3z"/>
<rect y="51.1" fill="#706F6F" width="26.2" height="2.5"/>
<polygon fill="#706F6F" points="21.8,85.5 2.4,98.8 2.4,99 21.8,112.3 0,112.3 0,114.8 26.2,114.8 26.2,112.4 6.3,98.9 26.2,85.4 
	26.2,83.1 0,83.1 0,85.5 "/>
<path fill="#706F6F" d="M0.5,170c1.8,0.7,4,1,6.4,1h19.3v-2.5H6.6c-2,0-3.8-0.3-5.3-0.8c-0.4-0.1-0.8-0.3-1.2-0.5v2.6
	C0.2,169.8,0.3,169.9,0.5,170z"/>
<path fill="#706F6F" d="M6.8,145.9h19.4v-2.5H6.6c-2.4,0-4.4,0.3-6.2,1c-0.1,0-0.2,0.1-0.3,0.1v2.7C1.9,146.4,4.1,145.9,6.8,145.9z"
	/>
<rect y="199.6" fill="#706F6F" width="26.2" height="2.5"/>
<path fill="#706F6F" d="M2,252.5v19.8l-2,0.9v2.7l26.4-12.2v-2.4L0,249.1v2.5L2,252.5z M4.3,253.6l19.4,8.9l-19.4,8.8V253.6z"/>
<path fill="#706F6F" d="M23.1,327.4c-0.4,0.9-1,1.8-1.6,2.6c-0.6,0.8-1.3,1.6-2,2.3l1.8,1.8c0.8-0.9,1.5-1.8,2.2-2.7
	c0.7-0.9,1.2-1.9,1.7-2.9c0.5-1,0.8-2.2,1.1-3.4c0.3-1.2,0.4-2.6,0.4-4.1c0-2.4-0.5-4.7-1.4-6.7c-0.9-2-2.2-3.8-3.7-5.3
	s-3.4-2.7-5.5-3.5s-4.4-1.3-6.7-1.3H9.3c-2.4,0-4.7,0.4-6.8,1.2c-0.9,0.4-1.7,0.8-2.5,1.2v3.1c1-0.8,2.2-1.4,3.5-1.9
	c1.8-0.7,3.8-1.1,5.9-1.1h0.1c2.1,0,4.1,0.4,5.9,1.1c1.8,0.7,3.4,1.7,4.8,3c1.4,1.3,2.4,2.8,3.2,4.5c0.8,1.7,1.2,3.6,1.2,5.6
	c0,1.2-0.1,2.4-0.4,3.5C23.9,325.5,23.5,326.5,23.1,327.4z"/>
<path fill="#706F6F" d="M6.5,362.8v10.9v0.1l-6.5,5v3.1l6.9-5.4c0.2,1.4,0.5,2.7,1,3.9c0.5,1.2,1.1,2.2,1.9,3.1
	c0.8,0.9,1.8,1.6,2.9,2.1c1.1,0.5,2.4,0.7,3.8,0.7h0.1c1.2,0,2.4-0.2,3.4-0.7c1.1-0.4,2-1.1,2.8-1.9c1-1,1.8-2.3,2.4-3.9
	c0.6-1.6,0.9-3.4,0.9-5.5v-14.1H0v2.5H6.5z M8.8,362.8h15.2v11.5c0,3.1-0.7,5.4-2,7.1c-1.3,1.7-3.1,2.5-5.4,2.5h-0.1
	c-1.2,0-2.3-0.2-3.3-0.7c-0.9-0.5-1.8-1.2-2.4-2c-0.7-0.9-1.2-1.9-1.5-3.1c-0.4-1.2-0.5-2.5-0.5-3.9V362.8z"/>
<path fill="#706F6F" d="M6.8,416.2h19.4v-2.5H6.6c-2.4,0-4.4,0.3-6.2,1c-0.1,0-0.2,0.1-0.3,0.1v2.7C1.9,416.6,4.1,416.2,6.8,416.2z"
	/>
<path fill="#706F6F" d="M0.5,440.2c1.8,0.7,4,1,6.4,1h19.3v-2.5H6.6c-2,0-3.8-0.3-5.3-0.8c-0.4-0.1-0.8-0.3-1.2-0.5v2.6
	C0.2,440.1,0.3,440.1,0.5,440.2z"/>
<polygon fill="#706F6F" points="21.8,472.3 2.4,485.6 2.4,485.8 21.8,499.1 0,499.1 0,501.5 26.2,501.5 26.2,499.2 6.3,485.7 
	26.2,472.2 26.2,469.9 0,469.9 0,472.3 "/>
</svg>
