<?xml version="1.0" encoding="utf-8"?>
<!-- Generator: Adobe Illustrator 16.0.0, SVG Export Plug-In . SVG Version: 6.00 Build 0)  -->
<!DOCTYPE svg PUBLIC "-//W3C//DTD SVG 1.1//EN" "http://www.w3.org/Graphics/SVG/1.1/DTD/svg11.dtd">
<svg version="1.1" id="Layer_1" xmlns="http://www.w3.org/2000/svg" xmlns:xlink="http://www.w3.org/1999/xlink" x="0px" y="0px"
	 width="673.111px" height="593.292px" viewBox="0 0 673.111 593.292" enable-background="new 0 0 673.111 593.292"
	 xml:space="preserve">
<path fill="#1852FA" stroke="#FFFFFF" stroke-miterlimit="10" d="M340.82,567.284c-44.877-0.084-86.48-11.083-122.705-38.401
	c-36.893-27.823-59.286-65.142-69.754-109.916c-0.998-4.271,0.221-6.163,4.494-6.799c21.241-3.164,42.476-6.369,63.68-9.767
	c3.941-0.632,4.856,1.358,5.758,4.385c5.106,17.137,11.511,33.781,20.712,49.154c18.32,30.607,45.741,47.146,80.933,50.978
	c20.469,2.229,40.954,2.231,61.024-3.084c20.919-5.54,39.491-15.096,52.644-33.115c15.402-21.103,16.226-44.451,10.335-68.716
	c-5.036-20.749-18.916-34.34-36.92-44.311c-22.528-12.478-47.136-19.221-71.899-25.353c-31.933-7.907-63.338-17.152-92.524-32.812
	c-23.764-12.749-44.678-28.922-58.294-52.514c-27.387-47.452-22.432-107.859,14.356-148.405
	c26.179-28.854,58.965-45.25,96.733-52.012c43.87-7.856,87.014-5.483,128.156,13.185c30.668,13.915,54.258,35.891,70.514,65.494
	c7.806,14.214,13.974,29.107,18.081,44.848c1.11,4.251,0.211,5.82-4.336,6.5c-19.757,2.95-39.47,6.215-59.166,9.548
	c-4.405,0.746-6.455-0.237-7.605-4.967c-4.295-17.667-11.397-33.995-23.494-47.985c-14.557-16.834-33.245-26.135-54.686-29.535
	c-28.61-4.534-56.838-2.875-83.477,9.922c-44.649,21.446-48.442,75.012-26.639,104.723c9.715,13.239,23.54,21.397,38.541,27.609
	c21.319,8.828,43.669,14.259,65.898,20.104c30.354,7.981,60.119,17.535,87.888,32.542c26.711,14.435,49.285,33.263,62.223,61.341
	c10.126,21.974,13.759,45.365,12.01,69.646c-2.041,28.323-11.618,53.575-29.792,75.362c-24.291,29.122-55.965,46.212-92.298,55.26
	C381.416,565.121,361.254,567.424,340.82,567.284z"/>
<path fill="#1852FA" stroke="#FFFFFF" stroke-miterlimit="10" d="M0.023,416.12c0-56.491-0.002-112.981,0.003-169.473
	c0-7.598,0.019-7.615,7.378-7.618c20.163-0.01,40.328,0.118,60.489-0.09c4.861-0.05,6.53,1.675,6.259,6.397
	c-0.295,5.149-0.22,10.333-0.024,15.491c0.153,4.023-1.287,5.677-5.487,5.585c-9.827-0.216-19.67,0.169-29.491-0.161
	c-4.957-0.167-6.172,1.714-6.162,6.374c0.126,54.325,0.08,108.649,0.08,162.973c0,41.159-0.004,82.319,0.005,123.479
	c0.001,6.945,0.044,6.979,6.954,6.992c9.499,0.02,18.999,0.127,28.495-0.045c4.03-0.072,5.783,1.317,5.614,5.498
	c-0.229,5.656-0.14,11.331-0.039,16.994c0.06,3.375-1.332,4.772-4.759,4.761c-21.497-0.073-42.993-0.088-64.489,0.013
	c-3.827,0.018-4.914-1.76-4.848-5.2c0.11-5.663,0.021-11.331,0.021-16.997C0.023,519.438,0.023,467.778,0.023,416.12z"/>
<path fill="#1852FA" stroke="#FFFFFF" stroke-miterlimit="10" d="M673.097,177.065c0,56.629,0.003,113.259-0.003,169.89
	c-0.001,7.289-0.023,7.312-7.132,7.316c-19.986,0.012-39.975-0.104-59.96,0.083c-4.646,0.043-6.728-1.251-6.411-6.196
	c0.339-5.308,0.229-10.66,0.032-15.982c-0.144-3.88,1.384-5.336,5.259-5.276c10.158,0.154,20.323-0.11,30.478,0.115
	c4.219,0.094,5.391-1.517,5.387-5.547c-0.08-96.27-0.082-192.541,0.004-288.811c0.004-4.139-1.365-5.571-5.487-5.482
	c-9.821,0.213-19.655-0.072-29.478,0.126c-4.358,0.088-6.482-1.144-6.194-5.927c0.331-5.477,0.174-10.991,0.051-16.484
	c-0.075-3.337,1.195-4.864,4.654-4.854C625.614,0.094,646.936,0.14,668.253,0c5.205-0.034,4.854,3.234,4.854,6.676
	c-0.015,47.969-0.01,95.938-0.009,143.906C673.098,159.41,673.098,168.238,673.097,177.065z"/>
</svg>
