<?xml version="1.0" encoding="utf-8"?>
<!-- Generator: Adobe Illustrator 16.0.0, SVG Export Plug-In . SVG Version: 6.00 Build 0)  -->
<!DOCTYPE svg PUBLIC "-//W3C//DTD SVG 1.1//EN" "http://www.w3.org/Graphics/SVG/1.1/DTD/svg11.dtd">
<svg version="1.1" id="Layer_1" xmlns="http://www.w3.org/2000/svg" xmlns:xlink="http://www.w3.org/1999/xlink" x="0px" y="0px"
	 width="268.762px" height="768px" viewBox="0 0 268.762 768" enable-background="new 0 0 268.762 768" xml:space="preserve">
<g>
	<path fill="#55AF81" d="M268.762,287.598v223.585H185.76v-25.575h51.762V313.173H185.76v-25.575H268.762z"/>
</g>
<g>
	<path fill="#55AF81" d="M0,268.608c2.756-0.306,5.666-0.459,8.729-0.459c32.006,0,63.553,12.558,95.1,35.988l33.078-46.554
		c-35.528-28.484-76.11-44.104-127.106-44.104c-3.216,0-6.432,0.153-9.647,0.306v54.824H0z"/>
	<path fill="#55AF81" d="M34.763,365.853C21.133,362.637,9.801,359.574,0,356.512v62.787c2.144,0.612,4.441,1.072,6.738,1.685
		c65.085,15.008,79.021,28.484,79.021,54.059c0,26.953-24.043,44.563-62.022,44.563c-8.27,0-16.08-0.612-23.737-1.684v55.283
		c7.351,0.766,14.702,1.072,22.206,1.072c73.507,0,125.116-39.051,125.116-105.055C147.321,410.417,108.729,383.771,34.763,365.853z
		"/>
</g>
<path d="M1.991,35.682L1.991,35.682c3.982,0,6.892-1.378,9.188-3.981c2.297-2.604,3.982-6.892,5.207-12.864
	c0.612-3.063,1.378-5.513,1.991-7.504c0.766-1.991,1.531-3.522,2.45-4.594c0.919-1.072,1.838-1.838,3.063-2.297
	c1.072-0.459,2.297-0.612,3.675-0.612h0.153c1.378,0,2.604,0.306,3.676,0.919c1.072,0.612,2.144,1.378,3.062,2.603
	c0.919,1.072,1.532,2.45,2.144,3.982c0.613,1.531,0.766,3.216,0.766,5.207c0,2.91-0.459,5.513-1.378,7.963
	c-0.919,2.45-2.451,4.9-4.441,7.351l3.063,2.451c2.144-2.604,3.675-5.207,4.747-7.963c1.072-2.757,1.532-5.973,1.532-9.648
	c0-2.45-0.307-4.594-1.072-6.585c-0.612-1.991-1.685-3.676-2.91-5.207s-2.603-2.604-4.288-3.522C30.935,0.459,29.25,0,27.259,0
	h-0.153c-1.991,0-3.675,0.306-5.207,0.919c-1.531,0.612-2.91,1.685-3.981,3.062c-1.225,1.378-2.144,3.216-3.063,5.36
	c-0.919,2.144-1.531,4.9-2.297,7.963c-0.459,2.91-1.072,5.36-1.838,7.198c-0.766,1.838-1.531,3.369-2.45,4.441
	c-0.919,1.072-1.837,1.838-2.91,2.297c-1.072,0.459-2.297,0.612-3.675,0.612H1.531c-0.612,0-1.072,0-1.531-0.153v3.829
	C0.612,35.682,1.225,35.682,1.991,35.682z"/>
<rect y="78.255" width="40.123" height="3.829"/>
<polygon points="33.385,130.935 3.675,151.303 3.675,151.609 33.385,171.977 0,171.977 0,175.805 40.123,175.805 40.123,172.13 
	9.648,151.456 40.123,130.782 40.123,127.26 0,127.26 0,130.935 "/>
<path d="M0.766,260.339c2.757,1.072,6.125,1.532,9.801,1.532h29.556v-3.829H10.107c-3.063,0-5.819-0.459-8.117-1.225
	c-0.612-0.153-1.225-0.459-1.837-0.766v3.981C0.306,260.033,0.459,260.186,0.766,260.339z"/>
<path d="M10.414,223.432h29.709v-3.829H10.107c-3.675,0-6.738,0.459-9.495,1.531c-0.153,0-0.306,0.153-0.459,0.153v4.135
	C2.91,224.198,6.279,223.432,10.414,223.432z"/>
<rect y="305.669" width="40.123" height="3.828"/>
<path d="M3.063,386.68v30.322L0,418.38v4.135l40.429-18.683v-3.676L0,381.474v3.828L3.063,386.68z M6.585,388.364l29.709,13.63
	L6.585,415.471V388.364z"/>
<path d="M35.375,501.382c-0.613,1.379-1.531,2.757-2.45,3.982c-0.919,1.225-1.991,2.45-3.063,3.521l2.757,2.757
	c1.225-1.378,2.297-2.757,3.369-4.135c1.072-1.378,1.837-2.909,2.603-4.441c0.766-1.531,1.225-3.369,1.685-5.206
	c0.459-1.838,0.613-3.982,0.613-6.279c0-3.675-0.766-7.197-2.144-10.261c-1.378-3.062-3.369-5.818-5.667-8.116
	c-2.297-2.297-5.207-4.135-8.422-5.359c-3.216-1.226-6.738-1.991-10.261-1.991h-0.153c-3.675,0-7.198,0.612-10.414,1.838
	c-1.378,0.612-2.604,1.225-3.829,1.838v4.747c1.531-1.225,3.369-2.144,5.36-2.909c2.756-1.072,5.819-1.685,9.035-1.685h0.153
	c3.216,0,6.279,0.612,9.035,1.685c2.757,1.071,5.207,2.603,7.351,4.594c2.144,1.991,3.675,4.288,4.9,6.892s1.837,5.513,1.837,8.575
	c0,1.838-0.153,3.676-0.612,5.36S35.988,500.004,35.375,501.382z"/>
<path d="M9.954,555.594v16.692v0.153L0,580.097v4.747l10.567-8.27c0.306,2.145,0.766,4.135,1.531,5.973s1.685,3.369,2.91,4.747
	s2.756,2.45,4.441,3.216s3.675,1.072,5.819,1.072h0.153c1.837,0,3.675-0.307,5.207-1.072c1.685-0.612,3.063-1.685,4.288-2.909
	c1.531-1.531,2.756-3.522,3.675-5.973s1.378-5.207,1.378-8.423v-21.593H0v3.829h9.954V555.594z M13.477,555.594h23.277v17.611
	c0,4.747-1.072,8.27-3.063,10.873s-4.748,3.828-8.27,3.828h-0.153c-1.837,0-3.522-0.306-5.054-1.071
	c-1.378-0.766-2.756-1.838-3.675-3.063c-1.072-1.378-1.837-2.909-2.297-4.747c-0.613-1.838-0.766-3.828-0.766-5.973V555.594z"/>
<path d="M10.414,637.371h29.709v-3.828H10.107c-3.675,0-6.738,0.459-9.495,1.531c-0.153,0-0.306,0.153-0.459,0.153v4.135
	C2.91,637.983,6.279,637.371,10.414,637.371z"/>
<path d="M0.766,674.125c2.757,1.072,6.125,1.531,9.801,1.531h29.556v-3.828H10.107c-3.063,0-5.819-0.46-8.117-1.226
	c-0.612-0.153-1.225-0.459-1.837-0.766v3.981C0.306,673.972,0.459,673.972,0.766,674.125z"/>
<polygon points="33.385,723.283 3.675,743.65 3.675,743.957 33.385,764.324 0,764.324 0,768 40.123,768 40.123,764.478 
	9.648,743.804 40.123,723.13 40.123,719.607 0,719.607 0,723.283 "/>
</svg>
