<?xml version="1.0" encoding="utf-8"?>
<!-- Generator: Adobe Illustrator 16.0.0, SVG Export Plug-In . SVG Version: 6.00 Build 0)  -->
<!DOCTYPE svg PUBLIC "-//W3C//DTD SVG 1.1//EN" "http://www.w3.org/Graphics/SVG/1.1/DTD/svg11.dtd">
<svg version="1.1" id="Layer_1" xmlns="http://www.w3.org/2000/svg" xmlns:xlink="http://www.w3.org/1999/xlink" x="0px" y="0px"
	 width="246.078px" height="227.473px" viewBox="0 8.538 246.078 227.473" enable-background="new 0 8.538 246.078 227.473"
	 xml:space="preserve">
<g>
	<path d="M56.788,181.43c13.073,6.862,33.99,13.728,55.234,13.728c22.878,0,34.971-9.479,34.971-24.186
		c0-13.4-10.458-21.571-36.932-30.723c-36.604-13.072-60.79-33.336-60.79-65.692c0-37.585,31.703-66.019,83.34-66.019
		c25.166,0,43.143,4.902,56.215,11.112l-11.111,39.873c-8.498-4.249-24.512-10.458-45.756-10.458
		c-21.57,0-32.029,10.132-32.029,21.244c0,14.053,12.092,20.263,40.854,31.375c38.894,14.381,56.868,34.644,56.868,66.021
		c0,36.932-28.107,68.307-88.571,68.307c-25.166,0-50.004-6.863-62.424-13.727L56.788,181.43z"/>
</g>
<g>
	<path d="M242.816,55.568V195.8h-32.198v-9.678h20.058V65.245h-20.058v-9.677H242.816z"/>
</g>
<g>
	<path d="M3.263,195.798V55.567h32.199v9.677H15.404v120.878h20.058v9.676H3.263z"/>
</g>
</svg>
